<svg width="1977" height="1378" viewBox="0 0 1977 1378" fill="none" xmlns="http://www.w3.org/2000/svg">
<g clip-path="url(#clip0_63_1718)">
<path d="M2022.89 101.367C1927.77 101.367 1850.67 174.994 1850.67 265.81C1850.67 266.273 1850.68 266.737 1850.68 267.201C1823.69 269.076 1799.42 280.282 1781.38 297.462C1760.81 270.617 1727.58 253.177 1690.07 253.177C1681.77 253.177 1673.67 254.043 1665.87 255.674C1660.52 203.436 1614.4 162.608 1558.29 162.608C1525.32 162.608 1495.8 176.707 1475.98 198.928C1462.21 189.788 1445.46 184.427 1427.42 184.427C1403.83 184.427 1382.49 193.573 1367.06 208.354C1361.66 169.244 1326.62 139.064 1284.17 139.064C1240.54 139.064 1204.73 170.977 1200.92 211.695C1189.79 207.924 1177.82 205.864 1165.34 205.864C1137.1 205.864 1111.42 216.381 1092.39 233.527C1071.85 208.204 1039.7 191.889 1003.54 191.889C995.005 191.889 986.697 192.803 978.704 194.521C970.167 176.932 951.524 164.715 929.879 164.715C919.171 164.715 909.199 167.717 900.82 172.866C890.904 138.62 858.038 113.474 819.021 113.474C773.969 113.474 737.13 146.989 734.337 189.331H734.166C700.621 189.331 671.626 207.917 657.846 234.892C647.217 230.316 635.431 227.771 623.015 227.771C614.272 227.771 605.836 229.033 597.906 231.379C595.377 174.292 546.117 128.745 485.705 128.745C426.473 128.745 377.955 172.525 373.705 228.05C365.297 225.384 356.304 223.939 346.953 223.939C335.731 223.939 325.016 226.025 315.208 229.804C299.922 208.483 274.249 194.494 245.146 194.494C204.365 194.494 170.306 221.967 162.148 258.586C151.168 255.599 139.618 253.887 127.695 253.607C127.731 252.352 127.746 251.091 127.746 249.828C127.746 166.53 57.019 99 -30.2226 99C-61.8459 99 -91.2985 107.874 -116 123.159V1311H2027V101.421C2025.64 101.38 2024.27 101.367 2022.89 101.367Z" fill="#B8DDF5"/>
</g>
<defs>
<clipPath id="clip0_63_1718">
<rect width="1977" height="1378" fill="white"/>
</clipPath>
</defs>
</svg>
