<svg width="1977" height="1378" viewBox="0 0 1977 1378" fill="none" xmlns="http://www.w3.org/2000/svg">
<g clip-path="url(#clip0_63_1720)">
<rect width="1977" height="1378" fill="#EBEBEB"/>
<path d="M1977.32 727.692V1378.27H0.0390625V727.692C964.267 1267.92 1977.32 727.692 1977.32 727.692Z" fill="white"/>
<path d="M1977.32 784.698V1378H0.0390625V846.152C964.267 1387.31 1977.32 784.698 1977.32 784.698Z" fill="#DEF0FB"/>
<path d="M843.725 1064.77C843.725 1081.51 819.359 1095.08 789.297 1095.08C759.237 1095.08 734.863 1081.51 734.863 1064.77C734.863 1048.02 759.237 1034.45 789.297 1034.45C819.359 1034.45 843.725 1048.02 843.725 1064.77Z" fill="#DEF0FB"/>
<path d="M918.56 1032.75C918.56 1044.47 902.72 1053.98 883.167 1053.98C863.623 1053.98 847.773 1044.47 847.773 1032.75C847.773 1021.03 863.623 1011.54 883.167 1011.54C902.72 1011.54 918.56 1021.03 918.56 1032.75Z" fill="#DEF0FB"/>
<path d="M0 1238.16C0 1238.16 262.414 1201.49 614 1378H0V1238.16Z" fill="white"/>
<path d="M0 1289.99C0 1289.99 226.086 1266.92 529 1378H0V1289.99Z" fill="#E8F6FD"/>
<path d="M344.173 1305.44C343.213 1316.27 325.035 1323.39 303.571 1321.36C282.107 1319.32 265.486 1308.88 266.446 1298.06C267.408 1287.23 285.585 1280.11 307.05 1282.15C328.514 1284.18 345.134 1294.61 344.173 1305.44Z" fill="#E8F6FD"/>
<path d="M377.014 1299.05C376.414 1303.32 370.12 1305.91 362.952 1304.83C355.786 1303.76 350.462 1299.42 351.062 1295.15C351.661 1290.88 357.956 1288.29 365.123 1289.37C372.29 1290.44 377.613 1294.77 377.014 1299.05Z" fill="#E8F6FD"/>
<path d="M1977 1079.73C1977 1079.73 1632 1020.89 1288.99 1192.62C1203.96 1235.2 1114.86 1269.67 1022.68 1294.58C908.329 1325.49 749.916 1360.2 567 1378H1977V1079.73Z" fill="white"/>
<path d="M1977 1200.4C1977 1197.3 1895.12 1196.01 1890.39 1196C1824.64 1195.85 1758.82 1202.06 1694.5 1215.94C1627.39 1230.43 1562.54 1255.57 1503.35 1290.55C1444.89 1325.11 1379.34 1348.86 1313.11 1363.08C1270.31 1372.27 1226.63 1377.26 1182.88 1377.89C1177.33 1377.96 1171.7 1378 1166 1378H1977V1200.4Z" fill="#BDD9F2"/>
<path d="M1573.21 1181.11C1575.44 1197.75 1551.94 1214.88 1520.71 1219.36C1489.49 1223.84 1462.38 1213.97 1460.15 1197.32C1457.92 1180.68 1481.42 1163.56 1512.64 1159.08C1543.86 1154.6 1570.98 1164.46 1573.21 1181.11Z" fill="#DEF1FC"/>
<path d="M1624.93 1138.47C1625.94 1146.74 1615.37 1155.24 1601.32 1157.46C1587.27 1159.69 1575.07 1154.79 1574.07 1146.52C1573.06 1138.26 1583.64 1129.76 1597.68 1127.54C1611.73 1125.31 1623.93 1130.21 1624.93 1138.47Z" fill="#DEF1FC"/>
<path d="M992.464 1360.71V1355.35C992.464 1355.22 992.445 1355.13 992.406 1355.06C992.367 1355 992.302 1354.97 992.212 1354.97C992.162 1354.97 992.092 1354.99 992.005 1355.02C991.916 1355.05 991.814 1355.09 991.696 1355.15L990.929 1355.53L990.801 1355.3C991.164 1355.11 991.558 1354.89 991.983 1354.65C992.41 1354.41 992.92 1354.12 993.513 1353.76V1360.71C993.513 1361.31 993.582 1361.67 993.718 1361.8C993.855 1361.92 994.207 1361.98 994.773 1361.98H994.96V1362.23H990.941V1361.98C991.647 1361.98 992.079 1361.91 992.233 1361.77C992.388 1361.63 992.464 1361.28 992.464 1360.71Z" fill="white"/>
<path d="M1326.07 1300.37C1326.07 1299.02 1326.31 1297.98 1326.78 1297.23C1327.26 1296.48 1327.92 1296.11 1328.75 1296.11C1329.6 1296.11 1330.25 1296.46 1330.7 1297.17C1331.16 1297.88 1331.38 1298.9 1331.38 1300.24C1331.38 1301.66 1331.16 1302.76 1330.71 1303.52C1330.25 1304.29 1329.61 1304.67 1328.77 1304.67C1327.88 1304.67 1327.22 1304.31 1326.76 1303.59C1326.3 1302.87 1326.07 1301.79 1326.07 1300.37ZM1328.74 1296.41C1328.21 1296.41 1327.81 1296.7 1327.59 1297.28C1327.36 1297.86 1327.25 1298.88 1327.25 1300.35C1327.25 1301.87 1327.35 1302.92 1327.58 1303.5C1327.8 1304.08 1328.19 1304.37 1328.73 1304.37C1329.28 1304.37 1329.66 1304.09 1329.88 1303.54C1330.08 1302.99 1330.18 1301.75 1330.18 1299.8C1330.18 1298.53 1330.08 1297.65 1329.86 1297.15C1329.64 1296.66 1329.27 1296.41 1328.74 1296.41Z" fill="white"/>
<path fill-rule="evenodd" clip-rule="evenodd" d="M1357.71 1308.2C1359.25 1308.2 1360.51 1309.53 1360.51 1311.16C1360.51 1312.8 1359.25 1314.12 1357.71 1314.12C1356.16 1314.12 1354.9 1312.8 1354.9 1311.16C1354.9 1309.53 1356.16 1308.2 1357.71 1308.2Z" fill="white"/>
<path fill-rule="evenodd" clip-rule="evenodd" d="M389.395 993.598L475.41 649.109L633.467 964.771L545.443 941.282L567.341 1071.88L534.168 1097.53L509.125 1081.73L472.714 950.1L389.395 993.598Z" fill="white"/>
<path fill-rule="evenodd" clip-rule="evenodd" d="M173.125 808.004L223.33 606.934L315.583 791.178L264.207 777.468L276.988 853.695L257.626 868.665L243.008 859.446L223.33 772L173.125 808.004Z" fill="white"/>
<path d="M500.563 697.51L522.741 705.106L516.748 729.859L494.57 722.263L500.563 697.51Z" fill="#244B7C"/>
<path d="M238.029 635.193L250.974 639.626L247.476 654.074L234.531 649.641L238.029 635.193Z" fill="#3786BE"/>
<path d="M516.735 729.858L538.912 737.454L532.919 762.207L510.742 754.611L516.735 729.858Z" fill="#244B7C"/>
<path d="M247.462 654.083L260.407 658.517L256.909 672.965L243.965 668.531L247.462 654.083Z" fill="#3786BE"/>
<path d="M532.906 762.207L555.084 769.804L549.092 794.557L526.914 786.961L532.906 762.207Z" fill="#244B7C"/>
<path d="M256.896 672.943L269.84 677.376L266.343 691.824L253.398 687.391L256.896 672.943Z" fill="#3786BE"/>
<path d="M549.078 794.586L571.256 802.182L565.264 826.935L543.086 819.339L549.078 794.586Z" fill="#244B7C"/>
<path d="M266.389 691.833L279.333 696.268L275.835 710.716L262.891 706.281L266.389 691.833Z" fill="#3786BE"/>
<path d="M565.309 826.935L587.487 834.531L581.494 859.285L559.316 851.688L565.309 826.935Z" fill="#244B7C"/>
<path d="M275.822 710.724L288.766 715.158L285.269 729.605L272.324 725.172L275.822 710.724Z" fill="#3786BE"/>
<path d="M581.481 859.283L603.659 866.879L597.665 891.632L575.488 884.036L581.481 859.283Z" fill="#244B7C"/>
<path d="M285.256 729.584L298.201 734.018L294.703 748.466L281.758 744.032L285.256 729.584Z" fill="#3786BE"/>
<path d="M597.652 891.632L619.83 899.228L613.838 923.981L591.66 916.385L597.652 891.632Z" fill="#244B7C"/>
<path d="M294.69 748.474L307.634 752.908L304.136 767.356L291.191 762.922L294.69 748.474Z" fill="#3786BE"/>
<path d="M478.342 689.94L500.52 697.537L506.512 672.783L484.334 665.187L489.328 644.559L467.15 636.963L378.262 1004.14L400.439 1011.73L406.432 986.98L428.61 994.576L434.602 969.823L412.424 962.226L478.342 689.94Z" fill="#244B7C"/>
<path d="M225.095 630.744L238.039 635.178L241.537 620.73L228.592 616.296L231.507 604.256L218.562 599.823L166.68 814.133L179.624 818.566L183.123 804.118L196.067 808.552L199.564 794.104L186.62 789.671L225.095 630.744Z" fill="#3786BE"/>
<path d="M484.993 960.236L507.171 967.832L495.186 1017.34L473.008 1009.74L484.993 960.236Z" fill="#244B7C"/>
<path d="M228.929 788.544L241.874 792.977L234.878 821.873L221.934 817.44L228.929 788.544Z" fill="#3786BE"/>
<path d="M468.805 927.887L490.983 935.483L484.99 960.237L462.812 952.64L468.805 927.887Z" fill="#244B7C"/>
<path d="M219.513 769.653L232.458 774.087L228.96 788.535L216.016 784.101L219.513 769.653Z" fill="#3786BE"/>
<path d="M440.621 945.068L462.799 952.664L456.807 977.418L434.629 969.822L440.621 945.068Z" fill="#244B7C"/>
<path d="M203.049 779.663L215.994 784.097L212.495 798.545L199.551 794.111L203.049 779.663Z" fill="#3786BE"/>
<path d="M551.497 983.032L573.675 990.628L561.69 1040.14L539.512 1032.54L551.497 983.032Z" fill="#244B7C"/>
<path d="M267.777 801.849L280.721 806.282L273.726 835.178L260.781 830.745L267.777 801.849Z" fill="#3786BE"/>
<path d="M561.689 1040.13L583.867 1047.73L572.881 1093.11L550.703 1085.51L561.689 1040.13Z" fill="#244B7C"/>
<path d="M273.698 835.175L286.643 839.609L280.23 866.097L267.285 861.663L273.698 835.175Z" fill="#3786BE"/>
<path d="M495.185 1017.36L517.363 1024.96L506.377 1070.34L484.199 1062.75L495.185 1017.36Z" fill="#244B7C"/>
<path d="M234.909 821.869L247.854 826.303L241.441 852.791L228.496 848.357L234.909 821.869Z" fill="#3786BE"/>
<path d="M506.363 1070.31L500.371 1095.07L544.727 1110.26L550.719 1085.51L506.363 1070.31Z" fill="#1C3581"/>
<path d="M1.67969 919.556C1.67969 919.556 712.993 1299.75 1688.99 944.248C1688.99 944.248 951.381 1346.89 1.67969 975.992V919.556Z" fill="#BDD9F2"/>
<path d="M241.427 852.783L237.93 867.231L263.819 876.098L267.316 861.65L241.427 852.783Z" fill="#3786BE"/>
<path d="M646.198 988.68L652.191 963.927L630.013 956.331L636.005 931.578L613.827 923.981L607.835 948.735L541.301 925.946L529.316 975.453L551.494 983.049L557.487 958.296L646.198 988.68Z" fill="#244B7C"/>
<path d="M323.025 805.128L326.523 790.68L313.578 786.245L317.076 771.797L304.131 767.365L300.634 781.811L261.8 768.51L254.805 797.406L267.749 801.84L271.247 787.392L323.025 805.128Z" fill="#3786BE"/>
<path fill-rule="evenodd" clip-rule="evenodd" d="M222.633 840C242.853 844.855 262.39 854.183 282.048 860.781C283.802 861.37 284.271 863.697 286.053 864.18C291.905 865.768 297.89 866.65 303.732 868.287C305.603 868.812 307.964 868.533 309.31 869.983C312.237 873.132 310.621 880.359 310.144 883.924C309.786 886.589 309.207 888.938 308.392 891.491C307.618 893.913 306.377 897.166 305.315 899.501C302.975 904.637 296.925 917.458 290.788 919.065C285.653 920.409 279.452 919.117 274.321 918.303C257.329 915.608 244.481 909.734 229.27 900.722C221.519 896.129 209.54 886.925 208.27 876.73C206.379 861.547 214.73 852.121 223.223 841.387" fill="white"/>
<path fill-rule="evenodd" clip-rule="evenodd" d="M476.25 732.819L445.996 912.545L467.281 907.123L476.25 732.819Z" fill="#E8F7FE"/>
<path fill-rule="evenodd" clip-rule="evenodd" d="M1697 1042.49L1783.02 698L1941.08 1013.66L1853.06 990.173L1874.95 1120.77L1841.78 1146.42L1816.73 1130.62L1791.5 995.5L1697 1042.49Z" fill="white"/>
<path d="M1809.13 745.453L1831.31 753.05L1825.32 777.803L1803.14 770.207L1809.13 745.453Z" fill="#244B7C"/>
<path d="M1825.31 777.802L1847.49 785.398L1841.49 810.151L1819.32 802.555L1825.31 777.802Z" fill="#244B7C"/>
<path d="M1841.54 810.15L1863.71 817.746L1857.72 842.5L1835.55 834.903L1841.54 810.15Z" fill="#244B7C"/>
<path d="M1857.71 842.499L1879.89 850.095L1873.89 874.848L1851.72 867.252L1857.71 842.499Z" fill="#244B7C"/>
<path d="M1873.88 874.847L1896.06 882.443L1890.07 907.196L1867.89 899.6L1873.88 874.847Z" fill="#244B7C"/>
<path d="M1890.05 907.196L1912.23 914.793L1906.24 939.546L1884.06 931.95L1890.05 907.196Z" fill="#244B7C"/>
<path d="M1906.28 939.545L1928.46 947.141L1922.47 971.894L1900.29 964.298L1906.28 939.545Z" fill="#244B7C"/>
<path d="M1786.97 737.852L1809.15 745.448L1815.15 720.695L1792.96 713.099L1797.96 692.471L1775.78 684.875L1686.89 1052.05L1709.07 1059.65L1715.07 1034.89L1737.25 1042.49L1743.24 1017.73L1721.06 1010.14L1786.97 737.852Z" fill="#244B7C"/>
<path d="M1793.57 1008.18L1815.75 1015.78L1803.76 1065.28L1781.58 1057.69L1793.57 1008.18Z" fill="#244B7C"/>
<path d="M1777.39 975.83L1799.56 983.426L1793.57 1008.18L1771.39 1000.58L1777.39 975.83Z" fill="#244B7C"/>
<path d="M1749.19 992.981L1771.37 1000.58L1765.38 1025.33L1743.2 1017.73L1749.19 992.981Z" fill="#244B7C"/>
<path d="M1860.13 1030.94L1882.3 1038.54L1870.32 1088.05L1848.14 1080.45L1860.13 1030.94Z" fill="#244B7C"/>
<path d="M1870.33 1088.04L1892.5 1095.64L1881.52 1141.02L1859.34 1133.42L1870.33 1088.04Z" fill="#1C3581"/>
<path d="M1803.76 1065.28L1825.93 1072.87L1814.95 1118.26L1792.77 1110.66L1803.76 1065.28Z" fill="#244B7C"/>
<path d="M1814.94 1118.26L1808.95 1143.01L1853.3 1158.2L1859.29 1133.45L1814.94 1118.26Z" fill="#1C3581"/>
<path d="M1954.83 1036.59L1960.82 1011.84L1938.64 1004.24L1944.63 979.489L1922.46 971.893L1916.47 996.646L1849.93 973.858L1837.95 1023.37L1860.13 1030.96L1866.12 1006.21L1954.83 1036.59Z" fill="#244B7C"/>
<path fill-rule="evenodd" clip-rule="evenodd" d="M1784.83 780.731L1754.57 960.458L1775.85 955.036L1784.83 780.731Z" fill="#E8F7FE"/>
<path fill-rule="evenodd" clip-rule="evenodd" d="M1734.14 1102.58C1760.64 1095.64 1787.07 1089.75 1814.36 1087.05C1832.76 1085.23 1851.26 1083.06 1869.73 1084.67C1879.81 1085.55 1907.07 1084.49 1911.17 1089.74C1928.87 1112.38 1932.01 1160.41 1902.64 1174.19C1864.35 1192.15 1806.25 1162.6 1770.22 1148.62C1764.97 1146.58 1727.2 1132.59 1727.74 1127.93C1728.69 1119.57 1732.08 1111.58 1735.52 1104.05" fill="white"/>
<path fill-rule="evenodd" clip-rule="evenodd" d="M231.508 648.926L200.488 765.488L222.311 761.972L231.508 648.926Z" fill="#E8F7FE"/>
</g>
<defs>
<clipPath id="clip0_63_1720">
<rect width="1977" height="1378" fill="white"/>
</clipPath>
</defs>
</svg>
