<svg width="1977" height="1378" viewBox="0 0 1977 1378" fill="none" xmlns="http://www.w3.org/2000/svg">
<g clip-path="url(#clip0_63_1721)">
<rect width="1977" height="1378" fill="#EBEBEB"/>
<path d="M1372.2 608.032L1471.7 709.842V789.15H1272.7V709.842L1372.2 608.032Z" fill="#07578B"/>
<path d="M1272.67 709.625H1189.55V789.151H1272.67V709.625Z" fill="#0A4166"/>
<path d="M1375.74 583.553L1491.45 704.391C1492.87 705.87 1492.88 708.257 1491.47 709.758L1484.21 717.484C1482.78 719.011 1480.41 719.031 1478.95 717.531L1372.21 608.056L1265.47 717.531C1264.01 719.031 1261.64 719.011 1260.2 717.484L1252.95 709.758C1251.54 708.257 1251.55 705.87 1252.97 704.391L1368.67 583.553C1370.62 581.524 1373.79 581.524 1375.74 583.553Z" fill="white"/>
<path d="M1403.19 663.933C1403.12 663.534 1402.82 663.221 1402.44 663.129L1399.42 662.431C1397.66 662.03 1396.37 661.069 1395.8 659.726C1395.22 658.381 1395.41 656.788 1396.34 655.241L1397.94 652.588C1398.14 652.248 1398.12 651.812 1397.88 651.492C1396.07 649.054 1393.9 646.926 1391.42 645.163C1391.09 644.931 1390.65 644.918 1390.33 645.126L1387.69 646.766C1386.74 647.362 1385.74 647.68 1384.79 647.69C1382.7 647.71 1381.04 646.238 1380.43 643.848L1379.68 640.843C1379.58 640.457 1379.26 640.162 1378.86 640.109C1375.88 639.671 1372.8 639.701 1369.81 640.198C1369.42 640.261 1369.1 640.56 1369.01 640.947L1368.32 643.966C1367.77 646.367 1366.12 647.871 1364.04 647.893C1363.09 647.901 1362.08 647.603 1361.11 647.025L1358.45 645.436C1358.12 645.235 1357.68 645.256 1357.36 645.494C1354.91 647.302 1352.78 649.471 1351.02 651.947C1350.78 652.272 1350.77 652.705 1350.98 653.045L1352.63 655.668C1353.59 657.195 1353.81 658.785 1353.26 660.138C1352.72 661.495 1351.45 662.48 1349.71 662.915L1346.69 663.671C1346.31 663.771 1346.01 664.091 1345.95 664.489C1345.73 665.983 1345.63 667.499 1345.65 669.009C1345.66 670.521 1345.79 672.038 1346.04 673.525C1346.11 673.919 1346.41 674.236 1346.79 674.321L1349.82 675.019C1351.58 675.424 1352.87 676.386 1353.43 677.727C1354.01 679.072 1353.82 680.665 1352.89 682.211L1351.29 684.863C1351.09 685.205 1351.12 685.639 1351.35 685.956C1353.16 688.394 1355.33 690.525 1357.81 692.283C1358.14 692.518 1358.58 692.53 1358.91 692.316L1361.53 690.68C1362.49 690.083 1363.5 689.762 1364.45 689.752C1366.53 689.731 1368.2 691.209 1368.8 693.6L1369.56 696.604C1369.66 696.993 1369.98 697.278 1370.38 697.341C1371.86 697.556 1373.39 697.662 1374.91 697.647C1376.41 697.632 1377.93 697.496 1379.42 697.253C1379.81 697.183 1380.13 696.891 1380.23 696.501L1380.92 693.481C1381.47 691.08 1383.12 689.569 1385.19 689.549C1386.14 689.539 1387.16 689.844 1388.13 690.422L1390.78 692.004C1391.12 692.213 1391.55 692.194 1391.87 691.952C1394.32 690.144 1396.45 687.976 1398.22 685.5C1398.45 685.177 1398.46 684.741 1398.25 684.406L1396.6 681.785C1395.64 680.254 1395.42 678.669 1395.97 677.314C1396.51 675.959 1397.78 674.973 1399.53 674.534L1402.54 673.778C1402.93 673.685 1403.22 673.359 1403.28 672.967C1403.5 671.476 1403.6 669.957 1403.58 668.445C1403.57 666.934 1403.44 665.421 1403.19 663.933ZM1401.4 672.03L1399.05 672.62C1396.67 673.219 1394.91 674.622 1394.13 676.576C1393.34 678.532 1393.63 680.751 1394.92 682.833L1396.22 684.89C1394.78 686.796 1393.1 688.502 1391.22 689.973L1389.13 688.728C1387.86 687.965 1386.49 687.567 1385.17 687.579C1382.17 687.608 1379.75 689.75 1378.99 693.042L1378.44 695.407C1376.09 695.737 1373.67 695.759 1371.31 695.477L1370.71 693.122C1369.89 689.847 1367.41 687.751 1364.42 687.78C1363.11 687.794 1361.75 688.22 1360.48 689.007L1358.42 690.293C1356.51 688.858 1354.8 687.189 1353.33 685.307L1354.57 683.225C1355.83 681.118 1356.07 678.895 1355.25 676.954C1354.42 675.016 1352.65 673.647 1350.25 673.095L1347.88 672.551C1347.71 671.372 1347.63 670.182 1347.62 668.99C1347.61 667.806 1347.67 666.606 1347.82 665.429L1350.18 664.836C1352.56 664.238 1354.31 662.835 1355.09 660.88C1355.88 658.928 1355.6 656.703 1354.3 654.627L1353.02 652.569C1354.45 650.661 1356.13 648.95 1358.01 647.479L1360.09 648.725C1361.38 649.493 1362.74 649.893 1364.06 649.881C1367.05 649.852 1369.47 647.703 1370.24 644.417L1370.79 642.053C1373.14 641.72 1375.56 641.696 1377.92 641.982L1378.52 644.337C1379.34 647.61 1381.81 649.708 1384.81 649.678C1386.12 649.665 1387.48 649.242 1388.74 648.446L1390.81 647.159C1392.72 648.594 1394.43 650.271 1395.9 652.151L1394.65 654.234C1393.39 656.334 1393.16 658.564 1393.98 660.502C1394.8 662.44 1396.58 663.808 1398.97 664.362L1401.35 664.908C1401.51 666.082 1401.61 667.28 1401.61 668.463C1401.62 669.657 1401.55 670.848 1401.4 672.03Z" fill="#B9DBF3"/>
<path d="M1374.42 648.622C1363.33 648.731 1354.39 657.833 1354.49 668.913C1354.6 679.993 1363.72 688.918 1374.82 688.809C1385.91 688.702 1394.85 679.599 1394.75 668.521C1394.64 657.441 1385.52 648.516 1374.42 648.622ZM1388.96 679.37L1386.22 677.501C1387.83 675.373 1388.89 672.8 1389.14 669.994L1392.46 669.962C1392.21 673.471 1390.95 676.702 1388.96 679.37ZM1381.85 667.977C1381.28 667.982 1380.81 668.455 1380.82 669.033C1380.82 669.609 1381.3 670.071 1381.87 670.065L1386.89 670.017C1386.65 672.347 1385.75 674.484 1384.38 676.248L1375.34 670.089C1374.96 669.826 1374.45 669.83 1374.08 670.099L1365.04 676.49C1363.33 674.397 1362.3 671.74 1362.27 668.836C1362.24 666.065 1363.15 663.505 1364.68 661.429L1373.97 668.39C1374.17 668.542 1374.41 668.616 1374.65 668.614C1374.89 668.611 1375.13 668.532 1375.33 668.376L1388.77 657.825C1390.94 660.634 1392.3 664.096 1392.48 667.873L1381.85 667.977ZM1382.84 677.893C1380.69 679.822 1377.86 681.018 1374.74 681.048C1371.65 681.077 1368.82 679.957 1366.63 678.097L1374.73 672.36L1382.84 677.893ZM1366.16 659.758C1368.35 657.701 1371.26 656.418 1374.5 656.387C1377.73 656.355 1380.68 657.59 1382.9 659.608L1374.62 666.101L1366.16 659.758ZM1374.44 650.847C1379.47 650.798 1384.03 652.837 1387.32 656.144L1384.67 658.222C1382.02 655.687 1378.43 654.124 1374.48 654.162C1370.53 654.202 1366.95 655.819 1364.35 658.404L1361.67 656.398C1364.9 653.025 1369.42 650.896 1374.44 650.847ZM1360.24 658.108L1362.9 660.096C1361.09 662.55 1360.01 665.58 1360.04 668.859C1360.07 672.233 1361.27 675.323 1363.23 677.776L1360.52 679.691C1358.19 676.704 1356.76 672.967 1356.72 668.891C1356.68 664.855 1358.01 661.126 1360.24 658.108ZM1374.8 686.586C1369.81 686.636 1365.28 684.633 1362 681.373L1364.77 679.415C1367.4 681.833 1370.91 683.309 1374.76 683.272C1378.64 683.234 1382.14 681.672 1384.72 679.177L1387.52 681.083C1384.3 684.429 1379.8 686.537 1374.8 686.586Z" fill="#B9DBF3"/>
<path d="M1181.07 704.393L1296.79 583.555C1297.76 582.539 1299.04 582.031 1300.31 582.031H1372.18C1370.9 582.031 1369.63 582.539 1368.65 583.555L1336.25 617.392L1322.95 631.277L1252.94 704.393C1251.52 705.872 1251.51 708.259 1252.91 709.76L1260.18 717.486C1260.9 718.256 1261.87 718.645 1262.83 718.645L1191.05 718.638C1190.99 718.645 1190.93 718.645 1190.87 718.638H1190.86C1189.93 718.618 1189.01 718.229 1188.31 717.486L1181.05 709.76C1179.64 708.259 1179.65 705.872 1181.07 704.393Z" fill="#B9DAF3"/>
<path d="M1732.06 746.406L1738.85 747.819L1740.2 740.748L1733.43 739.334L1734.78 732.263L1727.99 730.849L1729.36 723.777L1722.57 722.364L1723.92 715.292L1717.14 713.879L1718.5 706.807L1711.72 705.394L1713.07 698.322L1706.29 696.908L1707.65 689.837L1700.86 688.423L1702.22 681.352L1695.44 679.938L1696.79 672.867L1690.01 671.453L1691.37 664.381L1684.58 662.968L1685.95 655.92L1679.18 654.507L1680.53 647.442L1673.74 646.028L1675.11 638.957L1668.32 637.543L1643.89 764.79L1650.66 766.203L1652.03 759.132L1658.81 760.545L1660.17 753.474L1666.96 754.888L1668.31 747.816L1675.1 749.23L1676.45 742.158L1683.24 743.572L1680.52 757.708L1687.31 759.122L1684.59 773.258L1691.38 774.671L1688.66 788.808L1695.45 790.221L1692.73 804.358L1699.52 805.771L1698.16 812.843L1704.94 814.256L1703.58 821.328L1710.37 822.741L1711.73 815.67L1718.51 817.084L1719.87 810.012L1726.65 811.426L1729.37 797.289L1722.59 795.876L1725.29 781.739L1718.52 780.326L1721.22 766.19L1714.45 764.776L1717.16 750.64L1710.38 749.226L1711.73 742.155L1732.06 746.406Z" fill="#3985BF"/>
<path d="M1347.46 789.159H1396.96V722.549C1396.96 720.387 1395.26 718.628 1393.17 718.628H1351.25C1349.16 718.628 1347.46 720.387 1347.46 722.549V789.159Z" fill="#0A4166"/>
<path d="M1276.12 641.602H1231.15V662.391H1276.12V641.602Z" fill="#07578B"/>
<path d="M1243.58 641.602H1231.15V662.391H1243.58V641.602Z" fill="#0A4166"/>
<path d="M1223.65 632.852V638.854C1223.65 640.373 1224.84 641.606 1226.31 641.606H1280.89C1282.36 641.606 1283.55 640.373 1283.55 638.854V632.852C1283.55 631.329 1282.36 630.096 1280.89 630.096H1226.31C1224.84 630.096 1223.65 631.329 1223.65 632.852Z" fill="#B9DAF3"/>
<path d="M1238.18 632.852V638.854C1238.18 640.373 1239.37 641.606 1240.84 641.606H1280.91C1282.38 641.606 1283.57 640.373 1283.57 638.854V632.852C1283.57 631.329 1282.38 630.096 1280.91 630.096H1240.84C1239.37 630.096 1238.18 631.329 1238.18 632.852Z" fill="white"/>
<path d="M1773.47 813.156C1773.47 813.156 1359.34 687.506 1006.3 854.719C1006.3 854.719 802.372 942.735 537.93 923.3V1363.82H1773.47V813.156Z" fill="#DEF0FB"/>
<path d="M1773.47 813.156V870.929C1560.76 789.637 1340.29 808.533 1212.12 831.691C1160.75 840.972 1110.37 855.238 1061.38 873.677C775.145 981.386 537.93 923.3 537.93 923.3C802.371 942.735 1006.3 854.719 1006.3 854.719C1359.33 687.506 1773.47 813.156 1773.47 813.156Z" fill="white"/>
<path d="M1415.05 820.477C1415.58 835.043 1391.57 847.788 1361.44 848.954C1331.31 850.12 1306.44 839.264 1305.93 824.698C1305.4 810.139 1329.4 797.387 1359.53 796.228C1389.67 795.062 1414.52 805.918 1415.05 820.477Z" fill="white"/>
<path d="M1301.91 844.397C1302.47 850.132 1293.3 855.792 1281.41 857.026C1269.53 858.267 1259.45 854.612 1258.89 848.871C1258.33 843.136 1267.51 837.476 1279.39 836.241C1291.27 835 1301.35 838.655 1301.91 844.397Z" fill="white"/>
<path d="M1202.91 793.908C1202.91 806.496 1193.04 816.704 1180.88 816.704C1168.72 816.704 1158.85 806.496 1158.85 793.908C1158.85 781.32 1168.72 771.118 1180.88 771.118C1193.04 771.118 1202.91 781.32 1202.91 793.908Z" fill="white"/>
<path d="M1166.24 802.797C1166.24 808.362 1161.89 812.869 1156.5 812.869C1151.14 812.869 1146.78 808.362 1146.78 802.797C1146.78 797.233 1151.14 792.725 1156.5 792.725C1161.89 792.725 1166.24 797.233 1166.24 802.797Z" fill="white"/>
<path d="M1631.52 757.73L1636.28 758.721L1637.23 753.767L1632.47 752.776L1633.42 747.822L1628.67 746.831L1629.62 741.877L1624.87 740.886L1625.82 735.932L1621.06 734.941L1622.01 729.987L1617.26 728.996L1618.21 724.042L1613.45 723.051L1614.4 718.097L1609.64 717.106L1610.6 712.152L1605.84 711.161L1606.79 706.207L1602.04 705.216L1602.99 700.262L1598.23 699.271L1599.2 694.334L1594.44 693.343L1595.39 688.393L1590.63 687.403L1591.59 682.448L1586.83 681.458L1569.71 770.601L1574.47 771.592L1575.42 766.638L1580.17 767.629L1581.13 762.675L1585.88 763.666L1586.83 758.712L1591.59 759.703L1592.54 754.749L1597.3 755.74L1595.4 765.643L1600.15 766.634L1598.25 776.538L1603.01 777.529L1601.1 787.432L1605.86 788.423L1603.96 798.326L1608.71 799.317L1607.76 804.271L1612.51 805.262L1611.56 810.216L1616.32 811.207L1617.27 806.253L1622.03 807.244L1622.98 802.29L1627.74 803.281L1629.64 793.378L1624.88 792.387L1626.79 782.483L1622.03 781.492L1623.93 771.589L1619.18 770.598L1621.08 760.695L1616.32 759.704L1617.27 754.75L1631.52 757.73Z" fill="white"/>
<path d="M0 924.108C195.709 860.524 440.212 897.615 538 924.108V1368H0V924.108Z" fill="#DEF0FB"/>
<path d="M1439 899.087C1634.71 831.919 1879.21 871.1 1977 899.087V1368H1439V899.087Z" fill="#DEF0FB"/>
<path d="M1976.5 862C1903.7 844 1802.5 819.5 1767 811.5L1745 860.5C1745 860.5 1861 900.5 1977 932L1976.5 862Z" fill="white"/>
</g>
<defs>
<clipPath id="clip0_63_1721">
<rect width="1977" height="1378" fill="white"/>
</clipPath>
</defs>
</svg>
