<svg width="1977" height="1378" fill="none" xmlns="http://www.w3.org/2000/svg"><circle cx="989" cy="178" r="99" fill="#B8DDF5"/><circle cx="1759" cy="208" r="99" fill="#B8DDF5"/><circle cx="1334" cy="218" r="99" fill="#B8DDF5"/><circle cx="1131" cy="217" r="76" fill="#B8DDF5"/><circle cx="1858" cy="221" r="76" fill="#B8DDF5"/><circle cx="1556" cy="211" r="76" fill="#B8DDF5"/><circle cx="1215.5" cy="241.5" r="55.5" fill="#B8DDF5"/><circle cx="1921.5" cy="241.5" r="55.5" fill="#B8DDF5"/><circle cx="1646.5" cy="241.5" r="55.5" fill="#B8DDF5"/><circle cx="1463.5" cy="221.5" r="55.5" fill="#B8DDF5"/><circle r="99" transform="matrix(-1 0 0 1 988 178)" fill="#B8DDF5"/><circle r="99" transform="matrix(-1 0 0 1 218 208)" fill="#B8DDF5"/><circle r="99" transform="matrix(-1 0 0 1 643 218)" fill="#B8DDF5"/><circle r="76" transform="matrix(-1 0 0 1 846 217)" fill="#B8DDF5"/><circle r="76" transform="matrix(-1 0 0 1 119 221)" fill="#B8DDF5"/><circle r="76" transform="matrix(-1 0 0 1 421 211)" fill="#B8DDF5"/><circle r="55.5" transform="matrix(-1 0 0 1 761.5 241.5)" fill="#B8DDF5"/><circle r="55.5" transform="matrix(-1 0 0 1 55.5 241.5)" fill="#B8DDF5"/><circle r="55.5" transform="matrix(-1 0 0 1 330.5 241.5)" fill="#B8DDF5"/><circle r="55.5" transform="matrix(-1 0 0 1 513.5 221.5)" fill="#B8DDF5"/><path fill="#B8DDF5" d="M0 235h1977v1143H0z"/></svg>