<svg width="1977" height="1378" viewBox="0 0 1977 1378" fill="none" xmlns="http://www.w3.org/2000/svg">
<g clip-path="url(#clip0_63_1719)">
<path d="M1977.32 629.412V1363.84H0.0390625V356.331C63.0362 417.083 128.734 476.083 207.067 512.3C280.641 546.327 363.489 558.568 443.326 547.214C685.635 512.756 871.131 274.2 1115.31 259.607C1247.19 251.724 1373.99 311.911 1486.55 383.464C1599.11 455.011 1705.13 539.904 1827.77 590.7C1875.11 610.305 1926.12 624.1 1977.32 629.412Z" fill="#60A2D8"/>
<path d="M53.7686 325.317L15.5078 460.663H92.0304L53.7686 325.317Z" fill="#68ABDD"/>
<path d="M1327.26 1318.22C1316.01 1334.62 1303.46 1349.78 1289.84 1363.84H0.0390625V356.337C63.0362 417.089 128.734 476.089 207.067 512.306C280.641 546.333 363.489 558.574 443.326 547.22C643.171 518.799 804.364 351.553 991.711 285.62C1067.24 259.037 1150.85 271.436 1214.8 320.786C1243.08 342.606 1265.94 370.214 1278.81 403.117C1293.19 439.845 1280.42 478.837 1249.13 501.204C1214.13 526.23 1170.39 526.503 1130.39 536.295C1094.58 545.058 1059.42 556.644 1025.29 570.862C957.017 599.305 892.841 638.311 835.777 686.413C810.256 707.921 785.751 731.713 769.439 761.295C753.12 790.877 745.783 827.182 756.066 859.532C766.895 893.601 795.921 919.05 828.157 932.204C860.394 945.365 895.754 947.725 930.409 947.602C1003.6 947.336 1076.93 936.671 1149.79 943.852C1222.65 951.025 1298.02 979.448 1341.21 1040.6C1397.64 1120.53 1382.59 1237.46 1327.26 1318.22Z" fill="#68ABDD"/>
<path d="M447.772 533.658L451.695 534.476L452.48 530.389L448.557 529.571L449.341 525.484L445.418 524.667L446.203 520.58L442.279 519.762L443.064 515.675L439.14 514.858L439.925 510.771L436.002 509.953L436.786 505.866L432.863 505.049L433.648 500.961L429.725 500.144L430.509 496.057L426.585 495.239L427.371 491.152L423.447 490.335L424.231 486.248L420.308 485.43L421.102 481.357L417.178 480.54L417.962 476.456L414.038 475.639L414.823 471.552L410.9 470.734L396.777 544.277L400.701 545.095L401.486 541.008L405.41 541.825L406.194 537.738L410.118 538.556L410.903 534.469L414.826 535.286L415.611 531.199L419.534 532.017L417.965 540.187L421.889 541.005L420.32 549.175L424.244 549.992L422.675 558.162L426.599 558.98L425.03 567.15L428.954 567.968L428.168 572.055L432.092 572.872L431.308 576.959L435.231 577.777L436.015 573.69L439.939 574.507L440.724 570.42L444.648 571.238L446.216 563.068L442.293 562.25L443.861 554.08L439.938 553.262L441.507 545.092L437.583 544.275L439.153 536.105L435.229 535.287L436.014 531.2L447.772 533.658Z" fill="#68ABDD"/>
<path d="M564.139 499.478L568.062 500.296L568.848 496.209L564.924 495.391L565.708 491.304L561.784 490.486L562.57 486.399L558.647 485.582L559.431 481.495L555.507 480.677L556.293 476.59L552.369 475.773L553.154 471.686L549.23 470.868L550.015 466.781L546.092 465.964L546.876 461.877L542.953 461.059L543.738 456.972L539.814 456.155L540.599 452.068L536.675 451.25L537.469 447.177L533.545 446.359L534.33 442.276L530.405 441.459L531.191 437.372L527.267 436.554L513.145 510.097L517.068 510.915L517.853 506.828L521.777 507.645L522.561 503.558L526.485 504.376L527.27 500.289L531.193 501.106L531.979 497.019L535.902 497.837L534.333 506.007L538.256 506.824L536.688 514.994L540.611 515.812L539.042 523.982L542.966 524.8L541.397 532.97L545.321 533.787L544.536 537.874L548.459 538.692L547.675 542.779L551.598 543.596L552.383 539.509L556.306 540.327L557.091 536.24L561.015 537.057L562.584 528.887L558.66 528.07L560.229 519.9L556.305 519.082L557.874 510.912L553.951 510.094L555.52 501.924L551.596 501.107L552.381 497.02L564.139 499.478Z" fill="#68ABDD"/>
<path d="M265.838 499.478L269.762 500.296L270.547 496.209L266.623 495.391L267.408 491.304L263.484 490.486L264.269 486.399L260.346 485.582L261.13 481.495L257.207 480.677L257.992 476.59L254.068 475.773L254.853 471.686L250.929 470.868L251.714 466.781L247.791 465.964L248.575 461.877L244.652 461.059L245.437 456.972L241.514 456.155L242.298 452.068L238.374 451.25L239.168 447.177L235.245 446.359L236.028 442.276L232.105 441.459L232.89 437.372L228.966 436.554L214.844 510.097L218.767 510.915L219.553 506.828L223.476 507.645L224.26 503.558L228.184 504.376L228.969 500.289L232.893 501.106L233.677 497.019L237.601 497.837L236.032 506.007L239.955 506.824L238.387 514.994L242.31 515.812L240.742 523.982L244.665 524.8L243.097 532.97L247.02 533.787L246.235 537.874L250.158 538.692L249.374 542.779L253.298 543.596L254.082 539.509L258.005 540.327L258.791 536.24L262.714 537.057L264.283 528.887L260.359 528.07L261.928 519.9L258.004 519.082L259.573 510.912L255.65 510.094L257.219 501.924L253.296 501.107L254.08 497.02L265.838 499.478Z" fill="#68ABDD"/>
<path d="M1773.63 527.249L1777.56 528.066L1778.34 523.979L1774.42 523.162L1775.2 519.075L1771.28 518.257L1772.06 514.17L1768.14 513.353L1768.92 509.265L1765 508.448L1765.78 504.361L1761.86 503.543L1762.64 499.456L1758.72 498.639L1759.51 494.552L1755.58 493.734L1756.37 489.647L1752.44 488.83L1753.23 484.743L1749.31 483.925L1750.09 479.838L1746.17 479.021L1746.96 474.947L1743.04 474.13L1743.82 470.047L1739.9 469.229L1740.68 465.142L1736.76 464.325L1722.64 537.868L1726.56 538.685L1727.34 534.598L1731.27 535.416L1732.05 531.329L1735.98 532.146L1736.76 528.059L1740.68 528.877L1741.47 524.79L1745.39 525.607L1743.82 533.777L1747.75 534.595L1746.18 542.765L1750.1 543.583L1748.54 551.753L1752.45 552.57L1750.89 560.74L1754.82 561.558L1754.03 565.645L1757.96 566.462L1757.17 570.55L1761.09 571.367L1761.87 567.28L1765.8 568.098L1766.59 564.01L1770.5 564.828L1772.08 556.658L1768.15 555.84L1769.72 547.67L1765.8 546.853L1767.36 538.683L1763.45 537.865L1765.01 529.695L1761.08 528.877L1761.87 524.79L1773.63 527.249Z" fill="#60A2D8"/>
<path d="M1861 572.415L1864.91 573.232L1865.7 569.145L1861.77 568.328L1862.56 564.241L1858.64 563.423L1859.42 559.336L1855.5 558.519L1856.28 554.432L1852.36 553.614L1853.14 549.527L1849.23 548.709L1850 544.622L1846.09 543.805L1846.86 539.718L1842.95 538.9L1843.72 534.813L1839.81 533.996L1840.6 529.909L1836.67 529.091L1837.46 525.004L1833.53 524.187L1834.33 520.114L1830.4 519.296L1831.19 515.213L1827.26 514.395L1828.05 510.308L1824.12 509.491L1810 583.034L1813.93 583.851L1814.7 579.764L1818.63 580.582L1819.42 576.495L1823.33 577.312L1824.12 573.225L1828.05 574.043L1828.84 569.956L1832.75 570.773L1831.19 578.943L1835.11 579.761L1833.54 587.931L1837.47 588.749L1835.9 596.919L1839.82 597.736L1838.25 605.906L1842.18 606.724L1841.39 610.811L1845.32 611.629L1844.53 615.716L1848.45 616.533L1849.24 612.446L1853.16 613.264L1853.95 609.177L1857.87 609.994L1859.44 601.824L1855.51 601.006L1857.09 592.836L1853.16 592.019L1854.73 583.849L1850.81 583.031L1852.37 574.861L1848.45 574.043L1849.24 569.956L1861 572.415Z" fill="#60A2D8"/>
<path d="M1576 406.924L1579.92 407.742L1580.71 403.655L1576.78 402.837L1577.57 398.75L1573.64 397.933L1574.43 393.846L1570.5 393.028L1571.29 388.941L1567.36 388.124L1568.15 384.037L1564.23 383.219L1565.01 379.132L1561.09 378.315L1561.87 374.228L1557.95 373.41L1558.73 369.323L1554.81 368.506L1555.6 364.419L1551.67 363.601L1552.46 359.514L1548.53 358.696L1549.33 354.623L1545.4 353.806L1546.19 349.723L1542.26 348.905L1543.05 344.818L1539.12 344L1525 417.544L1528.93 418.361L1529.71 414.274L1533.64 415.092L1534.42 411.005L1538.34 411.822L1539.13 407.735L1543.05 408.553L1543.84 404.466L1547.76 405.283L1546.19 413.453L1550.11 414.271L1548.55 422.441L1552.47 423.258L1550.9 431.429L1554.83 432.246L1553.25 440.416L1557.18 441.234L1556.39 445.321L1560.32 446.138L1559.53 450.225L1563.46 451.043L1564.24 446.956L1568.16 447.773L1568.95 443.686L1572.88 444.504L1574.44 436.334L1570.52 435.516L1572.09 427.346L1568.16 426.528L1569.74 418.358L1565.81 417.541L1567.37 409.371L1563.46 408.553L1564.24 404.466L1576 406.924Z" fill="#60A2D8"/>
</g>
<defs>
<clipPath id="clip0_63_1719">
<rect width="1977" height="1378" fill="white"/>
</clipPath>
</defs>
</svg>
