<svg width="1977" height="1378" viewBox="0 0 1977 1378" fill="none" xmlns="http://www.w3.org/2000/svg">
<g clip-path="url(#clip0_63_1718)">
<circle cx="989" cy="178" r="99" fill="#B8DDF5"/>
<circle cx="1759" cy="208" r="99" fill="#B8DDF5"/>
<circle cx="1334" cy="218" r="99" fill="#B8DDF5"/>
<circle cx="1131" cy="217" r="76" fill="#B8DDF5"/>
<circle cx="1878" cy="241" r="76" fill="#B8DDF5"/>
<circle cx="1556" cy="211" r="76" fill="#B8DDF5"/>
<circle cx="1215.5" cy="241.5" r="55.5" fill="#B8DDF5"/>
<circle cx="1976.5" cy="241.5" r="55.5" fill="#B8DDF5"/>
<circle cx="1646.5" cy="241.5" r="55.5" fill="#B8DDF5"/>
<circle cx="1463.5" cy="221.5" r="55.5" fill="#B8DDF5"/>
<circle r="99" transform="matrix(-1 0 0 1 989 178)" fill="#B8DDF5"/>
<circle r="99" transform="matrix(-1 0 0 1 219 208)" fill="#B8DDF5"/>
<circle r="99" transform="matrix(-1 0 0 1 644 218)" fill="#B8DDF5"/>
<circle r="76" transform="matrix(-1 0 0 1 847 217)" fill="#B8DDF5"/>
<circle r="76" transform="matrix(-1 0 0 1 100 241)" fill="#B8DDF5"/>
<circle r="76" transform="matrix(-1 0 0 1 422 211)" fill="#B8DDF5"/>
<circle r="55.5" transform="matrix(-1 0 0 1 762.5 241.5)" fill="#B8DDF5"/>
<circle r="55.5" transform="matrix(-1 0 0 1 1.5 241.5)" fill="#B8DDF5"/>
<circle r="55.5" transform="matrix(-1 0 0 1 331.5 241.5)" fill="#B8DDF5"/>
<circle r="55.5" transform="matrix(-1 0 0 1 514.5 221.5)" fill="#B8DDF5"/>
<rect width="2020" height="1143" transform="matrix(-1 0 0 1 2001 235)" fill="#B8DDF5"/>
</g>
<defs>
<clipPath id="clip0_63_1718">
<rect width="1977" height="1378" fill="white"/>
</clipPath>
</defs>
</svg>
