<svg width="1977" height="1378" viewBox="0 0 1977 1378" fill="none" xmlns="http://www.w3.org/2000/svg">
<path d="M1973.21 101.367C1885.46 101.367 1814.33 174.994 1814.33 265.81C1814.33 266.273 1814.34 266.737 1814.34 267.201C1789.44 269.076 1767.05 280.282 1750.4 297.462C1731.43 270.617 1700.77 253.177 1666.17 253.177C1658.51 253.177 1651.04 254.043 1643.84 255.674C1638.91 203.436 1596.36 162.608 1544.6 162.608C1514.18 162.608 1486.95 176.707 1468.66 198.928C1455.96 189.788 1440.51 184.427 1423.87 184.427C1402.1 184.427 1382.42 193.573 1368.18 208.354C1363.19 169.244 1330.87 139.064 1291.71 139.064C1251.46 139.064 1218.42 170.977 1214.91 211.695C1204.64 207.924 1193.6 205.864 1182.08 205.864C1156.03 205.864 1132.35 216.381 1114.79 233.527C1095.84 208.204 1066.18 191.889 1032.82 191.889C1024.94 191.889 1017.28 192.803 1009.91 194.521C1002.03 176.932 984.832 164.715 964.863 164.715C954.985 164.715 945.786 167.717 938.056 172.866C928.908 138.62 898.588 113.474 862.593 113.474C821.03 113.474 787.045 146.989 784.469 189.331H784.311C753.364 189.331 726.615 207.917 713.902 234.892C704.097 230.316 693.224 227.771 681.77 227.771C673.704 227.771 665.921 229.033 658.606 231.379C656.273 174.292 610.828 128.745 555.096 128.745C500.453 128.745 455.693 172.525 451.771 228.05C444.015 225.384 435.719 223.939 427.092 223.939C416.739 223.939 406.855 226.025 397.806 229.804C383.704 208.483 360.019 194.494 333.171 194.494C295.549 194.494 264.128 221.967 256.602 258.586C246.473 255.599 235.818 253.887 224.818 253.607C224.851 252.352 224.865 251.091 224.865 249.828C224.865 166.53 159.617 99 79.1329 99C49.9592 99 22.7881 107.874 0 123.159V1311H1977V101.421C1975.74 101.38 1974.48 101.367 1973.21 101.367Z" fill="#B8DDF5"/>
</svg>
