<svg width="1977" height="1378" viewBox="0 0 1977 1378" fill="none" xmlns="http://www.w3.org/2000/svg">
<g clip-path="url(#clip0_63_1722)">
<path d="M590.561 612.942L594.484 613.759L595.269 609.672L591.346 608.855L592.13 604.768L588.207 603.95L588.992 599.863L585.068 599.046L585.853 594.959L581.929 594.141L582.715 590.054L578.791 589.237L579.575 585.149L575.652 584.332L576.437 580.245L572.514 579.427L573.298 575.34L569.374 574.523L570.16 570.436L566.235 569.618L567.02 565.531L563.097 564.714L563.891 560.641L559.967 559.823L560.751 555.74L556.827 554.922L557.612 550.835L553.689 550.018L539.566 623.561L543.49 624.378L544.275 620.291L548.199 621.109L548.983 617.022L552.907 617.839L553.692 613.752L557.615 614.57L558.4 610.483L562.323 611.3L560.755 619.471L564.678 620.288L563.109 628.458L567.033 629.276L565.464 637.446L569.388 638.263L567.819 646.434L571.743 647.251L570.957 651.338L574.881 652.156L574.097 656.243L578.02 657.06L578.805 652.973L582.728 653.791L583.513 649.704L587.437 650.521L589.005 642.351L585.082 641.533L586.651 633.363L582.727 632.546L584.297 624.376L580.372 623.558L581.942 615.388L578.018 614.57L578.803 610.483L590.561 612.942Z" fill="#DEF1FC"/>
<path d="M674.205 600.966L679.466 602.062L680.518 596.583L675.257 595.487L676.31 590.007L671.05 588.911L672.102 583.431L666.841 582.335L667.893 576.855L662.632 575.759L663.686 570.28L658.425 569.184L659.477 563.704L654.216 562.608L655.268 557.128L650.008 556.032L651.061 550.553L645.8 549.457L646.852 543.977L641.592 542.881L642.644 537.401L637.383 536.305L638.447 530.844L633.187 529.748L634.238 524.273L628.978 523.177L630.03 517.698L624.77 516.602L605.836 615.204L611.096 616.3L612.148 610.82L617.409 611.916L618.461 606.437L623.722 607.533L624.774 602.053L630.034 603.149L631.086 597.669L636.347 598.765L634.243 609.719L639.504 610.816L637.4 621.77L642.661 622.866L640.557 633.82L645.818 634.916L643.715 645.87L648.974 646.966L647.922 652.446L653.183 653.542L652.131 659.021L657.391 660.117L658.443 654.638L663.704 655.734L664.756 650.254L670.017 651.35L672.12 640.396L666.859 639.3L668.963 628.346L663.703 627.25L665.806 616.296L660.545 615.2L662.649 604.246L657.389 603.15L658.441 597.67L674.205 600.966Z" fill="#DEF1FC"/>
<path d="M740.564 624.922L743.833 625.604L744.488 622.197L741.217 621.516L741.872 618.11L738.601 617.428L739.256 614.022L735.985 613.341L736.64 609.934L733.369 609.253L734.024 605.847L730.753 605.165L731.408 601.759L728.137 601.078L728.792 597.671L725.521 596.99L726.176 593.584L722.905 592.902L723.56 589.496L720.289 588.815L720.944 585.408L717.673 584.727L718.335 581.332L715.065 580.651L715.719 577.248L712.449 576.566L713.103 573.16L709.833 572.479L698.062 633.773L701.332 634.454L701.987 631.048L705.257 631.729L705.911 628.323L709.181 629.004L709.835 625.598L713.105 626.279L713.759 622.873L717.029 623.554L715.722 630.364L718.991 631.045L717.684 637.855L720.955 638.536L719.647 645.345L722.917 646.027L721.609 652.836L724.879 653.517L724.225 656.924L727.495 657.605L726.841 661.011L730.111 661.693L730.765 658.286L734.036 658.968L734.689 655.562L737.96 656.243L739.268 649.433L735.997 648.752L737.304 641.943L734.035 641.261L735.342 634.452L732.072 633.771L733.38 626.961L730.109 626.28L730.764 622.873L740.564 624.922Z" fill="#3985BF"/>
<path d="M-0.960938 847.915L575.557 640.761C610.55 628.188 648.328 626.442 684.266 635.74L1976.32 970.033V1363.83H-0.960938V847.915Z" fill="#BDD9F2"/>
</g>
<defs>
<clipPath id="clip0_63_1722">
<rect width="1977" height="1378" fill="white"/>
</clipPath>
</defs>
</svg>
