<svg width="99" height="100" viewBox="0 0 99 100" fill="none" xmlns="http://www.w3.org/2000/svg">
<path d="M49.2001 20.8466C33.4587 20.8466 20.5566 33.9317 20.5566 49.8964C20.5566 65.8611 33.4587 78.9463 49.2001 78.9463C64.9415 78.9463 77.8436 65.9742 77.8436 49.8964C77.8436 33.8186 64.9415 20.8466 49.2001 20.8466ZM49.2001 74.7328C35.7514 74.7328 24.7123 63.5315 24.7123 49.8975C24.7123 36.1504 35.6453 25.0623 49.2001 25.0623C62.7549 25.0623 73.688 36.1504 73.688 49.8975C73.688 63.6446 62.6478 74.7328 49.2001 74.7328Z" fill="white"/>
<path d="M88.2286 50.1174C88.2286 45.6821 91.7261 41.8012 96.0993 41.4675L98.5035 41.2468L97.9568 38.9161C96.7531 33.26 94.5665 27.941 91.5085 23.0589L90.1976 21.0664L88.3401 22.6176C84.9487 25.6103 79.9217 25.3897 76.7489 22.1752C73.5794 18.9619 73.3575 13.7471 76.3127 10.312L77.9526 8.42811L75.8775 7.09864C71.0681 3.99285 65.7087 1.77521 60.1361 0.445744L57.8336 0L57.7232 2.43829C57.3941 6.98665 53.6791 10.5337 49.1943 10.5337C44.7096 10.5337 40.9945 6.98554 40.6655 2.43829L40.5627 0L38.1585 0.554408C32.5816 1.88388 27.337 4.10151 22.4171 7.2073L20.342 8.53677L21.982 10.4206C24.9328 13.8602 24.7152 19.0705 21.5458 22.2839C18.3774 25.4972 13.346 25.6103 9.95454 22.7263L8.19978 21.0664L6.88891 23.172C3.82657 28.0486 1.75038 33.372 0.439508 39.0292L0 41.3588L2.40418 41.5806C6.77739 41.9132 10.2749 45.7941 10.2749 50.2293C10.2749 54.7777 6.99496 58.4335 2.51132 58.8792L0.106051 59.0999L0.652703 61.4306C1.96467 66.9747 4.15128 72.2981 7.10211 77.1747L8.30583 79.1717L10.1645 77.6204C13.5548 74.8484 18.4747 75.0701 21.6441 78.1748C24.7054 81.2806 25.0345 86.2703 22.3012 89.7043L20.7728 91.5893L22.7418 92.8101C27.5502 95.8028 32.692 98.0204 38.1596 99.2423L40.4523 99.7923L40.6709 97.4627C41.1061 93.0274 44.8255 89.701 49.1987 89.701C53.5719 89.701 57.1809 93.0274 57.7276 97.4627L57.9451 99.7923L60.2433 99.2379C65.7098 98.0171 70.9587 95.7995 75.661 92.8056L77.6301 91.5848L76.2077 89.701C73.4744 86.2614 73.692 81.2718 76.8659 78.1715C79.9271 74.957 84.847 74.732 88.3456 77.6171L90.2031 79.1672L91.4068 77.1702C94.4692 72.2937 96.6558 67.0789 97.8562 61.4262L98.4029 59.0965L95.8828 58.7672C91.5096 58.4335 88.2297 54.6646 88.2297 50.1174H88.2286ZM88.8868 72.9612C84.0773 70.3022 77.9537 71.0773 73.7981 75.1788C69.7528 79.2803 68.9886 85.4919 71.6114 90.3685C68.3315 92.2524 64.9401 93.6949 61.3355 94.6906C59.6955 89.3683 54.8872 85.5995 49.1976 85.5995C43.5135 85.5995 38.7008 89.3683 37.0597 94.6906C33.4507 93.6949 30.0648 92.2524 26.7849 90.3685C29.4066 85.4919 28.5352 79.2803 24.5983 75.1788C20.5541 71.0773 14.4294 70.3022 9.50956 72.9612C7.65204 69.6347 6.22965 66.1952 5.24677 62.5405C10.6029 60.9893 14.4294 55.9996 14.4294 50.1229C14.4294 44.2451 10.4914 39.2554 5.13634 37.7053C6.11813 34.0451 7.54052 30.498 9.39805 27.1715C14.2075 29.9436 20.5487 29.2761 24.5928 25.0659C28.7484 20.8513 29.4022 14.4201 26.5618 9.54247C29.8417 7.65859 33.3392 6.21602 36.9482 5.1072C38.3706 10.6513 43.3965 14.7528 49.1921 14.7528C54.9878 14.7528 60.0137 10.6513 61.4361 5.1072C65.0451 6.10403 68.5425 7.54549 71.8225 9.54247C68.9777 14.5321 69.7474 20.9644 73.7915 25.0659C77.8356 29.1674 84.1779 29.9436 88.9862 27.1715C90.8438 30.498 92.2662 34.0451 93.2479 37.7053C87.8929 39.2554 83.9549 44.2451 83.9549 50.1229C83.9549 55.9996 87.7814 60.9893 93.1375 62.5405C92.1634 66.1963 90.741 69.6347 88.8835 72.9612H88.8868Z" fill="white"/>
<path d="M49.5668 45.663L51.2056 46.6243L52.6517 47.4714L52.8906 47.6071C53.0494 47.6991 53.1376 47.8697 53.135 48.0434V51.9742C53.135 52.1746 53.0181 52.3484 52.8493 52.4251L51.2081 53.3864L49.7694 54.2285L49.5274 54.3718C49.3567 54.4707 49.1517 54.4561 49.0004 54.3471L47.3616 53.3864L45.9229 52.5437L45.6785 52.4029C45.5197 52.311 45.4321 52.1404 45.4346 51.9666V48.0358C45.4346 47.8354 45.5515 47.6617 45.7204 47.5849L47.3616 46.6243L48.8147 45.772L49.0391 45.6382C49.2104 45.5393 49.4155 45.5539 49.5668 45.663ZM50.7223 47.4784L49.2836 46.6363L47.8449 47.4784L46.4087 48.3186V51.687L47.8449 52.5266L49.2836 53.3686L50.7223 52.5266L52.1584 51.687V48.3186L50.7223 47.4784Z" fill="white"/>
<path d="M49.7803 26.722C49.7803 26.4494 49.5603 26.2268 49.292 26.2268C49.0232 26.2268 48.8037 26.4494 48.8037 26.722V45.8144C48.8037 46.0871 49.0232 46.3097 49.292 46.3097C49.5603 46.3097 49.7803 46.0871 49.7803 45.8144V26.722Z" fill="white"/>
<path d="M52.7381 30.756C52.9288 30.5626 52.9288 30.2481 52.7381 30.0553C52.5475 29.8619 52.2373 29.8619 52.0473 30.0553L49.2918 32.8492L46.537 30.0553C46.3463 29.8619 46.0362 29.8619 45.8461 30.0553C45.6555 30.2481 45.6555 30.5626 45.8461 30.756L48.9455 33.8993C49.1355 34.0927 49.4456 34.0927 49.6363 33.8993L52.7356 30.756H52.7381Z" fill="white"/>
<path d="M52.7381 68.3995C52.9288 68.2061 52.9288 67.8915 52.7381 67.6988C52.5475 67.5054 52.2373 67.5054 52.0473 67.6988L49.2918 70.4926L46.537 67.6988C46.3463 67.5054 46.0362 67.5054 45.8461 67.6988C45.6555 67.8915 45.6555 68.2061 45.8461 68.3995L48.9455 71.5427C49.1355 71.7361 49.4456 71.7361 49.6363 71.5427L52.7356 68.3995H52.7381Z" fill="white"/>
<path d="M48.8037 72.0229C48.8037 72.2956 49.0238 72.5182 49.292 72.5182C49.5609 72.5182 49.781 72.2956 49.781 72.0229V52.9305C49.781 52.6579 49.5609 52.4353 49.292 52.4353C49.0238 52.4353 48.8037 52.6579 48.8037 52.9305V72.0229Z" fill="white"/>
<path d="M69.3997 38.7928C69.6317 38.6565 69.7124 38.3547 69.5779 38.1194C69.4435 37.8835 69.1459 37.8023 68.9139 37.938L52.6115 47.4846C52.3795 47.6209 52.2988 47.9234 52.4333 48.1586C52.5671 48.3939 52.8653 48.4757 53.0973 48.3393L69.3997 38.7928Z" fill="white"/>
<path d="M67.4358 43.4039C67.6972 43.473 67.9635 43.317 68.0342 43.0545C68.1023 42.7894 67.9485 42.5193 67.6897 42.4476L63.9288 41.4248L64.9373 37.6075C65.0055 37.3424 64.8517 37.0729 64.5928 37.0006C64.3315 36.9315 64.0651 37.0875 63.9945 37.35L62.8978 41.5015C62.8859 41.5485 62.8734 41.5954 62.8591 41.6429C62.7878 41.908 62.9441 42.1775 63.2036 42.2498L63.3843 42.2992L67.4358 43.4013V43.4039Z" fill="white"/>
<path d="M29.1496 61.2208C28.9176 61.3572 28.8369 61.659 28.9714 61.8949C29.1058 62.1301 29.4034 62.2119 29.6354 62.0756L45.9378 52.5291C46.1698 52.3928 46.2504 52.0903 46.1166 51.855C45.9822 51.6198 45.684 51.538 45.452 51.6743L29.1496 61.2208Z" fill="white"/>
<path d="M33.633 62.3995C33.5649 62.6645 33.7187 62.9347 33.9775 63.0063C34.2389 63.0754 34.5052 62.9195 34.5759 62.6569L35.7113 58.3647C35.782 58.0996 35.6257 57.8295 35.3668 57.7578C33.9556 57.371 32.5439 56.9924 31.1321 56.6082C30.8707 56.5391 30.6044 56.695 30.5337 56.9576C30.4656 57.2226 30.6194 57.4928 30.8782 57.5644L34.639 58.5872L33.6305 62.4046L33.633 62.3995Z" fill="white"/>
<path d="M68.9139 62.0756C69.1459 62.2119 69.4441 62.1301 69.5785 61.8949C69.7123 61.6596 69.6317 61.3571 69.3997 61.2208L53.0973 51.6743C52.8653 51.538 52.5677 51.6198 52.4333 51.855C52.2988 52.0909 52.3795 52.3928 52.6115 52.5291L68.9139 62.0756Z" fill="white"/>
<path d="M63.9972 62.6569C64.0653 62.922 64.3342 63.078 64.5955 63.0063C64.8569 62.9366 65.0107 62.6645 64.94 62.3995L63.9315 58.5822L67.6923 57.5593C67.9537 57.4902 68.1075 57.2176 68.0368 56.9525C67.9687 56.6874 67.6998 56.5314 67.4385 56.6031C66.0267 56.9874 64.6149 57.3659 63.2031 57.7527C62.9418 57.8244 62.7879 58.0945 62.8592 58.3596L62.9105 58.5498L63.9947 62.6519L63.9972 62.6569Z" fill="white"/>
<path d="M29.6354 37.9353C29.4034 37.799 29.1052 37.8808 28.9714 38.116C28.8369 38.3513 28.9176 38.6537 29.1496 38.7901L45.452 48.3366C45.684 48.4729 45.9816 48.3911 46.116 48.1559C46.2504 47.92 46.1698 47.6181 45.9378 47.4818L29.6354 37.9353Z" fill="white"/>
<path d="M30.8792 42.4497C30.6179 42.5188 30.4641 42.7915 30.5347 43.0565C30.6035 43.3216 30.8717 43.4776 31.1331 43.4059L35.3685 42.2563C35.6298 42.1846 35.7836 41.9145 35.7123 41.6494C35.3341 40.2176 34.9558 38.789 34.5769 37.3572C34.5088 37.0921 34.2399 36.9361 33.9786 37.0078C33.7172 37.0769 33.5634 37.3496 33.634 37.6146L34.6432 41.4319L30.8818 42.4548L30.8792 42.4497Z" fill="white"/>
</svg>
