<svg width="51" height="51" viewBox="0 0 51 51" fill="none" xmlns="http://www.w3.org/2000/svg">
<path fill-rule="evenodd" clip-rule="evenodd" d="M23.3547 38.3023L22.3895 39.8155C22.165 40.1683 21.6606 40.3099 21.2347 40.1491L16.4265 38.566C16.0002 38.426 15.7722 38.0403 15.8793 37.6725H15.8774L16.3705 36.0019C15.6549 35.5837 14.9775 35.1151 14.3444 34.6007C13.7073 34.0851 13.1243 33.532 12.6021 32.9464L10.6566 33.4391C10.2174 33.5499 9.75867 33.3629 9.58037 33.0163L7.48154 28.9778C7.28949 28.6088 7.47172 28.1789 7.88824 27.9969L9.58037 27.1343C9.50915 26.8107 9.45168 26.4854 9.40944 26.1584C9.34264 25.644 9.30777 25.1301 9.30777 24.6173C9.30777 24.2025 9.32889 23.7926 9.37113 23.3857C9.37309 23.3615 9.37702 23.3386 9.38292 23.3145C9.406 23.1125 9.43253 22.9109 9.46544 22.7122L7.68096 21.8942C7.26444 21.7034 7.09744 21.2756 7.28753 20.9145L9.15452 16.8373C9.31955 16.4762 9.77439 16.2825 10.2076 16.3737V16.372L12.1782 16.7898C12.6714 16.1829 13.224 15.6102 13.8281 15.0733L13.8267 15.0717C14.4328 14.5348 15.087 14.0404 15.7816 13.5947L15.2 11.9466C15.0699 11.5738 15.2904 11.1848 15.6991 11.0319L20.4611 9.25382C20.8968 9.09096 21.4032 9.24549 21.6183 9.59869L22.6331 11.0352C23.0152 10.9753 23.3989 10.9261 23.7844 10.8903C24.3906 10.8337 24.9972 10.8041 25.6013 10.8041C26.0906 10.8041 26.5744 10.822 27.0538 10.8578C27.0827 10.8595 27.1098 10.8628 27.1382 10.8678C27.3765 10.8874 27.6142 10.9099 27.848 10.9378L28.8132 9.42459C29.0377 9.07138 29.5446 8.92852 29.9685 9.09096L34.7767 10.6741C35.2025 10.8141 35.4309 11.1998 35.3214 11.5671H35.3233L34.8302 13.2382C35.5459 13.6564 36.2212 14.1249 36.8544 14.6377L36.8563 14.636C37.4895 15.15 38.073 15.7048 38.5986 16.2937L40.5441 15.801C40.9838 15.6902 41.442 15.8772 41.6223 16.2238L43.7216 20.2619C43.9132 20.6313 43.7309 21.0607 43.3149 21.2432L41.6208 22.1053C41.6915 22.4294 41.749 22.7547 41.7913 23.0817C41.8586 23.5956 41.8929 24.11 41.8929 24.6223C41.8929 25.0372 41.8718 25.4474 41.8296 25.854C41.8276 25.8785 41.8242 25.9014 41.8183 25.9256C41.7952 26.1289 41.7682 26.3292 41.7358 26.5275L43.5202 27.3459C43.9363 27.5363 44.1033 27.9644 43.9132 28.3256L42.0467 32.4028C41.8816 32.7639 41.4268 32.9576 40.9931 32.8664V32.8681L39.0225 32.4499C38.5298 33.0567 37.9772 33.6294 37.3726 34.1663L37.3745 34.168C36.7684 34.7049 36.1142 35.1997 35.4191 35.6454L35.9987 37.2952C36.1294 37.668 35.9088 38.0566 35.5002 38.2094L30.7376 39.9896C30.3025 40.152 29.7956 39.9975 29.5809 39.6447L28.5637 38.2094C28.182 38.2698 27.7984 38.3185 27.4128 38.3544C26.8062 38.4114 26.2001 38.4406 25.5954 38.4406C25.1062 38.4406 24.6229 38.4227 24.143 38.3869C24.1145 38.3852 24.0855 38.3819 24.059 38.3773C23.8267 38.3527 23.589 38.3298 23.3547 38.3023ZM21.1866 38.5056L22.0766 37.1082H22.0786C22.2573 36.8266 22.6331 36.6608 23.0246 36.7208C23.4219 36.7812 23.8228 36.8283 24.2275 36.8608C24.2525 36.8608 24.2776 36.8624 24.3026 36.8641C24.7305 36.8966 25.1622 36.9128 25.6013 36.9128C26.1578 36.9128 26.6991 36.887 27.2208 36.8378C27.7655 36.7858 28.297 36.7112 28.8132 36.6117C29.1816 36.5417 29.575 36.6737 29.7803 36.9632L30.7435 38.3235L34.059 37.0836L33.5335 35.5866C33.4087 35.2743 33.5354 34.9148 33.8709 34.7165C34.673 34.243 35.4137 33.7061 36.0812 33.1155L36.0832 33.1171L36.0852 33.1155C36.7394 32.5361 37.3284 31.8967 37.8466 31.2087C38.0381 30.9142 38.4453 30.7547 38.85 30.8392L40.6689 31.2249L41.9794 28.363L40.331 27.6079V27.6062C39.9994 27.455 39.8034 27.136 39.8747 26.804C39.9454 26.4675 40.0014 26.1255 40.0397 25.784C40.0397 25.7628 40.0417 25.7419 40.0436 25.7207C40.0819 25.3596 40.1011 24.9918 40.1011 24.6207C40.1011 24.1488 40.0701 23.6902 40.0127 23.2474C39.9513 22.7855 39.8609 22.3348 39.746 21.8971C39.6634 21.5847 39.8187 21.2511 40.1605 21.077L41.7642 20.2602L40.3044 17.4487L38.5391 17.8948C38.1707 18.0006 37.7468 17.8931 37.5126 17.6082C36.9541 16.9281 36.3209 16.3004 35.6244 15.7339L35.6264 15.7323L35.6244 15.7306C34.9417 15.1758 34.1877 14.6764 33.3758 14.2374C33.0285 14.0745 32.8384 13.728 32.9401 13.3865L33.395 11.8424L30.02 10.7312L29.13 12.1269H29.128C28.9492 12.4085 28.5735 12.5743 28.182 12.5143C27.7846 12.4539 27.3838 12.4068 26.9791 12.3743C26.9541 12.3743 26.929 12.3727 26.904 12.371C26.4761 12.3385 26.0444 12.3223 25.6053 12.3223C25.0488 12.3223 24.508 12.3481 23.9858 12.3972C23.4411 12.4493 22.9096 12.5239 22.3934 12.6234C22.025 12.6934 21.6316 12.5614 21.4263 12.2719L20.4631 10.9115L17.1476 12.1498L17.6731 13.6468C17.7979 13.9592 17.6717 14.3186 17.3357 14.5169C16.5336 14.9905 15.7929 15.5273 15.1254 16.118L15.1234 16.1163L15.1214 16.118C14.4672 16.6973 13.8763 17.3367 13.36 18.0264C13.1685 18.3209 12.7613 18.4804 12.3585 18.3942L10.5377 18.0085L9.22721 20.872L10.8756 21.6272V21.6289C11.2072 21.78 11.4032 22.0991 11.3319 22.4311C11.2612 22.7676 11.2052 23.1079 11.1669 23.4511C11.1669 23.4723 11.1649 23.4932 11.1635 23.5144C11.1247 23.8755 11.1055 24.2433 11.1055 24.6161C11.1055 25.0876 11.1364 25.5466 11.1939 25.9889C11.2553 26.4512 11.3437 26.9019 11.4606 27.3397C11.5431 27.6521 11.3879 27.9853 11.0461 28.1594L9.44235 28.9762L10.9022 31.7876L12.6675 31.3419C13.0359 31.2362 13.4597 31.3436 13.6921 31.6285C14.256 32.3149 14.8896 32.9447 15.5802 33.5041C16.2629 34.0589 17.0174 34.5603 17.8308 34.9977C18.1781 35.1605 18.3662 35.5054 18.2665 35.847L17.8116 37.3897L21.1866 38.5056ZM25.6013 34.0997C28.6884 34.0997 31.4842 33.0388 33.5065 31.3224C35.5287 29.6059 36.7817 27.2372 36.7817 24.619C36.7817 22.0012 35.5306 19.6304 33.5065 17.9156C31.4842 16.1992 28.6889 15.1383 25.6013 15.1383C22.5142 15.1383 19.7184 16.1992 17.6962 17.9156C15.672 19.6304 14.421 22.0012 14.421 24.619C14.421 27.2372 15.672 29.6076 17.6962 31.3224C19.7184 33.0388 22.5142 34.0997 25.6013 34.0997ZM18.9664 30.2453C20.6644 31.6852 23.0113 32.5769 25.6013 32.5769C28.1933 32.5769 30.5382 31.6868 32.2363 30.2453C33.9343 28.8054 34.9839 26.8157 34.9839 24.619C34.9839 22.4227 33.9343 20.4326 32.2363 18.9927C30.5382 17.5529 28.1918 16.6632 25.6013 16.6632C23.0113 16.6632 20.6644 17.5529 18.9664 18.9927C17.2684 20.4326 16.2187 22.4227 16.2187 24.619C16.2187 26.8157 17.2684 28.8054 18.9664 30.2453Z" fill="white"/>
<path d="M24.2864 8.0113V11.3424C24.2864 11.8821 24.7437 12.242 25.4278 12.242C26.1119 12.242 26.5691 11.8821 26.5691 11.3424L26.5715 8.0113L31.3686 4.23037C31.8252 3.86997 31.8252 3.33078 31.3686 2.97085C30.9113 2.61045 30.2272 2.61045 29.77 2.97085L26.5739 5.4899L26.5715 0.901121C26.5715 0.361458 26.1142 0.00152588 25.4301 0.00152588C24.746 0.00152588 24.2888 0.361458 24.2888 0.901121V5.49177L21.0921 2.97225C20.6354 2.61232 19.9507 2.61232 19.4941 2.97225C19.0368 3.33265 19.0368 3.87185 19.4941 4.23225L24.2864 8.0113Z" fill="white"/>
<path d="M0.99008 10.6654L6.0146 12.9163L1.67478 13.8159C1.1041 13.9053 0.646838 14.4463 0.874281 14.8961C0.988299 15.3459 1.67478 15.7063 2.24547 15.5271L8.86802 14.1777L12.5213 15.7976C13.092 16.0681 13.7785 15.887 14.1194 15.4372C14.4632 14.9874 14.2334 14.4463 13.6627 14.1777L10.0094 12.5577L8.18094 7.33803C8.06752 6.88823 7.38103 6.6177 6.81035 6.7071C6.23966 6.79696 5.89642 7.33803 6.00985 7.78783L7.15121 11.2088L2.13145 9.13535C1.56076 8.86481 0.874281 9.04548 0.533414 9.49528C0.305972 9.85568 0.419396 10.3949 0.99008 10.6654Z" fill="white"/>
<path d="M12.3031 33.4308L8.6498 35.0507L2.02724 33.7013C1.45656 33.6119 0.770074 33.8806 0.656056 34.3323C0.542632 34.7821 0.883499 35.3231 1.45656 35.4125L5.79637 36.3121L0.770074 38.6505C0.19939 38.9215 0.0853722 39.4607 0.312815 39.9105C0.656057 40.3603 1.34076 40.4497 1.91085 40.2704L6.93537 38.02L5.794 41.3512C5.68057 41.801 6.02144 42.342 6.5945 42.4319C7.16518 42.5213 7.85167 42.2526 7.96569 41.801L9.79354 36.5812L13.4469 34.9613C14.0176 34.6908 14.131 34.1511 13.9041 33.7018C13.5585 33.3414 12.7604 33.1603 12.3031 33.4308Z" fill="white"/>
<path d="M27.102 41.9918V38.6606C27.102 38.1214 26.6447 37.761 25.9606 37.761C25.2765 37.761 24.8193 38.121 24.8193 38.6606V41.9918L20.0222 45.7727C19.5655 46.1331 19.5655 46.6723 20.0222 47.0322C20.4794 47.3926 21.1636 47.3926 21.6208 47.0322L24.8169 44.5132V49.1019C24.8169 49.6416 25.2741 50.0015 25.9583 50.0015C26.6424 50.0015 27.0996 49.6416 27.0996 49.1019V44.5113L30.2963 47.0308C30.753 47.3907 31.4377 47.3907 31.8943 47.0308C32.3516 46.6704 32.3516 46.1312 31.8943 45.7708L27.102 41.9918Z" fill="white"/>
<path d="M49.421 38.0886L44.3965 35.8377L48.7369 34.9386C49.3076 34.8487 49.7642 34.3077 49.5368 33.8579C49.4234 33.4081 48.7369 33.1375 48.1662 33.2269L41.5436 34.5763L37.8903 32.9564C37.3196 32.6859 36.6326 32.867 36.2917 33.3168C35.9485 33.7666 36.1783 34.3077 36.749 34.5763L40.4023 36.1962L42.2301 41.416C42.3436 41.8658 43.0306 42.1363 43.6013 42.0469C44.172 41.957 44.5153 41.416 44.4012 40.9662L43.2599 37.5452L48.2844 39.796C48.8551 40.0666 49.5421 39.8854 49.883 39.4361C50.1057 38.8983 49.9917 38.3591 49.421 38.0886Z" fill="white"/>
<path d="M38.1055 14.9062L41.7588 13.2863L48.3813 14.6357C48.952 14.7251 49.6391 14.4564 49.7525 14.0047C49.8659 13.5549 49.5251 13.0139 48.952 12.9245L44.6122 12.0249L49.6361 9.77401C50.2068 9.50347 50.3208 8.96428 50.0934 8.51448C49.7501 8.06468 49.066 7.97481 48.4953 8.15408L43.4732 10.4049L44.6146 6.98395C44.728 6.53415 44.3871 5.99308 43.8141 5.90369C43.2434 5.81382 42.5569 6.08248 42.4429 6.53415L40.615 11.7539L36.9617 13.3738C36.391 13.6443 36.2776 14.184 36.5044 14.6338C36.8501 14.9956 37.6482 15.1767 38.1055 14.9062Z" fill="white"/>
</svg>
