<svg width="30" height="30" viewBox="0 0 30 30" fill="none" xmlns="http://www.w3.org/2000/svg">
<path d="M28.2182 11.5885H26.0246C25.7923 10.7961 25.4761 10.0317 25.0799 9.30653L26.6299 7.75658C27.226 7.16052 27.226 6.19384 26.6299 5.59897L24.1457 3.11388C23.5499 2.51781 22.5833 2.51781 21.9872 3.11388L20.4372 4.66382C19.7121 4.26764 18.9477 3.95146 18.1553 3.71916V1.52556C18.1553 0.683214 17.4721 0 16.6286 0H13.1152C12.2717 0 11.5885 0.683214 11.5885 1.52556V3.71916C10.7961 3.95146 10.0317 4.26764 9.30653 4.66382L7.75658 3.11388C7.16081 2.51781 6.19414 2.51781 5.59808 3.11388L3.11388 5.59778C2.51781 6.19384 2.51781 7.16052 3.11388 7.75658L4.66382 9.30653C4.26764 10.0317 3.95146 10.7961 3.71916 11.5885H1.52556C0.683214 11.5885 0 12.2717 0 13.1152V16.6286C0 17.4721 0.683214 18.1553 1.52556 18.1553H3.71916C3.95146 18.9477 4.26764 19.7121 4.66382 20.4372L3.11388 21.9869C2.51781 22.583 2.51781 23.5496 3.11388 24.1457L5.59808 26.6299C6.19414 27.226 7.16081 27.226 7.75658 26.6299L9.30653 25.0799C10.0317 25.4761 10.7961 25.792 11.5885 26.0246V28.2182C11.5885 29.0606 12.2717 29.7438 13.1152 29.7438H16.6286C17.4721 29.7438 18.1553 29.0606 18.1553 28.2182V26.0246C18.9477 25.792 19.7121 25.4761 20.4372 25.0799L21.9872 26.6299C22.5833 27.226 23.5499 27.226 24.1448 26.6299L26.6299 24.1445C27.226 23.5496 27.226 22.583 26.6299 21.9869L25.0799 20.4372C25.4761 19.7121 25.7923 18.9477 26.0246 18.1553H28.2182C29.0606 18.1553 29.7438 17.4721 29.7438 16.6286V13.1152C29.7438 12.2717 29.0606 11.5885 28.2182 11.5885ZM14.8719 20.9125C11.5337 20.9125 8.83122 18.2112 8.83122 14.8719C8.83122 11.5337 11.5326 8.83122 14.8719 8.83122C18.21 8.83122 20.9125 11.5326 20.9125 14.8719C20.9125 18.21 18.2112 20.9125 14.8719 20.9125Z" fill="white"/>
</svg>
