<svg width="99" height="99" viewBox="0 0 99 99" fill="none" xmlns="http://www.w3.org/2000/svg">
<path d="M97.593 49.1496H66.9976L70.8442 45.2792C71.1553 44.9664 71.1553 44.4561 70.8442 44.1423C70.532 43.8285 70.0243 43.8285 69.7121 44.1423L64.7386 49.1496H51.6277L61.5113 39.2153H68.5043C68.9444 39.2153 69.3037 38.8532 69.3037 38.4118C69.3037 37.9694 68.9444 37.6073 68.5043 37.6073H63.1111L84.1342 16.4765C84.4453 16.1637 84.4453 15.6534 84.1342 15.3396C83.822 15.0258 83.3143 15.0258 83.0021 15.3396L61.9831 36.4622V31.0044C61.9831 30.562 61.6239 30.2009 61.1837 30.2009C60.7436 30.2009 60.3843 30.562 60.3843 31.0044V38.0692L50.4956 48.0086V34.1762L55.3535 29.2924C55.6657 28.9797 55.6657 28.4694 55.3535 28.1556C55.0423 27.8418 54.5346 27.8418 54.2224 28.1556L50.4956 31.9015V1.80453C50.4956 1.36214 50.1364 1 49.6962 1C49.2561 1 48.8968 1.36214 48.8968 1.80453V32.0908L44.9622 28.1443C44.65 27.8305 44.1423 27.8305 43.8312 28.1443C43.519 28.457 43.519 28.9673 43.8312 29.2811L48.8927 34.3655V48.021L39.3408 38.4201V31.4066C39.3408 30.9642 38.9805 30.6031 38.5414 30.6031C38.1012 30.6031 37.741 30.9642 37.741 31.4066V36.8161L16.3904 15.3437C16.0792 15.0299 15.5715 15.0299 15.2593 15.3437C14.9471 15.6575 14.9471 16.1678 15.2593 16.4806L36.6222 37.9489H31.1799C30.7408 37.9489 30.3805 38.311 30.3805 38.7534C30.3805 39.1948 30.7408 39.5569 31.1799 39.5569H38.221L47.7658 49.1496H34.5751L29.7162 44.2668C29.405 43.953 28.8973 43.953 28.5851 44.2668C28.273 44.5806 28.273 45.0909 28.5851 45.4047L32.312 49.1496H1.80043C1.3603 49.1496 1 49.5117 1 49.9531C1 50.3955 1.3603 50.7576 1.80043 50.7576H32.487L28.5524 54.7155C28.2402 55.0292 28.2402 55.5395 28.5524 55.8533C28.708 56.0097 28.9117 56.0858 29.1164 56.0858C29.3201 56.0858 29.5238 56.0056 29.6834 55.8492L34.746 50.7535H47.7648L38.5803 59.984H31.791C31.3508 59.984 30.9916 60.3462 30.9916 60.7886C30.9916 61.2299 31.3508 61.5921 31.791 61.5921H36.9804L15.2614 83.4307C14.9502 83.7445 14.9502 84.2548 15.2614 84.5675C15.418 84.725 15.6217 84.8052 15.8254 84.8052C16.029 84.8052 16.2338 84.725 16.3893 84.5675L38.308 62.5365V68.2073C38.308 68.6497 38.6673 69.0108 39.1074 69.0108C39.5476 69.0108 39.9068 68.6497 39.9068 68.2073V60.9295L48.8958 51.8955V64.9079L44.3532 69.4728C44.041 69.7866 44.041 70.2969 44.3532 70.6106C44.6654 70.9234 45.1731 70.9234 45.4853 70.6106L48.8958 67.1785V98.0872C48.8958 98.5296 49.2551 98.8907 49.6952 98.8907C50.1353 98.8907 50.4946 98.5296 50.4946 98.0872V66.375L54.7414 70.6384C54.897 70.7958 55.1007 70.872 55.3044 70.872C55.5091 70.872 55.7128 70.7917 55.8724 70.6343C56.1846 70.3215 56.1846 69.8112 55.8724 69.4975L50.6625 64.2649C50.6103 64.2124 50.555 64.1764 50.4946 64.1404V51.8914L60.0465 61.4923V67.9666C60.0465 68.409 60.4068 68.7701 60.8459 68.7701C61.2861 68.7701 61.6464 68.409 61.6464 67.9666V63.0993L83.0011 84.5634C83.1566 84.7208 83.3603 84.8011 83.564 84.8011C83.7687 84.8011 83.9724 84.7208 84.128 84.5634C84.4402 84.2507 84.4402 83.7404 84.128 83.4266L62.2216 61.4079H68.2156C68.6547 61.4079 69.015 61.0458 69.015 60.6044C69.015 60.162 68.6547 59.7999 68.2156 59.7999H60.85C60.7825 59.7999 60.7149 59.8122 60.6545 59.8287L51.6308 50.7576H64.7416L69.6834 55.7288C69.839 55.8862 70.0427 55.9665 70.2464 55.9665C70.4511 55.9665 70.6548 55.8862 70.8104 55.7288C71.1226 55.4161 71.1226 54.9058 70.8104 54.592L66.9966 50.7576H97.592C98.0311 50.7576 98.3914 50.3965 98.3914 49.9541C98.3914 49.5117 98.0352 49.1506 97.592 49.1506L97.593 49.1496Z" fill="white" stroke="white" stroke-width="0.0122116" stroke-miterlimit="2" stroke-linejoin="round"/>
<path d="M54.0893 13.2994C57.5838 9.39713 58.4078 8.54527 59.1273 8.70165C61.0864 9.1317 63.0537 9.75105 64.9924 10.5062C66.368 11.0453 67.6475 11.6194 68.799 12.1945C69.2033 12.3951 69.5626 12.5844 69.8789 12.7531C70.0662 12.857 70.1982 12.9332 70.275 12.9743L70.8144 13.2912L70.7827 13.9177C70.7745 14.1194 70.7745 14.1194 70.7346 14.9311C70.6824 15.9435 70.6824 15.9435 70.622 17.1575C70.535 18.9137 70.4582 20.3849 70.4582 20.389C70.4429 20.9394 70.45 21.4456 70.4787 21.8839C70.4869 22.0444 70.4981 22.1565 70.5063 22.2337C70.5984 23.2337 70.9864 24.1822 71.5821 25.0423C71.8257 25.3962 72.0857 25.709 72.3457 25.9827C72.5013 26.1432 72.6179 26.2481 72.7131 26.3325C73.1533 26.7378 73.7654 27.0434 74.5126 27.2522C75.4921 27.5259 76.5443 27.602 77.4154 27.5619C77.7593 27.5465 78.0828 27.53 78.5106 27.5094C79.2189 27.4775 79.9385 27.4456 80.6263 27.4179C80.7737 27.4096 80.7737 27.4096 80.9221 27.4055C81.8618 27.3613 82.6448 27.3294 83.2252 27.3088C83.5527 27.2965 83.8127 27.2893 83.9969 27.281C84.2805 27.2769 84.2805 27.2769 84.3327 27.281C84.3204 27.2121 84.3204 27.2121 85.1638 27.7347C85.7841 28.6638 86.3716 29.6957 86.9315 30.8171C87.7555 32.4693 88.4791 34.2338 89.0943 35.9971C89.3103 36.6165 89.4986 37.1875 89.6542 37.706C89.7504 38.0147 89.8139 38.2441 89.8507 38.3644L90.0186 38.9797L89.5508 39.4056C89.3789 39.562 89.3789 39.562 88.6828 40.1896C87.8148 40.9766 87.8148 40.9766 86.7759 41.9211C85.4238 43.1515 84.0287 44.417 84.0287 44.417C83.825 44.6145 83.6326 44.8192 83.4575 45.0322C82.7738 45.8594 82.3336 46.74 82.09 47.6197C82.0061 47.9252 81.9498 48.2071 81.9222 48.4602C81.9058 48.6042 81.8976 48.701 81.8976 48.7853C81.826 50.3172 82.262 51.6506 83.0338 52.7967C83.2856 53.1701 83.5527 53.4911 83.8209 53.7607C83.9724 53.917 84.085 54.0138 84.1965 54.1063C84.2406 54.1465 84.2406 54.1465 84.4371 54.3317C84.7001 54.5724 84.7001 54.5724 85.0686 54.914C85.7206 55.521 86.3716 56.1239 86.9837 56.6907C87.7831 57.4377 88.431 58.0447 88.907 58.4912C89.1782 58.7484 89.3901 58.9449 89.5385 59.0899C89.6184 59.1661 89.6829 59.2268 89.7269 59.271C89.8303 59.2669 89.8303 59.2669 90.0585 60.3194C89.6348 62.0035 89.0902 63.6589 88.4546 65.2669C87.8875 66.6929 87.2836 68.0077 86.6797 69.1775C86.4678 69.5869 86.2682 69.9522 86.0881 70.2659C85.9796 70.4594 85.8998 70.5921 85.8558 70.6641L85.5405 71.1826L84.9407 71.1538C84.7165 71.1466 84.7165 71.1466 83.8291 71.1065C82.7175 71.054 82.7175 71.054 81.3858 70.9933C79.5147 70.909 77.8433 70.8369 77.8392 70.8369C77.0797 70.8205 76.4123 70.8524 75.8524 70.9131C75.5802 70.9408 75.4041 70.9697 75.2884 70.9892C75.1288 71.0139 74.793 71.1065 74.3406 71.2989C73.5617 71.624 72.7735 72.1188 72.0376 72.8061C71.9659 72.8781 71.8902 72.9501 71.8185 73.0232C71.3579 73.4892 71.014 74.1487 70.7909 74.9635C70.5104 75.9687 70.4388 77.0541 70.4828 77.9656C70.5022 78.3483 70.5145 78.6652 70.5309 79.0788C70.5585 79.7743 70.5862 80.4821 70.6107 81.1693C70.6189 81.4224 70.6189 81.4224 70.6271 81.6837C70.6629 82.6642 70.6906 83.4842 70.7069 84.0901C70.7141 84.4358 70.7182 84.7095 70.7223 84.9029V85.1632C70.7622 85.3206 70.7622 85.3206 70.3026 86.0521C69.3354 86.7712 68.2473 87.4266 67.0559 88.0171C65.4325 88.8247 63.7057 89.476 61.9739 89.9945C61.371 90.1756 60.807 90.3278 60.3034 90.4482C59.9953 90.5243 59.7711 90.5727 59.6473 90.5974L59.0721 90.7136L58.68 90.2713L53.7976 84.7301C53.7536 84.6776 53.6502 84.5613 53.4895 84.3998C53.206 84.1272 52.8703 83.8453 52.4823 83.584C51.4588 82.9008 50.2878 82.4667 48.9674 82.407C47.6163 82.3463 46.4208 82.765 45.3818 83.5119C45.042 83.7568 44.7421 84.0222 44.4893 84.2835C44.346 84.4327 44.258 84.5407 44.1577 84.6652L38.9242 90.4606L38.3407 90.3237C38.0603 90.2599 38.0603 90.2599 37.9968 90.2435C36.1257 89.7857 34.2301 89.1066 32.3549 88.262C31.0918 87.6951 29.9157 87.0891 28.8522 86.4821C28.4766 86.2692 28.145 86.0716 27.8563 85.8916C27.6772 85.7825 27.5533 85.7023 27.4848 85.658L26.9975 85.336L27.0252 84.7496C27.0293 84.693 27.0293 84.693 27.0416 84.4482C27.0569 84.1148 27.0651 83.9338 27.0774 83.6405C27.1173 82.7969 27.1572 81.9327 27.1971 81.0891C27.2094 80.7393 27.2094 80.7393 27.2248 80.3895C27.3128 78.3596 27.365 76.9131 27.365 76.3504C27.365 74.9923 26.3732 73.0993 24.8296 71.9419C24.5502 71.7289 24.238 71.552 23.9064 71.4028C23.3547 71.1579 22.7549 71.0057 22.1428 70.9285C21.7231 70.8771 21.3597 70.8647 21.0834 70.8771C20.8193 70.8843 20.5593 70.8884 20.2082 70.8966C19.6279 70.9048 19.0199 70.9172 18.4129 70.9254C18.0812 70.9285 17.7568 70.9326 17.4446 70.9367C16.4609 70.9532 15.638 70.9614 15.03 70.9655H14.2142C14.1067 70.9655 14.0228 70.9614 13.9583 70.9573C13.8109 71.0057 13.8109 71.0057 13.0627 70.4954C12.8385 70.1569 12.6226 69.8122 12.4148 69.4624C11.1036 67.268 10.124 64.9285 9.42084 62.59C9.17211 61.77 8.9807 61.0066 8.83229 60.3194C8.74017 59.9017 8.68489 59.6002 8.66033 59.4274L8.59277 58.9809L8.87221 58.627C8.91213 58.5796 8.96842 58.5107 9.03291 58.4387C9.46792 57.9685 10.3635 57.0961 11.6471 55.879C12.339 55.2236 12.991 54.6084 13.6461 53.9973C13.8744 53.7843 14.0863 53.5837 14.2746 53.4068C14.4701 53.2257 14.4701 53.2257 14.4578 53.2421C14.6185 53.0652 14.6185 53.0652 14.6421 53.0374C15.6257 51.8676 16.0617 50.168 15.9021 48.6403C15.7537 47.202 15.118 45.916 13.9665 44.8347C13.2909 44.204 12.1149 43.0703 11.0555 42.0342C10.5283 41.5157 10.0677 41.061 9.74019 40.7276C9.56414 40.5507 9.42391 40.4066 9.32462 40.3017C8.70844 39.5939 8.82103 39.7472 8.92031 39.2328C9.37683 36.886 10.0882 34.6556 10.992 32.565C11.5632 31.243 12.1794 30.0537 12.7904 29.0166C13.1671 28.386 13.4588 27.9395 13.639 27.6987L13.9583 27.2563L14.5059 27.281C14.5581 27.281 14.5581 27.281 14.7864 27.2893C15.0904 27.3047 15.0904 27.3047 15.5295 27.3211C16.3054 27.353 17.0925 27.3849 17.853 27.4179C18.0526 27.4251 18.0526 27.4251 18.2563 27.4333C20.1837 27.5053 21.4989 27.5537 21.8592 27.5537C22.9309 27.5537 24.9576 26.6051 26.1613 25.1349C26.4929 24.7285 26.7529 24.2306 26.9412 23.6555C27.2688 22.6668 27.3609 21.6061 27.3169 20.7264C27.3046 20.425 27.3005 20.2192 27.2964 19.9466C27.2882 19.4919 27.2811 19.0104 27.2729 18.5238C27.2688 18.174 27.2647 17.8365 27.2606 17.5114C27.2524 16.6626 27.2442 15.9558 27.2442 15.4332C27.2442 15.1317 27.2442 14.8951 27.2483 14.7264C27.2565 14.4404 27.2565 14.4404 27.2647 14.3684C27.2166 14.32 27.2166 14.32 27.7529 13.5968C28.1204 13.3714 28.492 13.1544 28.8758 12.9373C31.0427 11.7161 33.358 10.6996 35.6733 9.87142C36.485 9.58232 37.2363 9.33643 37.9159 9.13581C38.3243 9.01133 38.6201 8.93108 38.788 8.88684L39.3551 8.74178L39.7676 9.16771C39.9191 9.321 39.9191 9.321 39.9508 9.35701C40.351 9.77059 40.9713 10.4342 41.7666 11.2902C42.5783 12.1616 44.0256 13.7295 44.0051 13.713C45.7247 15.3848 46.4402 15.7624 48.6153 16.0165C50.5263 16.2367 52.4496 15.1636 54.0893 13.2994ZM59.5275 10.5227C59.5347 10.5185 59.5347 10.5185 59.5112 10.5381C59.503 10.5463 59.4907 10.5546 59.4835 10.5669C59.5675 10.5463 59.5511 10.5381 59.5275 10.5227ZM88.3072 60.7535L88.2744 60.7216C88.3031 60.8297 88.3031 60.806 88.3072 60.7535ZM14.0382 68.9038H14.1016C14.03 68.8637 14.0341 68.875 14.0382 68.9038ZM29.2955 14.6256V14.6976C29.3313 14.6369 29.319 14.6297 29.2955 14.6256ZM68.6588 84.1426C68.6424 83.5438 68.6148 82.7321 68.582 81.7547C68.5708 81.4975 68.5708 81.4975 68.5626 81.2403C68.538 80.5572 68.5104 79.8504 68.4868 79.159C68.4705 78.7454 68.4582 78.4275 68.4541 78.303C68.45 78.2547 68.4428 78.1786 68.4387 78.0695C68.3824 76.9532 68.4664 75.6631 68.8185 74.409C69.1296 73.2794 69.6302 72.3153 70.3651 71.5715C70.4572 71.4789 70.5493 71.3904 70.6414 71.302C72.229 69.8153 73.8319 69.1404 74.9271 68.9635C75.0632 68.9357 75.3038 68.8987 75.6395 68.8626C76.2792 68.7989 77.0265 68.7629 77.874 68.7783C77.9108 68.7783 78.9057 68.8225 81.4646 68.9388C82.8086 68.9995 82.8086 68.9995 83.9202 69.0478C84.128 69.0561 84.2835 69.0643 84.4074 69.0715C84.5476 68.8184 84.6991 68.5375 84.8629 68.2238C85.4351 67.1147 86.0113 65.8647 86.5507 64.5066C87.082 63.1599 87.5467 61.7813 87.9264 60.3873C87.8097 60.2751 87.6705 60.1465 87.5098 59.9932C87.0349 59.5478 86.387 58.9449 85.6111 58.2206C84.9837 57.6342 84.3316 57.0313 83.6796 56.4243C83.3081 56.0827 83.3081 56.0827 83.0481 55.842C82.8526 55.6609 82.8526 55.6609 82.8761 55.6774C82.4688 55.3594 81.9007 54.7813 81.3367 53.9489C80.3295 52.4623 79.7573 50.6979 79.8494 48.6886C79.8535 48.6001 79.8617 48.4355 79.8853 48.2143C79.9293 47.8645 80.0009 47.4787 80.1176 47.0693C80.4329 45.919 81.0051 44.7781 81.8843 43.7133C82.1085 43.4437 82.348 43.1865 82.6039 42.9375C82.6325 42.9098 83.3122 42.2904 85.4033 40.3933C86.4423 39.4488 86.4423 39.4488 87.3102 38.6618C87.474 38.5126 87.5979 38.4005 87.6982 38.312C87.5467 37.8212 87.3665 37.2708 87.1628 36.6803C86.5712 34.992 85.8834 33.3047 85.0993 31.7368C84.6715 30.8767 84.2283 30.0773 83.7677 29.3459C83.6315 29.35 83.476 29.3582 83.2999 29.3664C82.7287 29.386 81.9488 29.4179 81.0092 29.458C80.8607 29.4662 80.8607 29.4662 80.7133 29.4703C80.0296 29.5022 79.31 29.5352 78.6017 29.5671C78.178 29.5825 77.8504 29.5989 77.6989 29.6072C76.4348 29.6638 75.184 29.5753 73.9639 29.2337C72.925 28.9436 72.0294 28.494 71.3293 27.8469C71.2453 27.7779 71.0816 27.6257 70.8738 27.4127C70.5411 27.0629 70.2095 26.6648 69.8983 26.2152C69.1184 25.0814 68.5943 23.8119 68.4664 22.425C68.4582 22.3365 68.4469 22.2007 68.4346 22.0114C68.4029 21.5094 68.3906 20.9384 68.4101 20.319C68.4142 20.2954 68.4623 19.3345 68.5749 17.0597C68.6342 15.8385 68.6342 15.8385 68.6864 14.8262C68.6946 14.677 68.7028 14.5566 68.7069 14.4599C68.4623 14.3272 68.1869 14.1863 67.887 14.0381C66.7877 13.4877 65.5635 12.9373 64.2482 12.4229C62.5768 11.7716 60.8858 11.2284 59.2061 10.8313C59.0147 11.0196 58.7701 11.2696 58.4948 11.5587C57.6708 12.4105 56.6759 13.4836 55.6155 14.6647C53.5847 16.9795 51.0862 18.3746 48.3788 18.0608C45.7278 17.7511 44.605 17.1606 42.5814 15.1914C42.5537 15.1636 40.9662 13.4435 40.306 12.7315C39.6304 12.0042 39.1063 11.4414 38.7225 11.0402C38.6509 11.0597 38.5792 11.0803 38.4994 11.1039C37.8555 11.2974 37.136 11.534 36.3601 11.8076C34.1451 12.5988 31.9342 13.5721 29.8748 14.7336C29.6793 14.8416 29.4828 14.9548 29.2914 15.071V15.4291C29.2914 15.9435 29.2985 16.642 29.3067 17.4867C29.3108 17.8077 29.3149 18.1451 29.319 18.4949C29.3272 18.9775 29.3354 19.46 29.3425 19.9137C29.3466 20.1873 29.3466 20.3921 29.3466 20.4281C29.4152 21.7337 29.3026 23.0361 28.883 24.3057C28.6189 25.1061 28.2432 25.8294 27.7396 26.4405C26.148 28.3932 23.5379 29.6113 21.8582 29.6113C21.458 29.6113 20.1468 29.5629 18.1754 29.4868C17.9717 29.4786 17.9717 29.4786 17.7721 29.4703C17.0126 29.4426 16.2204 29.4096 15.4445 29.3777C15.1968 29.3654 15.0894 29.3613 14.989 29.3582C14.8529 29.5671 14.7055 29.8037 14.5489 30.0691C13.9778 31.0331 13.4056 32.1463 12.8703 33.385C12.0903 35.1926 11.4588 37.1103 11.0309 39.1155C11.511 39.6021 11.9624 40.0476 12.4823 40.5579C13.5294 41.5867 14.6973 42.7081 15.3606 43.3316C16.8765 44.7462 17.7394 46.4941 17.94 48.4273C18.1519 50.4808 17.5756 52.7432 16.201 54.3708C16.0443 54.5477 15.9962 54.6002 15.9051 54.6959C15.8611 54.7329 15.8611 54.7329 15.6687 54.9171C15.4773 55.094 15.2654 55.2905 15.0372 55.5035C14.3892 56.1105 13.7372 56.7216 13.1333 57.2967C11.9941 58.377 11.1947 59.1486 10.7668 59.5868C10.7873 59.6753 10.8067 59.7761 10.8303 59.8842C10.9664 60.52 11.1466 61.2268 11.3789 61.9902C12.034 64.1805 12.9542 66.3667 14.1692 68.4007C14.2695 68.5735 14.3729 68.7423 14.4773 68.9069H15.0167C15.6165 68.9028 16.4364 68.8945 17.4159 68.8791C17.7281 68.875 18.0475 68.8709 18.3832 68.8668C18.9871 68.8585 19.5951 68.8462 20.1744 68.839C20.5225 68.8307 20.7824 68.8266 20.8623 68.8266C22.0906 68.7701 23.4212 68.9388 24.7334 69.5221C25.2043 69.731 25.6444 69.9882 26.0528 70.2937C28.0999 71.8328 29.4111 74.3246 29.4111 76.3493C29.4111 76.9563 29.3589 78.4111 29.2709 80.4769C29.2545 80.8308 29.2545 80.8308 29.2392 81.1806C29.2033 82.0243 29.1634 82.8926 29.1235 83.7362C29.1153 83.9286 29.1071 84.0737 29.0989 84.2424C29.3272 84.3833 29.579 84.5315 29.8584 84.693C30.8707 85.2671 31.9895 85.8463 33.1891 86.3844C34.8688 87.1406 36.5638 87.7548 38.223 88.1766L42.5773 83.3586C42.8772 82.9564 43.4166 82.3936 44.1884 81.835C45.5763 80.8391 47.211 80.2681 49.0626 80.3524C50.7781 80.4327 52.3012 80.9913 53.6164 81.8751C54.4721 82.4502 55.0679 83.0284 55.3637 83.407L59.81 88.4502C60.2942 88.334 60.8213 88.193 61.3894 88.0202C63.0169 87.5336 64.6403 86.9194 66.1469 86.1714C67.0671 85.7136 67.9106 85.2229 68.67 84.693C68.666 84.5397 68.6619 84.3587 68.6588 84.1416V84.1426Z" fill="white" stroke="white" stroke-width="0.0122116" stroke-miterlimit="2" stroke-linejoin="round"/>
<path d="M49.8758 61.1665C56.145 61.1665 61.2271 56.0583 61.2271 49.757C61.2271 43.4556 56.145 38.3474 49.8758 38.3474C43.6066 38.3474 38.5244 43.4556 38.5244 49.757C38.5244 56.0583 43.6066 61.1665 49.8758 61.1665Z" fill="white"/>
</svg>
