<svg width="100" height="100" viewBox="0 0 100 100" fill="none" xmlns="http://www.w3.org/2000/svg">
<path d="M12.8098 52.9334L8.91203 56.8866C8.45434 57.3507 8.45434 58.0499 8.91203 58.5141C9.1403 58.7456 9.48557 58.8643 9.71384 58.8643C9.94211 58.8643 10.2874 58.7456 10.5157 58.5141L16.0228 52.9288H20.9565L13.3834 60.6094C12.9268 61.0724 12.9268 61.7727 13.3834 62.2357C13.6117 62.4673 13.9569 62.5859 14.1852 62.5859C14.4135 62.5859 14.7588 62.4673 14.987 62.2357L24.2808 52.8101H47.5679L32.8839 67.8199H19.8094C19.12 67.8199 18.6623 68.2841 18.6623 68.9833C18.6623 69.6837 19.12 70.1467 19.8094 70.1467H30.5898L27.1485 73.6368H19.3483C18.6577 73.6368 18.2012 74.101 18.2012 74.8002C18.2012 75.5005 18.6577 75.9635 19.3483 75.9635H24.8543L17.0541 83.8756C16.5964 84.3398 16.5964 85.039 17.0541 85.5032C17.2824 85.7347 17.6276 85.8522 17.8559 85.8522C18.0842 85.8522 18.4294 85.7347 18.6577 85.5032L26.4591 77.5911V83.1765C26.4591 83.8756 26.9156 84.3398 27.6062 84.3398C28.2956 84.3398 28.7533 83.8756 28.7533 83.1765V75.2644L32.1945 71.7742V82.7076C32.1945 83.408 32.6511 83.871 33.3416 83.871C34.031 83.871 34.4887 83.408 34.4887 82.7076L34.4933 69.451L49.2885 54.4458V76.0822L39.9948 85.5078C39.5382 85.9709 39.5382 86.6712 39.9948 87.1342C40.4525 87.5984 41.1419 87.5984 41.5995 87.1342L49.1715 79.3408V84.3445L43.6643 89.9298C43.2078 90.3928 43.2078 91.0932 43.6643 91.5562C44.122 92.0192 44.8114 92.0192 45.2691 91.5562L49.1669 87.6031V98.7726C49.1669 99.473 49.6246 99.936 50.314 99.936C51.0046 99.936 51.4611 99.473 51.4611 98.7726L51.4703 87.7159L55.3681 91.6702C55.5975 91.9017 55.9416 92.0192 56.1711 92.0192C56.3993 92.0192 56.7446 91.9017 56.9729 91.6702C57.4294 91.206 57.4294 90.5069 56.9729 90.0427L51.4657 84.4573V79.4548L59.0388 87.2483C59.2671 87.4798 59.6123 87.5984 59.8406 87.5984C60.0689 87.5984 60.4142 87.4798 60.6424 87.2483C61.1001 86.7841 61.1001 86.0849 60.6424 85.6219L51.5827 76.0822V53.9781L67.9873 70.6155V83.8756C67.9873 84.576 68.4438 85.039 69.1343 85.039C69.8237 85.039 70.2814 84.576 70.2814 83.8756V72.9423L73.7227 76.4324V84.3445C73.7227 85.0437 74.1793 85.5078 74.8698 85.5078C75.5592 85.5078 76.0169 85.0437 76.0169 84.3445V78.7591L83.356 86.2024C83.5843 86.4351 83.9295 86.5526 84.1578 86.5526C84.3872 86.5526 84.7313 86.4351 84.9608 86.2024C85.4173 85.7394 85.4173 85.039 84.9608 84.576L77.7375 77.2456H83.2436C83.9341 77.2456 84.3907 76.7826 84.3907 76.0822C84.3907 75.383 83.9341 74.9188 83.2436 74.9188H75.4434L72.0021 71.4287H82.7824C83.473 71.4287 83.9295 70.9657 83.9295 70.2653C83.9295 69.5662 83.473 69.102 82.7824 69.102H69.7079L53.7656 52.9334H76.2509L85.5446 62.3591C85.7729 62.5906 86.1182 62.7081 86.3465 62.7081C86.5747 62.7081 86.92 62.5906 87.1483 62.3591C87.606 61.8949 87.606 61.1957 87.1483 60.7315L79.5752 53.0521H84.5088L90.016 58.6374C90.2443 58.869 90.5895 58.9865 90.8178 58.9865C91.0472 58.9865 91.3914 58.869 91.6208 58.6374C92.0773 58.1733 92.0773 57.4741 91.6208 57.0099L87.7218 53.0567H98.1627C98.8521 53.0567 99.3097 52.5926 99.3097 51.8934C99.3097 51.193 98.8521 50.73 98.1627 50.73H87.7218L91.6208 46.7757C92.0773 46.3127 92.0773 45.6123 91.6208 45.1493C91.1631 44.6851 90.4737 44.6851 90.016 45.1493L84.5088 50.7347H79.5763L87.1483 43.0541C87.606 42.591 87.606 41.8907 87.1483 41.4277C86.6917 40.9635 86.0012 40.9635 85.5446 41.4277L76.2509 50.8522L52.9592 50.8394L71.3127 32.2254H84.3872C85.0778 32.2254 85.5343 31.7612 85.5343 31.062C85.5343 30.3617 85.0778 29.8987 84.3872 29.8987H73.6069L77.0481 26.4085H84.8495C85.5389 26.4085 85.9966 25.9444 85.9966 25.2452C85.9966 24.5448 85.5389 24.0818 84.8495 24.0818H79.3423L86.6814 16.6374C87.1391 16.1744 87.1391 15.474 86.6814 15.011C86.2249 14.5468 85.5343 14.5468 85.0778 15.011L77.7375 22.2181V16.7514C77.7375 16.051 77.281 15.588 76.5904 15.588C75.901 15.588 75.4434 16.051 75.4434 16.7514V24.6635L72.0021 28.1536V17.2191C72.0021 16.5199 71.5455 16.0557 70.855 16.0557C70.1656 16.0557 69.7079 16.5199 69.7079 17.2191V30.4792L51.5827 48.743V23.2674L60.8764 13.843C61.333 13.3788 61.333 12.6796 60.8764 12.2154C60.4187 11.7524 59.7293 11.7524 59.2728 12.2154L51.6997 19.896V14.8923L57.2069 9.30698C57.6634 8.84395 57.6634 8.1436 57.2069 7.68058C56.7492 7.2164 56.0598 7.2164 55.6021 7.68058L51.7043 11.6337L51.6997 1.16337C51.6997 0.464185 51.2431 0 50.5526 0C49.8621 0 49.4055 0.464185 49.4055 1.16337V11.7524L45.5077 7.79808C45.05 7.33506 44.3606 7.33506 43.9029 7.79808C43.4464 8.26227 43.4464 8.96146 43.9029 9.42564L49.4101 15.011V20.0135L41.837 12.3341C41.3805 11.8699 40.6899 11.8699 40.2334 12.3341C39.7768 12.7971 39.7768 13.4974 40.2334 13.9605L49.5271 23.3861V48.5173L32.8851 31.7577V18.4976C32.8851 17.7973 32.4274 17.3342 31.738 17.3342C31.0475 17.3342 30.5909 17.7973 30.5909 18.4976V29.431L27.1496 25.9409V18.0288C27.1496 17.3296 26.6919 16.8654 26.0025 16.8654C25.312 16.8654 24.8555 17.3296 24.8555 18.0288V23.6141L16.9417 15.5892C16.4851 15.125 15.7946 15.125 15.338 15.5892C14.8803 16.0522 14.8803 16.7526 15.338 17.2156L23.1394 25.1277H17.6322C16.9417 25.1277 16.4851 25.5919 16.4851 26.291C16.4851 26.9914 16.9417 27.4544 17.6322 27.4544H25.4336L28.8749 30.9445H18.0933C17.4039 30.9445 16.9463 31.4087 16.9463 32.1079C16.9463 32.8083 17.4039 33.2713 18.0933 33.2713H31.1679L48.146 50.4903H24.0571L14.7645 41.0647C14.3068 40.6017 13.6174 40.6017 13.1597 41.0647C12.7032 41.5289 12.7032 42.2281 13.1597 42.6923L20.7328 50.3717H15.7992L10.292 44.7875C9.83543 44.3233 9.14489 44.3233 8.68834 44.7875C8.23065 45.2505 8.23065 45.9509 8.68834 46.4139L12.5862 50.367L1.6842 50.3717C0.994799 50.3717 0.537109 50.8359 0.537109 51.5351C0.537109 52.2354 0.994799 52.6984 1.6842 52.6984H12.811L12.8098 52.9334Z" fill="white"/>
<path d="M71.529 46.3671H68.1701C67.8144 45.1538 67.3302 43.9833 66.7236 42.8729L69.0969 40.4996C70.0096 39.5869 70.0096 38.1067 69.0969 37.1958L65.293 33.3905C64.3808 32.4778 62.9006 32.4778 61.9878 33.3905L59.6145 35.7639C58.5041 35.1572 57.3336 34.6731 56.1203 34.3174V30.9584C56.1203 29.6686 55.0742 28.6224 53.7825 28.6224H48.4028C47.1111 28.6224 46.065 29.6686 46.065 30.9584V34.3174C44.8517 34.6731 43.6812 35.1572 42.5708 35.7639L40.1974 33.3905C39.2852 32.4778 37.805 32.4778 36.8923 33.3905L33.0884 37.194C32.1757 38.1067 32.1757 39.5869 33.0884 40.4996L35.4617 42.8729C34.8551 43.9833 34.3709 45.1538 34.0152 46.3671H30.6563C29.3665 46.3671 28.3203 47.4133 28.3203 48.7049V54.0847C28.3203 55.3763 29.3665 56.4225 30.6563 56.4225H34.0152C34.3709 57.6358 34.8551 58.8063 35.4617 59.9167L33.0884 62.2896C32.1757 63.2023 32.1757 64.6825 33.0884 65.5952L36.8923 69.3991C37.805 70.3118 39.2852 70.3118 40.1974 69.3991L42.5708 67.0258C43.6812 67.6324 44.8517 68.1161 46.065 68.4723V71.8312C46.065 73.121 47.1111 74.1672 48.4028 74.1672H53.7825C55.0742 74.1672 56.1203 73.121 56.1203 71.8312V68.4723C57.3336 68.1161 58.5041 67.6324 59.6145 67.0258L61.9878 69.3991C62.9006 70.3118 64.3808 70.3118 65.2917 69.3991L69.0969 65.5934C70.0096 64.6825 70.0096 63.2023 69.0969 62.2896L66.7236 59.9167C67.3302 58.8063 67.8144 57.6358 68.1701 56.4225H71.529C72.8188 56.4225 73.865 55.3763 73.865 54.0847V48.7049C73.865 47.4133 72.8188 46.3671 71.529 46.3671ZM51.0926 60.6445C45.9812 60.6445 41.843 56.5081 41.843 51.3948C41.843 46.2833 45.9793 42.1451 51.0926 42.1451C56.2041 42.1451 60.3423 46.2815 60.3423 51.3948C60.3423 56.5063 56.2059 60.6445 51.0926 60.6445Z" fill="white"/>
</svg>
