<svg width="75" height="75" viewBox="0 0 75 75" fill="none" xmlns="http://www.w3.org/2000/svg">
<path fill-rule="evenodd" clip-rule="evenodd" d="M30.9344 12.0764C32.5904 11.6507 33.7505 10.1567 33.7505 8.44484V3.75126H41.2495V8.44484C41.2495 10.1567 42.4096 11.6507 44.0656 12.0764C46.4875 12.6983 48.671 13.5983 50.7455 14.8259C52.2251 15.7008 54.1098 15.455 55.3194 14.2319C56.0394 13.5038 57.33 12.2168 58.6692 10.8848C60.3361 12.5444 62.3368 14.5514 63.9991 16.221V16.2318L63.9955 16.239C62.8534 17.3847 61.6753 18.5772 60.6349 19.6671C59.4748 20.883 59.2641 22.7218 60.1183 24.1672C61.3522 26.2552 62.3044 28.5296 62.9236 30.9344C63.3493 32.594 64.8433 33.7505 66.5552 33.7505H71.2487V41.2495H66.5552C64.8433 41.2495 63.3493 42.4096 62.9236 44.0656C62.3044 46.474 61.3486 48.752 60.1147 50.84C59.2317 52.334 59.4855 54.2367 60.7294 55.4418C61.588 56.2752 62.7517 57.4281 64.0486 58.7223C62.3782 60.4099 60.3568 62.4457 58.7016 64.0837C58.0617 63.4366 57.3903 62.7445 56.7954 62.1361H56.7918C56.2122 61.5385 55.7055 61.0219 55.386 60.7015C54.1764 59.4883 52.2989 59.2533 50.8265 60.1219C48.7376 61.3558 46.4668 62.3044 44.0656 62.9236C42.4096 63.3493 41.2495 64.8433 41.2495 66.5552V71.2523H33.7505V66.5552C33.7505 64.8433 32.5904 63.3493 30.9344 62.9236C28.5017 62.2981 26.2057 61.3306 24.0961 60.076C22.6336 59.2074 20.7705 59.4289 19.5537 60.6205C18.9525 61.2109 18.0282 62.1433 17.0436 63.1378L16.2075 63.982C14.5478 62.3431 12.5156 60.3217 10.8776 58.6764C11.8235 57.7341 12.8036 56.7675 13.556 56.0259L14.2661 55.3257C15.4865 54.1206 15.7287 52.2359 14.861 50.7554C13.6298 48.6674 12.6875 46.4416 12.0764 44.0656C11.6507 42.4096 10.1567 41.2495 8.44484 41.2495H3.74766V33.7505H8.44484C10.1567 33.7505 11.6507 32.594 12.0764 30.9344C12.6983 28.5224 13.6514 26.2444 14.8925 24.1492C15.7638 22.6795 15.5288 20.8056 14.3228 19.5924C13.0115 18.2775 11.981 17.2623 11.1098 16.4001L10.9793 16.2741C12.6281 14.6108 14.6288 12.5966 16.2705 10.955C17.5359 12.2168 18.8436 13.5209 19.6419 14.312C20.8551 15.5108 22.7254 15.7431 24.1951 14.8709C26.2903 13.6262 28.5053 12.7019 30.9344 12.0764ZM45.0007 3.75126V8.44484C47.7539 9.15495 50.264 10.1846 52.6508 11.5985C53.3925 10.8461 54.7146 9.52755 56.0682 8.18113C57.51 6.75371 59.8195 6.74291 61.2577 8.17033C62.9416 9.84706 64.9765 11.8865 66.6578 13.5776C68.1203 15.0437 68.1131 17.4162 66.6542 18.8823C65.5147 20.0253 64.3618 21.1962 63.3457 22.2574C64.7551 24.6487 65.8451 27.2461 66.5552 29.9993H71.2487C73.3197 29.9993 75 31.6796 75 33.7505V41.2495C75 43.3204 73.3197 45.0007 71.2487 45.0007H66.5552C65.8451 47.7566 64.7551 50.3585 63.3421 52.7489C64.2205 53.604 65.4058 54.7812 66.71 56.0817C68.1653 57.5379 68.1689 59.8897 66.7244 61.3522C65.0053 63.0892 62.8993 65.2051 61.2046 66.8855C59.7979 68.2742 57.5694 68.2706 56.1807 66.8648C55.4391 66.1196 54.7182 65.378 54.0963 64.7416C53.5401 64.1719 53.0657 63.6832 52.7318 63.3529C50.3486 64.7587 47.7503 65.8487 45.0007 66.5552V71.2523C45.0007 73.3233 43.3204 75 41.2495 75H33.7505C31.6796 75 29.9993 73.3233 29.9993 71.2523V66.5552C27.2146 65.8379 24.5884 64.7344 22.1773 63.2998C21.6003 63.8659 20.7075 64.7695 19.7301 65.7542L19.7265 65.7569L18.7914 66.7028C17.3748 68.1302 15.0959 68.1482 13.6622 66.7379C11.9468 65.0467 9.81556 62.9272 8.12443 61.2253C6.71141 59.8051 6.70781 57.5379 8.12803 56.124C9.11265 55.1439 10.1468 54.1206 10.9271 53.3538V53.3502L11.6264 52.6616C10.2305 50.2847 9.14775 47.7359 8.44484 45.0007H3.75126C1.68033 45.0007 0 43.3204 0 41.2495V33.7505C0 31.6796 1.68033 29.9993 3.75126 29.9993H8.44484C9.15495 27.2398 10.2485 24.6343 11.6651 22.2403C10.3682 20.9361 9.34845 19.9299 8.47634 19.0722L8.27203 18.8724C6.82751 17.4486 6.83111 15.1346 8.25853 13.6937C9.93526 11.999 11.9954 9.92446 13.6757 8.24773C15.1175 6.80591 17.4414 6.82391 18.8859 8.26573C20.1621 9.54195 21.4842 10.856 22.279 11.6471C24.6802 10.2197 27.229 9.15855 29.9993 8.44484V3.75126C29.9993 1.67673 31.6796 0 33.7505 0H41.2495C43.3204 0 45.0007 1.67673 45.0007 3.75126ZM48.689 37.4388C48.689 43.6543 43.6507 48.689 37.4388 48.689C31.226 48.689 26.1886 43.6543 26.1886 37.4388C26.1886 31.2269 31.226 26.1886 37.4388 26.1886C43.6507 26.1886 48.689 31.2269 48.689 37.4388ZM52.4402 37.4388C52.4402 45.7252 45.7252 52.4402 37.4388 52.4402C29.156 52.4402 22.4374 45.7252 22.4374 37.4388C22.4374 29.156 29.156 22.441 37.4388 22.441C45.7252 22.441 52.4402 29.156 52.4402 37.4388Z" fill="white"/>
<path d="M61.5932 50.053L58.0629 48.0032C58.7452 47.2049 59.6572 46.7495 60.5687 46.4095C61.1378 46.2958 61.5932 45.6112 61.3664 45.0421C61.1396 44.4729 60.5687 44.0175 59.9995 44.2437C58.4052 44.6998 57.0384 45.6112 56.0132 46.8626L52.4829 44.8129C53.6212 43.446 55.1018 42.3077 56.9247 41.8517C57.4938 41.7386 57.9498 41.054 57.723 40.4848C57.6099 39.9157 56.9246 39.4597 56.3555 39.6865C53.8504 40.3688 51.9138 41.8493 50.4332 43.6728L45.08 40.5979C45.4223 39.6865 45.6491 38.6619 45.6491 37.6368C45.6491 36.6122 45.4223 35.5871 45.08 34.6756L50.4332 31.6013C51.9138 33.5373 53.9635 35.0179 56.3555 35.5871C56.9246 35.7008 57.6099 35.3602 57.723 34.7893C57.8361 34.2202 57.4962 33.535 56.9247 33.4219C55.1018 32.9658 53.6212 31.9413 52.4829 30.4607L56.0132 28.411C57.0384 29.6647 58.4052 30.5738 59.9995 31.0298C60.5687 31.1429 61.2533 30.803 61.3664 30.2315C61.4801 29.6624 61.1396 28.9777 60.5687 28.8646C59.5435 28.6378 58.7458 28.0663 58.0629 27.2703L61.5932 25.2206C62.1624 24.8783 62.3916 24.196 62.0493 23.6269C61.7063 23.0578 61.0241 22.8286 60.455 23.1709L56.9247 25.2206C56.5823 24.3092 56.5823 23.2846 56.8115 22.2594C56.9247 21.6903 56.5847 21.0057 56.0132 20.8926C55.4441 20.7788 54.7594 21.1194 54.6463 21.6903C54.1903 23.2846 54.3034 24.9944 54.8726 26.475L51.3423 28.5241C50.66 26.8173 50.5445 24.9944 50.9999 23.1709C51.1137 22.6017 50.7737 21.9171 50.2022 21.804C49.6331 21.6903 48.9479 22.0308 48.8347 22.6017C48.1525 24.9944 48.3787 27.4995 49.4039 29.6624L44.0507 32.7372C42.6879 30.6923 40.6382 29.554 38.473 29.3248V23.6293C40.8651 23.4024 43.1416 22.3755 44.8514 20.555C45.3068 20.099 45.3068 19.4167 44.8514 18.9607C44.3954 18.5053 43.7131 18.5053 43.2571 18.9607C41.8902 20.3282 40.1828 21.1235 38.473 21.3527V17.2533C40.0673 17.0271 41.5479 16.2287 42.6885 15.0904C43.144 14.635 43.144 13.9522 42.6885 13.4967C42.2325 13.0407 41.5503 13.0407 41.0942 13.4967C40.412 14.179 39.5005 14.7505 38.4754 14.9773L38.473 10.1933C38.473 9.51042 37.9039 9.05499 37.3348 9.05499C36.7656 9.05499 36.1971 9.62413 36.1971 10.1933V14.8613C35.1719 14.635 34.2605 14.179 33.5782 13.3807C33.1222 12.9252 32.4399 12.9252 31.9839 13.3807C31.5285 13.8367 31.5285 14.5189 31.9839 14.975C33.1222 16.1132 34.6028 16.911 36.1988 17.1378V21.1241C34.492 20.8973 32.7823 20.099 31.4148 18.7315C30.9594 18.2761 30.2765 18.2761 29.8211 18.7315C29.3651 19.1875 29.3651 19.8698 29.8211 20.3258C31.644 22.1487 33.9205 23.1733 36.1994 23.4001V29.0956C34.1497 29.4385 32.2131 30.4631 30.8462 32.0568L25.8354 29.2093C26.8599 26.9304 26.9736 24.5407 26.4045 22.1487C26.2908 21.5795 25.6062 21.1235 25.037 21.3504C24.4679 21.4641 24.0125 22.1487 24.2393 22.7178C24.6947 24.5407 24.5816 26.3612 23.8964 28.071L20.3667 26.0213C20.9358 24.5407 21.0489 22.947 20.5929 21.2372C20.4798 20.6681 19.7952 20.2121 19.226 20.4389C18.6569 20.5526 18.2009 21.2372 18.4277 21.8064C18.6545 22.8309 18.6545 23.8561 18.3146 24.7675L14.2151 22.7202C13.646 22.3779 12.9614 22.6065 12.6208 23.1756C12.2785 23.7448 12.5077 24.4294 13.0769 24.7699L17.1763 27.1619C16.4935 27.8442 15.6957 28.4157 14.6706 28.7556C14.1014 28.8694 13.646 29.554 13.8728 30.1231C13.9859 30.8054 14.6706 31.1477 15.2397 30.9209C16.834 30.4654 18.2009 29.554 19.226 28.3026L22.7563 30.3517C21.6181 31.8323 20.1375 32.8575 18.3146 33.3129C17.7454 33.4266 17.2894 34.1112 17.5162 34.6804C17.6294 35.2495 18.3146 35.7055 18.8831 35.4787C21.2757 34.7958 23.3249 33.429 24.8055 31.4924L29.7032 34.3404C29.2496 35.2471 29.021 36.3878 29.021 37.526C29.021 38.6643 29.2478 39.8044 29.7032 40.8295L24.8055 43.677C23.4386 41.741 21.3889 40.2604 18.8831 39.6912C18.3146 39.5781 17.6294 39.9181 17.5162 40.4896C17.4025 41.0587 17.7431 41.7433 18.3146 41.8564C20.1375 42.3125 21.7312 43.4507 22.7563 44.8176L19.226 46.8673C18.2009 45.6136 16.834 44.7045 15.2397 44.2485C14.6706 44.1354 13.9859 44.4753 13.8728 45.0468C13.7591 45.6159 14.0991 46.3006 14.6706 46.4143C15.6957 46.6405 16.4935 47.212 17.1763 48.008L13.0769 50.4C12.5077 50.7423 12.2785 51.4252 12.6208 51.9943C12.9632 52.5628 13.646 52.6766 14.2151 52.4497L18.3146 50.0577C18.6569 50.9691 18.6569 51.9937 18.4277 53.0189C18.3146 53.588 18.6545 54.2726 19.226 54.3863C19.7952 54.4995 20.4798 54.1595 20.5929 53.588C21.0489 51.9937 20.9352 50.4 20.3667 48.8039L23.8964 46.7542C24.5792 48.3479 24.6947 50.2845 24.2393 52.1074C24.1256 52.6766 24.4655 53.3612 25.037 53.4749C25.6062 53.588 26.2908 53.2481 26.4045 52.6766C27.0867 50.1708 26.8599 47.7788 25.8354 45.6159L30.8462 42.7679C32.2131 44.3622 34.1497 45.5022 36.1994 45.8428V52.1074C33.8074 52.3337 31.5309 53.4743 29.8211 55.1817C29.3651 55.6377 29.3651 56.32 29.8211 56.7754C30.2765 57.2314 30.9594 57.2314 31.4148 56.7754C32.7823 55.4085 34.376 54.6126 36.1988 54.3834V58.3697C34.6051 58.5965 33.1246 59.3943 31.9839 60.5325C31.5285 60.9886 31.5285 61.6708 31.9839 62.1268C32.4399 62.5823 33.1222 62.5823 33.5782 62.1268C34.2605 61.444 35.1719 60.8725 36.1971 60.6462V64.8588C36.1971 65.5411 36.7656 65.9971 37.3348 65.9971C37.9039 65.9971 38.473 65.4279 38.473 64.8588V60.7594C39.4982 60.9862 40.4096 61.4416 41.0919 62.2399C41.5479 62.6954 42.2302 62.6954 42.6862 62.2399C43.1416 61.7839 43.1416 61.1017 42.6862 60.6462C41.5479 59.508 40.0673 58.7096 38.4707 58.4828V54.4971C40.2941 54.7239 42.001 55.5216 43.2553 56.8891C43.7107 57.3445 44.393 57.3445 44.849 56.8891C45.3044 56.4331 45.3044 55.7508 44.849 55.2948C43.1416 53.588 40.8627 52.4474 38.4707 52.2205V45.9559C40.6335 45.6136 42.6856 44.4753 43.937 42.6524L49.2908 45.7267C48.3787 47.8901 48.0364 50.3953 48.7216 52.7873C48.8347 53.4701 49.5194 53.8125 50.0885 53.5856C50.6576 53.4725 51.1137 52.7873 50.8868 52.2182C50.4308 50.3953 50.5445 48.5747 51.2291 46.865L54.7594 48.9147C54.1903 50.3953 54.0772 52.1027 54.5326 53.6987C54.6463 54.2679 55.1018 54.6102 55.6709 54.6102C56.4692 54.6102 57.0384 53.9279 56.8092 53.1296C56.5823 52.105 56.5823 51.0805 56.9223 50.1684L60.4526 52.2182C61.0217 52.5605 61.7063 52.3319 62.0469 51.7627C62.2778 51.0781 62.1624 50.3953 61.5932 50.053ZM37.3348 43.5615C35.285 43.5615 33.2353 42.4232 32.2107 40.6003C31.6392 39.6889 31.2993 38.6643 31.2993 37.526C31.2993 36.3878 31.6416 35.3626 32.2107 34.4512C33.349 32.6283 35.285 31.49 37.3348 31.49C39.4976 31.49 41.5497 32.6283 42.5748 34.5649C43.0303 35.4763 43.3726 36.5009 43.3726 37.526C43.3726 38.5506 43.1463 39.5758 42.5748 40.4872C41.5497 42.4232 39.4976 43.5615 37.3348 43.5615Z" fill="white"/>
</svg>
