<svg width="20" height="20" viewBox="0 0 20 20" fill="none" xmlns="http://www.w3.org/2000/svg">
<path d="M9.67589 2.22229C6.28782 2.22229 2.89898 3.46195 0.259425 5.94224C0.0960978 6.0957 0.00398436 6.30353 0.000114051 6.52724C-0.00356274 6.75036 0.0817776 6.96052 0.239106 7.11765L1.79013 8.66887C2.10247 8.98101 2.5998 8.99088 2.92259 8.69074C4.75944 6.98606 7.15806 6.04732 9.67531 6.04732C12.1926 6.04732 14.591 6.98626 16.428 8.69074C16.5852 8.83665 16.7833 8.90922 16.9821 8.90922C17.1915 8.90922 17.4001 8.8291 17.5603 8.66887L19.1115 7.11765C19.2694 6.96052 19.355 6.75036 19.3503 6.52724C19.3466 6.30353 19.2543 6.0957 19.0912 5.94224C16.4507 3.46292 13.0628 2.22229 9.67473 2.22229H9.67589ZM9.67589 8.23869C7.77325 8.23869 5.94627 8.93264 4.53264 10.1913C4.36641 10.3395 4.26733 10.5518 4.26133 10.7757C4.25455 11.0002 4.34222 11.2194 4.5009 11.3781L6.05502 12.9322C6.35749 13.2347 6.83141 13.255 7.15787 12.9798C7.85859 12.3894 8.7536 12.0645 9.67589 12.0645C10.5982 12.0645 11.4932 12.3894 12.1939 12.9798C12.3474 13.1091 12.5341 13.1733 12.7201 13.1733C12.9287 13.1733 13.1373 13.0924 13.2977 12.9322L14.8519 11.3781C15.0105 11.2192 15.0982 10.9994 15.0914 10.7749C15.0854 10.5518 14.9856 10.3387 14.8201 10.1905C13.4057 8.93109 11.5795 8.23791 9.67686 8.23791L9.67589 8.23869ZM9.67589 14.2551C9.21629 14.2551 8.78398 14.4343 8.45965 14.7594C7.78911 15.4305 7.78834 16.5213 8.45965 17.1927C8.7952 17.5282 9.23584 17.6952 9.67589 17.6952C10.1165 17.6952 10.5574 17.5274 10.8921 17.1927C11.2172 16.8675 11.3964 16.4358 11.3964 15.9762C11.3964 15.5166 11.2172 15.0843 10.8921 14.76C10.5672 14.4349 10.1355 14.2559 9.67589 14.2559V14.2551Z" fill="white"/>
</svg>
