<svg width="237" height="383" viewBox="0 0 237 383" fill="none" xmlns="http://www.w3.org/2000/svg">
<path fill-rule="evenodd" clip-rule="evenodd" d="M99.3078 42.5424C98.0426 42.8268 96.2961 43.294 95.4364 43.5806C94.5713 43.8672 93.1816 44.3262 92.3435 44.6014C91.5054 44.8767 90.6079 45.2319 90.3429 45.392C90.078 45.5515 89.7211 45.6823 89.5535 45.6823C87.5637 45.6823 77.4416 52.5774 74.1811 56.1564C72.5049 57.9943 69.65 61.2185 69.65 61.2742C69.65 61.3094 68.8389 62.3383 67.8494 63.5614C66.8599 64.7834 66.0488 65.9638 66.0488 66.1833C66.0488 66.4028 64.0212 69.5276 63.5075 70.8269C62.1666 74.2085 61.8908 75.0266 61.4961 76.8369C60.7445 80.3045 61.0257 85.1638 62.1612 88.3956C62.2855 88.7503 62.6153 89.6933 62.8911 90.4909C63.1723 91.289 63.6859 92.4828 64.032 93.1441C64.3835 93.8054 64.6646 94.4321 64.6646 94.5376C64.6646 94.8587 65.4379 95.6487 65.7515 95.6487C65.9191 95.6487 66.0488 95.4427 66.0488 95.1913C66.0488 94.6533 66.9248 92.6348 67.2276 92.4791C67.3412 92.4196 67.4331 92.1779 67.4331 91.9411C67.4331 91.4236 68.3199 89.4067 68.6119 89.2553C68.7254 89.1959 68.8173 89.0191 68.8173 88.8606C68.8173 88.235 73.4458 79.8811 74.3488 78.8856C74.4245 78.7975 74.9652 78.0357 75.5491 77.1943C76.1277 76.3519 76.9982 75.1715 77.4848 74.5708C77.9715 73.9695 78.7501 72.9903 79.2151 72.3939C80.3615 70.934 82.4107 68.9101 83.6435 68.0201C83.9355 67.806 85.2386 66.8511 86.5309 65.8989C87.8232 64.9467 89.5102 63.9096 90.2672 63.5944C91.0296 63.2797 91.9001 62.9034 92.2083 62.7585C94.4901 61.6727 96.9882 60.94 100.092 60.4458C103.926 59.8364 114.956 59.9224 118.638 60.5907C123.083 61.3964 126.684 62.3616 127.111 62.8596C127.225 62.9861 127.636 63.091 128.025 63.0921C128.42 63.0932 129.096 63.3105 129.534 63.5755C129.971 63.8404 130.561 64.0572 130.853 64.0572C131.139 64.0572 131.594 64.1946 131.859 64.3622C132.124 64.5298 133.124 64.9662 134.075 65.3317C135.033 65.6972 136.027 66.1282 136.292 66.2887C136.552 66.4499 137.266 66.83 137.877 67.1339C143.067 69.7222 144.949 71.2681 145.387 73.3098C145.49 73.7819 145.739 74.5411 145.944 74.9958C146.144 75.4511 146.312 76.048 146.317 76.3232C146.317 76.5979 146.414 76.9607 146.539 77.1289C146.901 77.6333 147.463 79.7951 147.734 81.7373C148.383 86.3312 148.815 89.8604 148.983 91.861C149.091 93.156 149.291 94.0368 149.48 94.0368C149.783 94.0368 150.962 92.4915 151.34 91.7897C151.719 91.0873 153.238 88.0431 153.238 87.7944C153.238 87.5451 153.422 86.9254 153.649 86.4177C154.649 84.1803 154.147 75.756 152.795 72.229C152.579 71.6699 152.406 71.0805 152.406 70.9188C152.406 70.7572 152.097 69.8731 151.713 68.9544C151.335 68.0358 151.021 67.1382 151.021 66.9598C151.021 66.7819 150.897 66.6359 150.746 66.6359C150.594 66.6359 150.47 66.4893 150.47 66.3098C150.47 64.3303 144.095 55.6454 140.472 52.6856C137.904 50.5887 136.893 49.8728 136.503 49.8728C136.292 49.8728 136.081 49.7641 136.027 49.6311C135.908 49.3153 132.405 47.2942 131.978 47.2942C131.794 47.2942 131.648 47.1849 131.648 47.0519C131.648 46.9189 130.869 46.5258 129.917 46.1782C128.966 45.8299 128.128 45.4595 128.052 45.3552C127.922 45.1827 127.338 44.9902 124.175 44.0823C123.64 43.9293 121.834 43.4881 120.163 43.1015C118.487 42.7155 116.93 42.2737 116.702 42.1196C115.962 41.6211 101.892 41.9633 99.3078 42.5424Z" fill="black"/>
<path fill-rule="evenodd" clip-rule="evenodd" d="M101.116 0.807429C99.8545 1.11478 85.7726 6.09015 81.0225 12.0195C80.2262 13.0141 77.7138 15.2631 77.153 16.0924C76.5978 16.9216 76.0482 17.6018 75.9304 17.6034C75.7061 17.608 68.5783 29.1049 68.1016 30.2321C65.0788 37.4088 64.9779 42.1626 67.6866 50.7888C67.995 51.7717 68.2474 52.7795 68.2474 53.0276C68.2474 53.2757 68.5783 54.6681 68.9876 56.123C69.397 57.577 69.9242 59.5 70.1653 60.3947C71.8702 66.8195 72.0104 66.9778 73.3507 63.9511C74.506 61.3449 78.0166 55.6565 79.6261 53.7851C80.3159 52.9855 80.8768 52.157 80.8768 51.9448C80.8768 51.7327 81.073 51.5587 81.3086 51.5587C81.5441 51.5587 81.7404 51.3536 81.7404 51.1024C81.7404 50.852 82.0601 50.515 82.4582 50.3543C82.8508 50.1944 83.1761 49.8761 83.1761 49.6483C83.1761 49.4197 83.2995 49.2333 83.4565 49.2333C83.6135 49.2333 84.5837 48.3963 85.6156 47.3728C86.6475 46.3494 87.6233 45.5123 87.7859 45.5123C87.9542 45.5123 88.6272 45.0263 89.2889 44.4319C89.9507 43.8375 91.2068 42.9716 92.0705 42.5075C92.9397 42.0441 93.9099 41.505 94.224 41.3108C94.5436 41.1158 95.7045 40.6087 96.8093 40.1836C97.9141 39.7584 99.3329 39.21 99.9666 38.9651C103.556 37.5727 116.185 36.5515 117.475 37.55C117.795 37.7965 118.843 38.1133 119.814 38.2537C121.72 38.5322 124.076 39.3364 124.855 39.9776C125.124 40.1984 125.87 40.5143 126.51 40.6797C127.149 40.8451 127.671 41.1392 127.671 41.3334C127.671 41.5277 128.024 41.7913 128.461 41.9185C129.297 42.165 131.159 43.2626 131.4 43.6518C131.669 44.0832 133.452 45.5123 133.727 45.5123C133.873 45.5123 134.507 46.0358 135.135 46.6754C137.215 48.8074 139.593 58.4086 138.651 55.5527C138.494 55.0706 137.288 39.8107 137.126 34.4906C136.307 8.30246 136.397 8.62776 128.45 3.02521C127.85 2.60475 125.511 1.91124 125.153 1.78253C119.903 -0.112286 106.87 -0.592036 101.116 0.807429Z" fill="black"/>
<path d="M95.0608 115.258C96.1164 115.258 96.9722 113.819 96.9722 112.044C96.9722 110.268 96.1164 108.829 95.0608 108.829C94.0051 108.829 93.1494 110.268 93.1494 112.044C93.1494 113.819 94.0051 115.258 95.0608 115.258Z" fill="black"/>
<path d="M102.202 116.938C102.943 116.936 102.534 116.936 101.288 116.94C100.043 116.943 98.4334 116.948 97.6928 116.95C96.9523 116.952 97.3614 116.952 98.6066 116.948C99.8518 116.945 101.462 116.94 102.202 116.938Z" fill="black"/>
<path d="M109.96 125.695C110.581 125.194 110.063 124.186 108.804 123.445C107.545 122.703 106.021 122.508 105.4 123.01C104.78 123.511 105.297 124.518 106.557 125.26C107.816 126.001 109.34 126.196 109.96 125.695Z" fill="black"/>
<path d="M119.265 119.636C118.497 119.638 116.829 119.643 115.537 119.646C114.246 119.65 113.821 119.651 114.588 119.649C115.355 119.647 117.024 119.642 118.315 119.639C119.607 119.635 120.032 119.634 119.265 119.636Z" fill="black"/>
<path d="M125.751 113.196C125.021 113.194 123.434 113.189 122.206 113.186C120.979 113.182 120.576 113.181 121.306 113.183C122.036 113.186 123.623 113.19 124.85 113.194C126.078 113.198 126.481 113.199 125.751 113.196Z" fill="black"/>
<path fill-rule="evenodd" clip-rule="evenodd" d="M76.5267 117.911C80.4103 130.357 92.8846 139.083 106.183 139.083C117.294 139.083 126.998 132.791 132.155 123.46C150.814 134.194 163.277 153.529 163.277 175.576C163.277 209.283 134.147 236.648 98.2678 236.648C62.3882 236.648 33.2589 209.283 33.2589 175.576C33.2589 148.615 50.7054 125.997 76.5267 117.911Z" fill="white"/>
<path d="M108.992 132.9C130.836 132.9 148.544 114.958 148.544 92.8247C148.544 70.6915 130.836 52.749 108.992 52.749C87.148 52.749 69.4398 70.6915 69.4398 92.8247C69.4398 114.958 87.148 132.9 108.992 132.9Z" fill="white"/>
<path fill-rule="evenodd" clip-rule="evenodd" d="M107.259 120.143C107.865 120.391 108.584 120.687 108.849 120.801C109.46 121.064 109.492 122.633 108.897 123.208C108.259 123.825 104.95 123.659 104.301 122.978C102.647 121.231 104.815 119.151 107.259 120.143Z" fill="black"/>
<path fill-rule="evenodd" clip-rule="evenodd" d="M117.425 118.82C118.657 119.887 117.614 122.223 115.684 122.717C115.235 122.831 114.802 123.047 114.726 123.196C114.375 123.861 112.926 122.511 112.926 121.517C112.926 119.791 116.246 117.8 117.425 118.82Z" fill="black"/>
<path fill-rule="evenodd" clip-rule="evenodd" d="M98.2476 116.014C98.4693 116.115 98.9667 116.539 99.3506 116.955C99.7345 117.371 100.14 117.712 100.254 117.712C100.362 117.712 100.589 118.007 100.756 118.369C101.811 120.666 98.9721 121.154 97.3229 118.96C95.7386 116.857 96.2848 115.116 98.2476 116.014Z" fill="black"/>
<path fill-rule="evenodd" clip-rule="evenodd" d="M122.507 112.551C124.092 113.296 122.908 117.07 121.091 117.07C119.469 117.07 119.215 115.409 120.561 113.582C121.621 112.138 121.626 112.136 122.507 112.551Z" fill="black"/>
<path fill-rule="evenodd" clip-rule="evenodd" d="M94.6656 107.49C95.8767 108.624 96.0768 110.94 95.0494 111.882C94.1951 112.666 93.4111 112.355 92.9894 111.066C92.2378 108.77 93.4003 106.301 94.6656 107.49Z" fill="black"/>
<path fill-rule="evenodd" clip-rule="evenodd" d="M151.112 90.845C151.417 90.2275 149.892 94.9301 148.104 94.9241C146.864 94.9198 146.399 89.6722 146.398 88.746C146.392 84.5144 145.624 81.2902 143.623 77.5074C138.298 67.4399 121.143 63.822 110.542 63.5279C97.5044 63.1661 86.4436 67.9633 79.6831 79.1322C76.5605 84.2922 73.1834 88.912 69.8289 93.8876C69.6688 94.125 67.0429 98.3187 66.8822 98.2657C61.9483 96.649 60.4804 80.285 61.4873 76.5141C63.1872 70.1461 68.2591 67.1831 72.7297 62.6265C88.6599 46.389 113.025 44.3879 134.674 50.0188C147.213 53.2798 152.186 62.9699 154.14 73.8019C154.76 77.2408 154.893 83.8942 153.487 87.2817" fill="black"/>
<path fill-rule="evenodd" clip-rule="evenodd" d="M158.545 222.789L168.543 169.756L236.466 134.099L230.432 164.296L158.545 222.789Z" fill="#6C7982"/>
<path fill-rule="evenodd" clip-rule="evenodd" d="M123.314 96.0444L138.067 116.099L107.057 100.81C107.057 100.81 112.429 87.4484 123.314 96.0444Z" fill="#FF9400"/>
<path d="M96.3391 377.731C144.788 377.731 184.064 337.112 184.064 287.006C184.064 236.9 144.788 196.28 96.3391 196.28C47.89 196.28 8.61423 236.9 8.61423 287.006C8.61423 337.112 47.89 377.731 96.3391 377.731Z" fill="white" stroke="white" stroke-width="0.0114694" stroke-miterlimit="1.5" stroke-linecap="round" stroke-linejoin="round"/>
<path fill-rule="evenodd" clip-rule="evenodd" d="M81.0083 203.023C44.7805 208.986 16.8347 246.657 16.8347 292.171C16.8347 341.795 50.0595 382.094 91 382.166C87.4737 382.726 83.8736 383 80.2166 383C35.9438 383 0 342.673 0 292.999C0 243.328 35.9438 203 80.2166 203L81.0083 203.023Z" fill="#BBDAF2"/>
<path fill-rule="evenodd" clip-rule="evenodd" d="M76.8742 119.268C57.105 122.756 41.8552 144.788 41.8552 171.406C41.8552 200.429 59.9857 223.998 82.3266 224.04C80.4023 224.367 70.2254 220.734 68.2298 220.734C44.0708 220.734 32.6686 200.943 32.6686 171.891C32.6686 142.841 52.2829 119.255 76.4422 119.255L76.8742 119.268Z" fill="#BBDAF2"/>
<path d="M75.8 246.129C89.3666 246.129 100.365 238.091 100.365 228.177C100.365 218.262 89.3666 210.225 75.8 210.225C62.2333 210.225 51.2354 218.262 51.2354 228.177C51.2354 238.091 62.2333 246.129 75.8 246.129Z" fill="#FDFDFD"/>
<path fill-rule="evenodd" clip-rule="evenodd" d="M181.562 315.727C170.96 354.46 136.495 382.857 95.6657 382.857C46.3788 382.857 6.36426 341.474 6.36426 290.498C6.36426 239.524 46.3788 198.139 95.6657 198.139C97.5386 198.139 99.398 198.198 101.234 198.336C61.8701 203.047 31.272 237.69 31.272 279.666C31.272 281.608 31.3377 283.538 31.4661 285.445C31.4731 285.548 31.4802 285.646 31.4876 285.749C31.6198 287.602 31.8114 289.442 32.0621 291.268L32.0757 291.371L32.1112 291.622L32.148 291.877C32.1971 292.217 32.2479 292.557 32.3012 292.893L32.3413 293.148C32.3958 293.484 32.4515 293.82 32.5098 294.155C32.5288 294.267 32.5482 294.379 32.5688 294.496L32.5986 294.661C32.6134 294.742 32.6287 294.827 32.6436 294.912L32.6655 295.028C32.7146 295.297 32.7654 295.566 32.8179 295.839L32.8328 295.915L32.8819 296.165C32.8988 296.25 32.9162 296.335 32.9343 296.425C33.0079 296.792 33.0834 297.155 33.1619 297.517L33.1921 297.656L33.2437 297.893C33.2858 298.086 33.3292 298.278 33.3738 298.475L33.4134 298.65L33.4704 298.896C33.4898 298.976 33.5088 299.061 33.5282 299.142L33.5786 299.352C33.6682 299.728 33.7604 300.104 33.8558 300.48L33.8904 300.615L33.9532 300.861L34.0168 301.103L34.0751 301.326C34.1155 301.479 34.1564 301.631 34.1969 301.779L34.2118 301.837L34.2477 301.967C34.3418 302.311 34.4377 302.652 34.5351 302.992L34.5508 303.045C34.6066 303.238 34.6627 303.43 34.7201 303.627C34.9444 304.384 35.179 305.136 35.4223 305.883C35.7114 306.765 36.0141 307.643 36.3317 308.515C36.411 308.73 36.4907 308.95 36.5704 309.16L36.5927 309.218L36.6803 309.455C36.7096 309.532 36.7393 309.608 36.7687 309.684L36.8005 309.769C37.4472 311.456 38.1464 313.121 38.896 314.751L38.9819 314.939L39.0459 315.078C39.9124 316.94 40.8454 318.766 41.8411 320.548L41.8899 320.637L41.9341 320.713C55.6482 345.136 81.2147 361.568 110.463 361.568C141.662 361.568 168.672 342.871 181.562 315.727Z" fill="#E8F7FE"/>
<path fill-rule="evenodd" clip-rule="evenodd" d="M48.8647 219.291C54.7703 214.48 72.535 210.359 65.3277 207.861C62.2105 206.781 72.9623 204.736 72.967 204.564C73.3972 188.193 46.3604 180.514 48.5466 160.577C50.1625 145.841 58.4126 133.629 68.6587 123.413C70.4699 121.607 75.2139 119.509 76.1647 117.685C76.6704 116.715 74.1607 118.566 73.1762 119.043C70.0911 120.538 66.3198 122.537 63.6434 124.675C56.7237 130.203 49.4235 135.856 44.5677 143.311C30.0518 165.598 35.9148 193.532 47.9008 215.068" fill="#E8F7FE"/>
<path fill-rule="evenodd" clip-rule="evenodd" d="M168.72 176.34L123.907 200.788L158.687 230.524L168.72 176.34Z" fill="#717F8A"/>
<path d="M140.877 131.795C140.378 131.372 140.104 130.72 140.137 130.043C140.288 128.1 140.653 126.181 141.219 124.325C141.388 122.925 140.821 121.536 139.735 120.701C138.654 119.871 137.227 119.72 136.01 120.318C126.859 125.168 116.626 127.293 106.412 126.458C96.3373 125.552 86.6856 121.797 78.4739 115.59C77.3818 114.842 75.9889 114.787 74.8468 115.452C73.7086 116.112 73.0068 117.382 73.0261 118.755C73.3077 120.654 73.3827 122.577 73.2472 124.496C73.1799 125.153 72.8232 125.738 72.2858 126.079C70.6035 127.048 67.8589 125.679 67.1187 128.377C66.7736 130.616 67.5878 132.876 69.2596 134.308C71.6062 136.108 74.0624 137.743 76.6118 139.202C70.5699 146.605 64.9144 154.343 59.6684 162.391C66.2775 167.329 73.4087 171.443 80.9157 174.652C84.4082 164.848 88.7457 155.408 93.8744 146.439C97.4457 147.404 101.092 148.033 104.768 148.318C108.512 148.678 112.282 148.678 116.026 148.318C119.444 157.647 120.57 167.736 119.308 177.647C127.412 177.75 135.505 177.042 143.484 175.538C142.62 164.563 139.552 153.905 134.49 144.266C137.235 143.254 139.912 142.039 142.5 140.638C144.49 139.511 145.749 137.34 145.786 134.961C145.467 132.112 142.44 133.062 140.877 131.796V131.795Z" fill="#CD4A3B"/>
<path d="M52.0302 175.136C59.1559 179.917 70.4185 180.187 78.4737 183.141C78.6972 182.435 79.3665 178.112 79.6083 177.507C71.7871 174.496 64.348 170.574 57.4448 165.821C56.9612 166.445 56.5153 167.151 56.0732 167.876L52.0302 175.136Z" fill="#CD4A3B"/>
<path d="M117.858 187.797C126.329 188.511 135.105 183.258 143.55 182.302V179.321C135.283 180.512 126.922 180.9 118.584 180.488C118.482 181.214 118.3 181.939 118.119 182.665L117.858 187.797Z" fill="#CD4A3B"/>
<path fill-rule="evenodd" clip-rule="evenodd" d="M235.095 135.531C235.095 135.723 235.007 135.879 234.899 135.879C234.792 135.879 234.311 136.094 233.831 136.356C232.908 136.86 232.659 136.992 231.471 137.611C231.062 137.824 230.56 138.093 230.356 138.209C230.151 138.324 229.556 138.624 229.031 138.874C228.508 139.125 227.713 139.54 227.266 139.798C226.819 140.055 226.024 140.473 225.5 140.726C224.976 140.979 224.182 141.396 223.734 141.654C223.287 141.911 222.493 142.329 221.969 142.582C221.445 142.835 220.651 143.251 220.203 143.506C219.756 143.761 218.428 144.458 217.253 145.056C216.077 145.653 214.781 146.33 214.372 146.562C213.963 146.793 212.374 147.629 210.841 148.42C209.307 149.211 207.718 150.045 207.309 150.274C206.9 150.503 202.426 152.849 197.366 155.488C192.306 158.127 187.8 160.492 187.353 160.743C186.906 160.993 186.111 161.403 185.587 161.654C185.063 161.905 184.467 162.205 184.263 162.322C183.011 163.037 181.728 163.721 181.637 163.721C181.579 163.721 181.267 163.87 180.946 164.052C179.148 165.066 178.2 165.577 178.114 165.577C178.06 165.577 177.623 165.792 177.144 166.054C176.664 166.316 176.083 166.629 175.853 166.75C175.623 166.871 175.246 167.068 175.016 167.188C174.786 167.309 174.18 167.628 173.669 167.897C173.158 168.166 172.551 168.485 172.321 168.606C172.091 168.727 171.715 168.928 171.485 169.052C170.369 169.659 170.013 169.748 169.661 169.513C169.271 169.253 169.175 168.825 169.506 168.825C169.618 168.825 169.973 168.677 170.295 168.495C172.126 167.461 173.041 166.969 173.135 166.969C173.193 166.969 173.504 166.82 173.827 166.639C175.657 165.605 176.573 165.113 176.667 165.113C176.725 165.113 177.036 164.964 177.358 164.782C179.156 163.767 180.103 163.257 180.189 163.257C180.243 163.257 180.68 163.042 181.16 162.78C181.64 162.518 182.2 162.219 182.404 162.115C182.825 161.902 183.32 161.636 184.578 160.95C185.058 160.687 185.495 160.473 185.548 160.473C185.632 160.473 186.951 159.768 188.166 159.074C188.37 158.957 188.966 158.656 189.49 158.405C190.014 158.155 190.809 157.739 191.256 157.482C191.703 157.225 192.497 156.807 193.022 156.554C193.545 156.301 194.34 155.883 194.787 155.626C195.234 155.369 196.029 154.951 196.553 154.698C197.077 154.445 197.871 154.03 198.319 153.776C198.766 153.521 199.801 152.978 200.618 152.568C201.436 152.158 202.184 151.732 202.282 151.623C202.379 151.514 202.565 151.424 202.695 151.424C202.825 151.424 203.373 151.168 203.913 150.854C204.452 150.541 205.322 150.078 205.846 149.825C206.37 149.573 207.164 149.155 207.611 148.897C208.058 148.64 208.853 148.223 209.377 147.969C209.901 147.717 210.695 147.302 211.142 147.049C211.59 146.795 215.301 144.848 219.39 142.721C223.479 140.595 227.19 138.649 227.638 138.397C228.085 138.144 228.879 137.731 229.403 137.478C229.927 137.225 230.722 136.807 231.169 136.55C233.569 135.168 235.095 134.772 235.095 135.531ZM236.296 137.024C236.401 137.236 236.207 138.653 235.85 140.287C235.653 141.189 235.166 143.734 234.45 147.596C234.191 149 233.899 150.514 233.803 150.96C233.707 151.407 233.492 152.503 233.326 153.396C233.16 154.289 232.948 155.386 232.854 155.832C232.675 156.688 231.74 161.631 231.275 164.185C231.124 165.014 230.922 166.059 230.827 166.505C230.732 166.952 230.518 168.048 230.353 168.941C230.186 169.834 229.974 170.93 229.88 171.377C229.786 171.824 229.456 173.547 229.146 175.205C228.354 179.446 228.171 180.293 228.023 180.426C227.951 180.49 227.798 181.325 227.684 182.282C227.485 183.952 227.17 185.755 226.729 187.734C226.615 188.245 226.368 189.55 226.18 190.634C225.99 191.719 225.739 193.076 225.619 193.65C225.5 194.225 225.345 195.056 225.275 195.496C225.141 196.343 224.904 196.554 222.922 197.596C222.41 197.864 221.804 198.183 221.574 198.304C221.344 198.424 220.968 198.622 220.738 198.742C220.508 198.863 219.901 199.182 219.39 199.451C218.879 199.72 218.273 200.039 218.043 200.16C217.813 200.28 217.436 200.478 217.206 200.598C216.976 200.719 216.395 201.032 215.916 201.294C215.435 201.557 214.999 201.771 214.945 201.771C214.861 201.771 213.542 202.476 212.328 203.17C212.123 203.287 211.538 203.583 211.027 203.828C210.515 204.073 209.621 204.546 209.04 204.879C208.459 205.211 207.935 205.483 207.877 205.483C207.818 205.483 207.415 205.685 206.982 205.932C206.549 206.18 205.65 206.659 204.986 206.999C204.322 207.338 203.527 207.757 203.22 207.931C202.914 208.104 202.234 208.453 201.71 208.706C201.186 208.959 200.392 209.373 199.944 209.626C199.497 209.88 194.992 212.245 189.931 214.882C184.872 217.52 180.366 219.884 179.918 220.136C179.471 220.388 178.677 220.799 178.153 221.049C177.629 221.3 177.033 221.601 176.828 221.718C175.614 222.411 174.295 223.116 174.211 223.116C174.157 223.116 173.72 223.331 173.241 223.593C172.761 223.855 172.18 224.169 171.95 224.289C171.719 224.41 171.343 224.607 171.113 224.728C170.883 224.848 170.302 225.162 169.823 225.424C169.343 225.686 168.906 225.9 168.852 225.9C168.765 225.9 167.818 226.411 166.021 227.426C165.698 227.608 165.387 227.756 165.329 227.756C165.235 227.756 164.32 228.248 162.489 229.282C162.167 229.464 161.856 229.613 161.798 229.613C161.74 229.613 161.235 229.874 160.676 230.193C159.091 231.098 158.568 230.955 158.894 229.705C158.991 229.335 159.323 227.675 159.634 226.016C159.944 224.357 160.273 222.687 160.365 222.304C160.456 221.921 160.585 221.19 160.652 220.68C160.719 220.17 160.852 219.439 160.947 219.056C161.043 218.673 161.376 217.003 161.687 215.344C162.425 211.413 163.147 207.662 163.361 206.643C163.455 206.197 163.738 204.735 163.991 203.395C164.243 202.055 164.709 199.602 165.026 197.943C165.343 196.284 165.736 194.196 165.898 193.302C166.061 192.409 166.349 191.156 166.538 190.518C166.727 189.88 166.965 188.627 167.068 187.734C167.271 185.968 167.898 182.677 168.172 181.934C168.266 181.679 168.556 180.165 168.816 178.57C169.552 174.057 170.032 171.53 170.184 171.364C170.261 171.28 170.992 170.87 171.81 170.454C172.628 170.037 173.632 169.509 174.04 169.28C174.449 169.052 178.924 166.704 183.984 164.065C189.044 161.426 193.539 159.068 193.973 158.825C194.407 158.582 195.494 158.011 196.389 157.556C197.284 157.101 198.371 156.527 198.804 156.281C199.237 156.034 199.643 155.832 199.705 155.832C199.768 155.832 200.082 155.684 200.404 155.502C202.235 154.468 203.151 153.976 203.244 153.976C203.303 153.976 203.614 153.828 203.936 153.646C205.767 152.612 206.682 152.12 206.776 152.12C206.834 152.12 207.145 151.972 207.467 151.79C209.265 150.774 210.212 150.264 210.299 150.264C210.352 150.264 210.789 150.05 211.269 149.787C212.526 149.101 213.022 148.835 213.443 148.622C213.882 148.399 215.478 147.56 216.138 147.204C216.393 147.066 216.77 146.869 216.974 146.766C217.178 146.662 217.764 146.357 218.275 146.088C218.786 145.819 219.392 145.5 219.623 145.379C219.853 145.258 220.229 145.061 220.459 144.941C220.689 144.82 221.27 144.507 221.75 144.245C222.229 143.982 222.666 143.768 222.72 143.768C222.804 143.768 224.123 143.063 225.338 142.369C225.542 142.252 226.138 141.951 226.662 141.701C227.186 141.45 227.98 141.035 228.427 140.777C228.875 140.52 229.669 140.102 230.193 139.849C230.717 139.596 231.512 139.181 231.959 138.926C234.74 137.343 236.148 136.725 236.296 137.024ZM168.697 170.374C169.201 170.812 169.237 171.145 168.781 171.145C168.389 171.145 168 170.717 168 170.287C168 169.899 168.178 169.922 168.697 170.374ZM168.284 172.629C168.605 172.922 168.617 173.058 168.42 174.079C168.045 176.023 167.071 181.136 166.593 183.674C166.34 185.014 166.058 186.476 165.965 186.922C165.872 187.369 165.656 188.465 165.485 189.358C165.314 190.251 165.101 191.296 165.014 191.678C164.926 192.061 164.675 193.418 164.456 194.695C164.238 195.971 163.985 197.328 163.894 197.711C163.803 198.094 163.473 199.764 163.162 201.423C162.403 205.465 161.697 209.131 161.486 210.123C161.392 210.57 161.061 212.293 160.752 213.952C160.442 215.611 160.113 217.333 160.019 217.78C159.926 218.227 159.721 219.271 159.564 220.1C157.552 230.74 157.786 229.872 157.099 229.272C156.676 228.902 156.656 229.139 157.417 225.436C157.509 224.99 157.791 223.528 158.043 222.188C158.296 220.848 158.757 218.421 159.069 216.794C159.381 215.167 159.892 212.504 160.204 210.877C160.516 209.251 160.978 206.823 161.23 205.483C161.482 204.144 161.769 202.682 161.867 202.235C161.966 201.789 162.169 200.745 162.318 199.915C162.943 196.454 163.409 194.186 163.641 193.485C163.776 193.076 163.944 192.24 164.015 191.629C164.086 191.019 164.196 190.414 164.259 190.286C164.323 190.159 164.597 188.749 164.869 187.154C165.141 185.559 165.46 183.836 165.577 183.326C165.695 182.815 165.82 182.082 165.854 181.697C165.92 180.979 166.907 175.713 167.387 173.523C167.676 172.208 167.746 172.138 168.284 172.629ZM164.538 181.528C164.387 182.261 164.188 183.175 164.096 183.558C164.004 183.941 163.872 184.805 163.803 185.477C163.733 186.15 163.604 186.756 163.515 186.825C163.426 186.894 163.354 187.252 163.354 187.621C163.354 188.228 163.223 188.37 162.006 189.085C159.643 190.474 159.339 190.565 158.85 190.029C158.404 189.538 157.188 188.524 156.105 187.74C154.009 186.222 153.328 185.532 153.921 185.529C154.049 185.528 154.378 185.381 154.652 185.202C154.926 185.024 155.426 184.802 155.761 184.711C156.097 184.618 156.5 184.459 156.657 184.356C156.813 184.254 157.527 183.842 158.242 183.442C158.958 183.041 159.689 182.617 159.866 182.498C160.044 182.379 160.32 182.282 160.481 182.282C160.641 182.282 161.147 182.021 161.605 181.702C162.063 181.383 162.581 181.119 162.756 181.114C162.931 181.11 163.409 180.904 163.818 180.658C164.848 180.037 164.846 180.034 164.538 181.528ZM152.165 186.237C152.299 186.504 152.633 186.848 152.909 187.001C153.525 187.343 155.924 189.283 156.297 189.742C156.738 190.283 158.577 191.728 159.055 191.909C159.483 192.071 158.371 192.954 157.74 192.954C157.639 192.954 156.936 193.322 156.178 193.771C155.42 194.22 154.361 194.798 153.826 195.054C153.29 195.31 152.685 195.618 152.481 195.739C152.276 195.859 151.68 196.163 151.157 196.414C150.633 196.664 149.838 197.08 149.391 197.337C148.944 197.595 148.149 198.012 147.625 198.265C147.101 198.518 146.307 198.932 145.86 199.184C145.413 199.437 143.42 200.488 141.433 201.52C137.622 203.5 136.962 204.018 136.962 205.024C136.962 205.866 137.206 206.104 143.374 211.241C144.396 212.093 145.274 212.843 145.325 212.908C145.376 212.974 146.547 213.977 147.927 215.138C149.307 216.298 151.566 218.213 152.945 219.392C154.326 220.571 155.726 221.762 156.056 222.036C156.716 222.584 156.797 223.136 156.412 224.463L156.189 225.23L155.45 224.564C155.044 224.198 152.16 221.764 149.042 219.157C145.925 216.549 143.332 214.364 143.281 214.3C143.23 214.236 142.059 213.237 140.679 212.08C139.299 210.923 136.204 208.317 133.802 206.289C131.399 204.261 128.639 201.942 127.669 201.135C125.311 199.176 125.262 199.306 129.062 197.381C129.267 197.278 129.643 197.08 129.899 196.942C130.558 196.587 132.154 195.748 132.594 195.525C133.015 195.312 133.51 195.046 134.768 194.36C135.248 194.097 135.684 193.882 135.738 193.882C135.791 193.882 136.277 193.635 136.817 193.332C137.356 193.029 138.258 192.594 138.82 192.367C139.383 192.139 140.113 191.763 140.443 191.532C141.13 191.051 147.041 187.979 147.741 187.738C147.997 187.651 148.791 187.229 149.507 186.801C151.284 185.74 151.857 185.618 152.165 186.237ZM162.355 192.78C162.294 193.068 162.242 193.381 162.241 193.476C162.24 193.573 162.113 193.65 161.96 193.65C161.786 193.65 161.681 193.869 161.681 194.231C161.681 194.876 161.623 194.913 161.126 194.58C160.617 194.24 158.264 195.521 158.183 196.183C158.119 196.702 157.787 196.817 157.475 196.428C157.222 196.112 154.781 197.399 154.526 197.983C154.423 198.216 154.32 198.448 154.297 198.498C154.274 198.548 154.139 198.468 153.997 198.321C153.67 197.982 151.278 199.192 150.994 199.839C150.892 200.072 150.789 200.304 150.766 200.354C150.743 200.404 150.597 200.313 150.442 200.153C150.213 199.915 150.036 199.934 149.5 200.251C149.138 200.466 148.531 200.776 148.152 200.938C147.685 201.139 147.444 201.396 147.403 201.735C147.335 202.309 147.296 202.327 146.853 201.981C146.601 201.784 146.3 201.854 145.508 202.296C144.948 202.608 144.342 202.928 144.164 203.006C143.139 203.455 145.279 206.411 146.629 206.411C147.485 206.411 149.512 204.94 149.286 204.484C149.226 204.363 149.433 204.342 149.772 204.435C150.149 204.539 150.576 204.475 150.957 204.259C151.284 204.073 151.823 203.777 152.156 203.602C152.716 203.305 152.843 203.106 152.779 202.63C152.765 202.528 153.027 202.509 153.361 202.587C154.105 202.761 156.233 201.65 156.401 201C156.467 200.744 156.619 200.63 156.788 200.71C156.94 200.783 157.246 200.848 157.468 200.855C157.744 200.863 157.598 201.02 157.002 201.355C156.516 201.628 156.092 202.039 156.04 202.288C155.962 202.659 155.883 202.691 155.566 202.479C155.31 202.308 155.076 202.299 154.855 202.453C154.674 202.579 154.045 202.945 153.457 203.267C152.818 203.617 152.388 203.997 152.388 204.212C152.388 204.498 152.313 204.522 152.021 204.326C151.776 204.163 151.543 204.157 151.324 204.309C151.142 204.435 150.513 204.801 149.925 205.124C149.286 205.473 148.857 205.853 148.857 206.068C148.857 206.353 148.781 206.377 148.494 206.185C148.157 205.96 147.231 206.338 145.697 207.326C145.037 207.751 145.39 208.542 146.76 209.709L148.102 210.851L149.474 210.05C150.228 209.608 150.898 209.075 150.963 208.864C151.053 208.573 151.164 208.535 151.418 208.704C151.884 209.016 154.134 207.788 154.456 207.046C154.588 206.743 154.718 206.693 154.96 206.855C155.178 207.001 155.468 206.97 155.835 206.763C156.137 206.593 156.733 206.271 157.16 206.047C157.589 205.823 157.977 205.442 158.029 205.197C158.103 204.846 158.194 204.801 158.464 204.981C158.702 205.14 158.994 205.11 159.428 204.882C160.197 204.479 160.194 204.478 160.194 204.903C160.194 205.096 160.029 205.251 159.824 205.251C159.055 205.251 157.034 206.441 157.034 206.894C157.034 207.252 156.937 207.304 156.48 207.189C156.097 207.094 155.554 207.249 154.715 207.694C153.617 208.277 153.416 208.491 153.48 209.015C153.491 209.108 153.251 209.121 152.948 209.045C152.567 208.95 152.023 209.105 151.195 209.544C149.397 210.498 149.39 210.893 151.142 212.386C152.45 213.499 152.655 213.543 153.746 212.942C154.174 212.705 154.679 212.444 154.868 212.36C155.057 212.277 155.254 212.006 155.306 211.757C155.381 211.397 155.51 211.332 155.938 211.439C156.8 211.654 159.249 210.192 158.971 209.628C158.916 209.518 158.96 209.427 159.068 209.427C159.728 209.427 159.169 210.367 158.164 210.946C157.505 211.326 157.027 211.76 156.97 212.029C156.897 212.377 156.8 212.431 156.537 212.265C156.152 212.024 155.849 212.114 154.492 212.875C152.912 213.761 153.001 214.307 154.982 215.862L156.234 216.844L156.997 216.384C157.998 215.78 158.001 215.782 157.854 216.794C157.561 218.815 157.049 220.908 156.861 220.854C156.636 220.788 153.674 218.296 146.015 211.727C144.912 210.781 143.809 209.851 143.563 209.659C139.017 206.12 137.886 204.814 138.959 204.343C139.343 204.175 140.185 203.736 140.831 203.368C141.477 203 142.085 202.699 142.181 202.699C142.277 202.699 142.502 202.598 142.679 202.475C142.96 202.28 143.999 201.718 145.232 201.093C145.653 200.88 146.149 200.615 147.406 199.928C147.886 199.666 148.326 199.451 148.384 199.451C148.442 199.451 148.844 199.248 149.277 199C151.079 197.97 159.974 193.418 160.186 193.418C160.312 193.418 160.679 193.247 161.002 193.037C162.478 192.078 162.508 192.072 162.355 192.78ZM160.844 198.962L161.402 199.114L160.593 199.522C160.12 199.761 159.745 200.119 159.689 200.387C159.578 200.916 159.549 200.925 159.055 200.595C158.783 200.414 158.61 200.422 158.412 200.628C158.263 200.783 158.09 200.846 158.028 200.769C157.966 200.692 158.157 200.507 158.451 200.359C159.591 199.784 159.884 199.553 159.966 199.161C160.013 198.938 160.104 198.767 160.169 198.782C160.234 198.797 160.538 198.878 160.844 198.962ZM128.97 203.95C130.656 205.381 134.127 208.316 136.683 210.471C139.238 212.626 143.044 215.837 145.139 217.605C147.235 219.373 150.525 222.14 152.45 223.755C155.875 226.626 155.949 226.704 155.84 227.38C155.682 228.37 155.723 228.38 154.066 226.963C153.233 226.251 152.48 225.668 152.392 225.668C152.305 225.668 152.205 225.59 152.171 225.494C152.137 225.399 151.064 224.442 149.786 223.37C148.508 222.296 145.832 220.043 143.838 218.362C141.845 216.681 138.416 213.79 136.218 211.936C134.02 210.084 130.847 207.407 129.166 205.988C125.945 203.269 125.927 203.248 125.747 202.061C125.595 201.056 125.479 200.987 128.97 203.95Z" fill="#B3B3B3"/>
<path fill-rule="evenodd" clip-rule="evenodd" d="M195.329 188.701C196.141 188.374 205.956 182.868 206.853 182.132C210.942 178.781 205.023 174.535 200.936 177.886C200.038 178.621 193.525 186.496 193.152 187.14C192.602 188.091 194.128 189.185 195.329 188.701L195.329 188.701ZM205.167 176.037L205.975 172.153C207.901 171.066 210.121 172.523 208.537 174.035C210.457 172.877 212.738 174.514 211.359 176.06C213.221 174.748 215.264 176.35 213.978 177.896L208.977 178.772C208.744 178.09 208.257 177.471 207.582 176.986C206.906 176.501 206.069 176.17 205.166 176.037L205.167 176.037Z" fill="white"/>
<path d="M108.191 81.1949H106.194C106.054 80.7058 105.858 80.235 105.608 79.7934L107.02 78.3563C107.13 78.2449 107.193 78.0927 107.193 77.9346C107.193 77.7764 107.13 77.6242 107.02 77.5129L105.38 75.85C105.152 75.6198 104.783 75.6198 104.554 75.85L103.131 77.2753C102.696 77.0222 102.232 76.8232 101.749 76.6814V74.6622C101.749 74.5049 101.688 74.3534 101.578 74.242C101.468 74.1307 101.319 74.0683 101.164 74.0683H98.8216C98.4982 74.0683 98.236 74.334 98.236 74.6622V76.6873C97.7537 76.8291 97.2895 77.0281 96.8541 77.2812L95.4371 75.85C95.3273 75.7379 95.1772 75.674 95.0213 75.674C94.8654 75.674 94.7153 75.7379 94.6054 75.85L92.9658 77.5129C92.8553 77.6242 92.7923 77.7763 92.7923 77.9346C92.7923 78.0927 92.8553 78.2447 92.9658 78.3561L94.3712 79.7934C94.1216 80.235 93.9254 80.7058 93.7856 81.1949H91.7947C91.4713 81.1949 91.2091 81.4606 91.2091 81.7888V84.1644C91.2091 84.3217 91.2706 84.4732 91.3804 84.5846C91.4902 84.6959 91.6395 84.7583 91.7947 84.7583H93.7915C93.9312 85.2474 94.1274 85.7182 94.377 86.1598L92.9658 87.5969C92.8553 87.7083 92.7923 87.8605 92.7923 88.0186C92.7923 88.1767 92.8553 88.329 92.9658 88.4403L94.6054 90.1032C94.8339 90.3334 95.2026 90.3334 95.4311 90.1032L96.8483 88.672C97.2837 88.9251 97.7477 89.1241 98.2302 89.2659V91.291C98.2302 91.4483 98.2917 91.5998 98.4015 91.7112C98.5113 91.8225 98.6604 91.8849 98.8158 91.8849H101.158C101.313 91.8849 101.463 91.8225 101.572 91.7112C101.682 91.5998 101.744 91.4483 101.744 91.291V89.2659C102.226 89.1241 102.69 88.9251 103.126 88.672L104.548 90.1032C104.777 90.3334 105.146 90.3334 105.374 90.1032L107.02 88.4403C107.247 88.2087 107.247 87.8345 107.02 87.603L105.614 86.1598C105.864 85.7182 106.06 85.2474 106.2 84.7583H108.191C108.346 84.7583 108.495 84.6959 108.605 84.5846C108.715 84.4732 108.776 84.3217 108.776 84.1644V81.7888C108.776 81.6315 108.715 81.48 108.605 81.3686C108.495 81.2573 108.346 81.1949 108.191 81.1949ZM99.9928 85.3521C99.0455 85.3521 98.1914 84.7731 97.829 83.886C97.4661 82.9981 97.6666 81.9758 98.3363 81.2966C99.006 80.6174 100.014 80.4141 100.889 80.7822C101.764 81.1497 102.335 82.0159 102.335 82.9766C102.335 83.607 102.088 84.2111 101.649 84.6566C101.21 85.102 100.614 85.3521 99.9928 85.3521Z" fill="black"/>
<path d="M110.842 165.633H109.414C109.314 165.283 109.174 164.946 108.996 164.631L110.004 163.603C110.083 163.524 110.128 163.415 110.128 163.302C110.128 163.189 110.083 163.08 110.004 163L108.832 161.812C108.669 161.647 108.405 161.647 108.242 161.812L107.225 162.831C106.913 162.65 106.582 162.507 106.237 162.406V160.962C106.237 160.85 106.193 160.742 106.114 160.662C106.036 160.582 105.929 160.538 105.818 160.538H104.144C103.912 160.538 103.725 160.728 103.725 160.962V162.41C103.38 162.512 103.048 162.654 102.737 162.835L101.724 161.812C101.645 161.731 101.538 161.686 101.427 161.686C101.315 161.686 101.208 161.731 101.129 161.812L99.9572 163C99.8782 163.08 99.8331 163.189 99.8331 163.302C99.8331 163.415 99.8782 163.524 99.9572 163.603L100.962 164.631C100.783 164.946 100.643 165.283 100.543 165.633H99.1199C98.8887 165.633 98.7013 165.823 98.7013 166.057V167.756C98.7013 167.868 98.7452 167.976 98.8237 168.056C98.9022 168.136 99.009 168.18 99.1199 168.18H100.547C100.647 168.53 100.788 168.866 100.966 169.182L99.9572 170.21C99.8782 170.289 99.8331 170.398 99.8331 170.511C99.8331 170.624 99.8782 170.733 99.9572 170.813L101.129 172.001C101.293 172.166 101.556 172.166 101.72 172.001L102.733 170.978C103.044 171.159 103.376 171.301 103.721 171.403V172.851C103.721 172.963 103.765 173.071 103.843 173.151C103.922 173.231 104.028 173.275 104.139 173.275H105.814C105.925 173.275 106.032 173.231 106.11 173.151C106.188 173.071 106.233 172.963 106.233 172.851V171.403C106.577 171.301 106.909 171.159 107.221 170.978L108.238 172.001C108.401 172.166 108.665 172.166 108.828 172.001L110.004 170.813C110.167 170.647 110.167 170.379 110.004 170.214L109 169.182C109.178 168.866 109.318 168.53 109.418 168.18H110.842C110.953 168.18 111.059 168.136 111.138 168.056C111.216 167.976 111.26 167.868 111.26 167.756V166.057C111.26 165.945 111.216 165.837 111.138 165.757C111.059 165.677 110.953 165.633 110.842 165.633ZM104.981 168.605C104.304 168.605 103.693 168.191 103.434 167.557C103.174 166.922 103.318 166.191 103.797 165.705C104.275 165.22 104.996 165.074 105.622 165.338C106.247 165.6 106.655 166.22 106.655 166.906C106.655 167.357 106.479 167.789 106.165 168.108C105.851 168.426 105.425 168.605 104.981 168.605Z" fill="black"/>
<path d="M109.72 187.724H108.292C108.192 187.374 108.052 187.037 107.873 186.722L108.882 185.694C108.961 185.614 109.006 185.506 109.006 185.393C109.006 185.28 108.961 185.171 108.882 185.091L107.71 183.902C107.547 183.738 107.283 183.738 107.12 183.902L106.103 184.921C105.791 184.74 105.459 184.598 105.115 184.497V183.053C105.115 182.941 105.071 182.832 104.992 182.753C104.914 182.673 104.807 182.629 104.696 182.629H103.021C102.79 182.629 102.603 182.819 102.603 183.053V184.501C102.258 184.602 101.926 184.745 101.615 184.926L100.602 183.902C100.523 183.822 100.416 183.777 100.305 183.777C100.193 183.777 100.086 183.822 100.007 183.902L98.8351 185.091C98.7561 185.171 98.7111 185.279 98.7111 185.393C98.7111 185.506 98.7561 185.614 98.8351 185.694L99.8399 186.722C99.6614 187.037 99.5212 187.374 99.4212 187.724H97.9979C97.7666 187.724 97.5792 187.913 97.5792 188.148V189.846C97.5792 189.959 97.6232 190.067 97.7017 190.147C97.7802 190.226 97.8869 190.271 97.9979 190.271H99.4254C99.5253 190.621 99.6656 190.957 99.844 191.273L98.8351 192.3C98.7561 192.38 98.7111 192.489 98.7111 192.602C98.7111 192.715 98.7561 192.824 98.8351 192.903L100.007 194.092C100.171 194.257 100.434 194.257 100.598 194.092L101.611 193.069C101.922 193.25 102.254 193.392 102.599 193.494V194.941C102.599 195.054 102.643 195.162 102.721 195.242C102.8 195.321 102.906 195.366 103.017 195.366H104.692C104.803 195.366 104.91 195.321 104.988 195.242C105.066 195.162 105.111 195.054 105.111 194.941V193.494C105.455 193.392 105.787 193.25 106.098 193.069L107.116 194.092C107.279 194.257 107.543 194.257 107.706 194.092L108.882 192.903C109.045 192.738 109.045 192.47 108.882 192.305L107.878 191.273C108.056 190.957 108.196 190.621 108.296 190.271H109.72C109.831 190.271 109.937 190.226 110.016 190.147C110.094 190.067 110.138 189.959 110.138 189.846V188.148C110.138 188.036 110.094 187.927 110.016 187.848C109.937 187.768 109.831 187.724 109.72 187.724ZM103.859 190.696C103.182 190.696 102.571 190.282 102.312 189.647C102.052 189.013 102.196 188.282 102.675 187.796C103.153 187.311 103.874 187.165 104.5 187.428C105.125 187.691 105.533 188.31 105.533 188.997C105.533 189.448 105.357 189.88 105.043 190.198C104.729 190.517 104.303 190.696 103.859 190.696Z" fill="black"/>
<path d="M137.511 82.317H135.514C135.374 81.8278 135.178 81.3571 134.928 80.9154L136.34 79.4783C136.45 79.367 136.513 79.2148 136.513 79.0566C136.513 78.8985 136.45 78.7463 136.34 78.6349L134.7 76.9721C134.472 76.7419 134.103 76.7419 133.874 76.9721L132.451 78.3974C132.016 78.1442 131.552 77.9453 131.069 77.8035V75.7843C131.069 75.6269 131.008 75.4755 130.898 75.3641C130.788 75.2527 130.639 75.1904 130.484 75.1904H128.142C127.818 75.1904 127.556 75.4561 127.556 75.7843V77.8094C127.074 77.9512 126.609 78.1501 126.174 78.4033L124.757 76.9721C124.647 76.8599 124.497 76.7961 124.341 76.7961C124.185 76.7961 124.035 76.8599 123.925 76.9721L122.286 78.6349C122.175 78.7463 122.112 78.8983 122.112 79.0566C122.112 79.2148 122.175 79.3668 122.286 79.4782L123.691 80.9154C123.442 81.3571 123.245 81.8278 123.106 82.317H121.115C120.791 82.317 120.529 82.5827 120.529 82.9109V85.2864C120.529 85.4438 120.591 85.5953 120.7 85.7066C120.81 85.818 120.959 85.8803 121.115 85.8803H123.111C123.251 86.3695 123.447 86.8402 123.697 87.2819L122.286 88.719C122.175 88.8304 122.112 88.9826 122.112 89.1407C122.112 89.2988 122.175 89.451 122.286 89.5624L123.925 91.2253C124.154 91.4554 124.523 91.4554 124.751 91.2253L126.168 89.7941C126.604 90.0472 127.068 90.2462 127.55 90.388V92.413C127.55 92.5704 127.612 92.7219 127.721 92.8332C127.831 92.9446 127.98 93.0069 128.136 93.0069H130.478C130.633 93.0069 130.783 92.9446 130.892 92.8332C131.002 92.7219 131.064 92.5704 131.064 92.413V90.388C131.546 90.2462 132.01 90.0472 132.446 89.7941L133.868 91.2253C134.097 91.4554 134.466 91.4554 134.694 91.2253L136.34 89.5624C136.567 89.3307 136.567 88.9565 136.34 88.7251L134.934 87.2819C135.184 86.8402 135.38 86.3695 135.52 85.8803H137.511C137.666 85.8803 137.815 85.818 137.925 85.7066C138.035 85.5953 138.096 85.4438 138.096 85.2864V82.9109C138.096 82.7535 138.035 82.6021 137.925 82.4907C137.815 82.3793 137.666 82.317 137.511 82.317ZM129.313 86.4742C128.365 86.4742 127.511 85.8951 127.149 85.008C126.786 84.1201 126.987 83.0979 127.656 82.4187C128.326 81.7395 129.334 81.5361 130.209 81.9042C131.084 82.2718 131.655 83.138 131.655 84.0987C131.655 84.729 131.408 85.3332 130.969 85.7786C130.53 86.2241 129.934 86.4742 129.313 86.4742Z" fill="black"/>
<path fill-rule="evenodd" clip-rule="evenodd" d="M46.45 186.13C48.8847 188.294 52.1751 189.661 55.52 190.83C63.0823 193.473 71.3745 194.953 78.3938 198.518C87.5349 203.161 94.9404 209.635 104.422 214.326C110.523 217.343 120.757 218.78 127.784 219.546C130.726 219.868 133.304 220.669 136.091 221.356C137.252 221.641 140.044 222.901 139.648 222.009C137.268 216.65 125.631 211.827 118.737 211.5C118.534 211.489 116.383 211.048 116.457 210.903C118.304 207.247 122.87 205.769 125.918 202.978C127.218 201.788 127.747 200.388 128.484 198.962C128.821 198.311 130.232 196.772 129.367 196.976C122.977 198.478 113.587 208.316 110.84 208.442C103.496 208.784 97.9534 201.138 92.0757 198.411C70.543 188.422 52.2407 188.474 42.516 169.024" fill="#D5784A"/>
<path fill-rule="evenodd" clip-rule="evenodd" d="M118.41 216.177C119.221 222.185 125.032 226.575 128.793 230.916C130.167 232.502 131.019 234.267 132.059 236.076C132.56 236.949 133.744 239.693 133.123 238.901C129.957 234.86 104.036 213.354 103.856 212.632" fill="#D77848"/>
<path fill-rule="evenodd" clip-rule="evenodd" d="M66.5177 38.2713L74.4164 59.3692L137.908 52.0702L131.533 26.8099L95.922 22.8622L66.5177 38.2713Z" fill="black"/>
<path fill-rule="evenodd" clip-rule="evenodd" d="M156.155 147.728C160.427 147.728 170.828 150.528 174.786 151.789C176.974 152.485 179.012 153.639 181.237 154.216C184.771 155.134 191.759 155.142 187.819 158.343C186.6 159.333 184.715 159.814 183.042 159.93C178.853 160.223 160.103 156.689 159.071 154.584" fill="#D77848"/>
<path fill-rule="evenodd" clip-rule="evenodd" d="M137.084 34.6533C137.278 35.5606 138.42 46.8182 137.869 47.1459C135.997 48.256 129.588 45.0717 127.357 44.9879C119.473 44.6916 112.871 44.5008 104.966 45.0739C96.7695 45.6681 87.9386 47.5125 80.8559 51.6073C78.6152 52.9028 72.6533 58.4873 70.8819 60.3138C68.6737 62.5902 65.1591 45.4654 66.0523 44.4278C67.8594 42.3303 96.0611 30.3044 108.658 30.8392C118.277 31.2474 127.818 31.8952 137.084 34.6533Z" fill="#485660"/>
<path d="M114.294 30.7916L98.4091 40.1602L106.166 45.3886L122.05 36.02L114.294 30.7916Z" fill="#000407"/>
<path d="M125.837 42.1688L124.913 31.2133C124.783 29.6607 123.495 28.5745 121.942 28.7053L96.38 30.8603C94.9201 30.9834 93.7411 32.2775 93.8723 33.8302L94.7957 44.7857C94.9268 46.3384 96.3053 47.4169 97.7656 47.2938L123.328 45.1384C124.88 45.0076 125.968 43.7215 125.837 42.1688Z" fill="#F4E8E8"/>
<path d="M95.2481 39.2373C95.1633 38.2326 95.9154 37.3417 96.9205 37.2569C97.9253 37.1721 98.8161 37.9246 98.9009 38.9294C98.9857 39.9341 98.2332 40.825 97.2284 40.9097C96.2237 40.9945 95.3324 40.242 95.2481 39.2373Z" fill="black"/>
<path d="M100.351 45.2439L99.274 32.464L120.272 30.6933L121.35 43.4752L100.351 45.2439Z" fill="black"/>
<path d="M123.252 36.1725C123.48 36.1673 123.481 36.1671 123.254 36.172C123.027 36.1769 122.659 36.185 122.431 36.1902C122.204 36.1953 122.203 36.1955 122.43 36.1906C122.657 36.1858 123.025 36.1776 123.252 36.1725Z" fill="#495660"/>
</svg>
