<svg width="366" height="184" viewBox="0 0 366 184" fill="none" xmlns="http://www.w3.org/2000/svg">
<g filter="url(#filter0_d_16_946)">
<path d="M148.121 2.24464V7.48233H156.115V2.24464C156.115 1.49624 156.283 0.935085 156.62 0.561163C156.957 0.186684 157.399 0 157.948 0C158.505 0 158.956 0.185012 159.301 0.555032C159.646 0.925053 159.819 1.48788 159.819 2.24464V16.6487C159.819 17.4055 159.644 17.9711 159.295 18.345C158.945 18.7189 158.497 18.9062 157.948 18.9062C157.391 18.9062 156.946 18.7173 156.613 18.3389C156.281 17.9605 156.115 17.3971 156.115 16.6487V10.5005H148.121V16.6487C148.121 17.4055 147.946 17.9711 147.597 18.345C147.247 18.7189 146.799 18.9062 146.25 18.9062C145.693 18.9062 145.248 18.7173 144.915 18.3389C144.583 17.9605 144.417 17.3971 144.417 16.6487V2.24464C144.417 1.49624 144.581 0.935085 144.909 0.561163C145.238 0.186684 145.684 0 146.25 0C146.807 0 147.258 0.185012 147.603 0.555032C147.948 0.925053 148.121 1.48788 148.121 2.24464Z" fill="#244B7C"/>
<path d="M179.457 16.5244L178.584 14.2296H171.151L170.278 16.574C169.937 17.4885 169.646 18.1059 169.405 18.4258C169.164 18.7462 168.769 18.9062 168.22 18.9062C167.755 18.9062 167.343 18.7356 166.986 18.3952C166.628 18.0541 166.449 17.6674 166.449 17.2349C166.449 16.9858 166.491 16.7278 166.574 16.462C166.657 16.1957 166.795 15.8256 166.986 15.352L171.662 3.47954C171.795 3.13849 171.955 2.7289 172.143 2.25078C172.329 1.77265 172.529 1.37587 172.741 1.05991C172.953 0.743938 173.231 0.488161 173.576 0.293119C173.921 0.0975211 174.348 0 174.855 0C175.37 0 175.8 0.0975211 176.145 0.293119C176.491 0.488161 176.769 0.740044 176.981 1.04765C177.193 1.35526 177.372 1.68571 177.517 2.03901C177.663 2.39232 177.848 2.86432 178.072 3.45446L182.849 15.2522C183.223 16.15 183.41 16.8025 183.41 17.2099C183.41 17.6339 183.234 18.0229 182.88 18.3762C182.527 18.7295 182.101 18.9062 181.602 18.9062C181.311 18.9062 181.062 18.8543 180.854 18.7501C180.646 18.6465 180.471 18.5049 180.33 18.3261C180.188 18.1477 180.037 17.873 179.875 17.503C179.712 17.133 179.573 16.807 179.457 16.5244ZM172.124 11.4484H177.586L174.83 3.90305L172.124 11.4484Z" fill="#244B7C"/>
<path d="M197.183 11.4785H193.791V16.6538C193.791 17.3939 193.616 17.955 193.267 18.3379C192.918 18.7201 192.477 18.9113 191.945 18.9113C191.388 18.9113 190.939 18.7224 190.598 18.344C190.257 17.9656 190.086 17.4106 190.086 16.6789V2.58634C190.086 1.77163 190.274 1.18984 190.648 0.840438C191.022 0.491035 191.617 0.31662 192.431 0.31662H197.183C198.588 0.31662 199.669 0.424729 200.425 0.640946C201.174 0.848804 201.82 1.19374 202.365 1.67633C202.909 2.15836 203.323 2.7485 203.606 3.44675C203.888 4.14555 204.03 4.93129 204.03 5.80396C204.03 7.66633 203.456 9.07787 202.308 10.038C201.161 10.9982 199.453 11.4785 197.183 11.4785ZM196.285 3.09791H193.791V8.685H196.285C197.158 8.685 197.888 8.59361 198.474 8.41083C199.06 8.22749 199.506 7.92824 199.815 7.51252C200.122 7.09681 200.276 6.55236 200.276 5.87863C200.276 5.07227 200.039 4.41582 199.565 3.90816C199.033 3.36817 197.939 3.09791 196.285 3.09791Z" fill="#244B7C"/>
<path d="M218.178 11.4785H214.786V16.6538C214.786 17.3939 214.611 17.955 214.262 18.3379C213.913 18.7201 213.472 18.9113 212.94 18.9113C212.383 18.9113 211.934 18.7224 211.593 18.344C211.252 17.9656 211.082 17.4106 211.082 16.6789V2.58634C211.082 1.77163 211.269 1.18984 211.643 0.840438C212.017 0.491035 212.611 0.31662 213.426 0.31662H218.178C219.583 0.31662 220.664 0.424729 221.421 0.640946C222.169 0.848804 222.815 1.19374 223.36 1.67633C223.904 2.15836 224.318 2.7485 224.601 3.44675C224.883 4.14555 225.024 4.93129 225.024 5.80396C225.024 7.66633 224.451 9.07787 223.304 10.038C222.156 10.9982 220.448 11.4785 218.178 11.4785ZM217.28 3.09791H214.786V8.685H217.28C218.153 8.685 218.883 8.59361 219.469 8.41083C220.055 8.22749 220.502 7.92824 220.809 7.51252C221.117 7.09681 221.271 6.55236 221.271 5.87863C221.271 5.07227 221.034 4.41582 220.56 3.90816C220.028 3.36817 218.935 3.09791 217.28 3.09791Z" fill="#244B7C"/>
<path d="M236.152 16.6487V10.8499L231.687 3.92813C231.296 3.30455 231.02 2.81807 230.858 2.46922C230.695 2.11982 230.614 1.81667 230.614 1.55866C230.614 1.13458 230.779 0.769021 231.107 0.461413C231.436 0.153805 231.841 0 232.323 0C232.83 0 233.214 0.143218 233.476 0.430207C233.738 0.717196 234.131 1.28839 234.655 2.14489L238.072 7.69465L241.526 2.14489C241.734 1.80385 241.909 1.51742 242.05 1.28448C242.192 1.05155 242.348 0.833107 242.518 0.629707C242.688 0.42575 242.878 0.270271 243.086 0.162163C243.293 0.0540544 243.547 0 243.846 0C244.312 0 244.701 0.151576 245.013 0.455282C245.324 0.758432 245.48 1.1095 245.48 1.50906C245.48 1.83282 245.401 2.15716 245.243 2.48148C245.085 2.80581 244.815 3.25495 244.433 3.82838L239.856 10.8499V16.6487C239.856 17.4055 239.681 17.9711 239.332 18.345C238.983 18.7189 238.538 18.9062 237.997 18.9062C237.448 18.9062 237.004 18.7212 236.663 18.3511C236.322 17.9811 236.152 17.4138 236.152 16.6487Z" fill="#244B7C"/>
<path fill-rule="evenodd" clip-rule="evenodd" d="M60.7717 5.33667C44.1788 7.98845 19.6391 18.2049 12.8527 25.2873C2.53825 36.0502 0.888536 55.4911 9.74776 61.8821C15.2967 65.8852 17.4398 67.1552 18.6147 67.1371C19.2825 67.1262 18.8756 66.5546 17.6544 65.7866C6.06542 58.4991 13.61 36.9826 32.1243 24.5192C47.5315 14.1477 57.6359 9.50028 68.5525 7.76453C73.9308 6.90879 74.0304 7.18047 71.547 15.9704C68.5046 26.7404 63.0382 53.3028 59.125 76.3334C58.7445 78.575 57.8335 79.3422 50.8147 83.3336C27.5426 96.569 18.6085 107.117 17.9786 122.105C17.07 143.733 39.736 150.676 52.6528 132.728C59.3319 123.447 70.3373 88.7186 70.3373 76.9238C70.3373 76.739 71.6635 75.9013 73.2839 75.0627C74.9043 74.2242 76.7015 72.9629 77.2766 72.2598C78.0856 71.2718 83.8021 67.9436 84.6907 67.9436C84.7833 67.9436 84.0059 71.0267 82.963 74.7942C75.3019 102.471 82.5778 128.989 99.4285 134.812C104.671 136.624 104.932 136.368 100.749 133.514C88.9103 125.437 85.4194 99.2263 92.2869 69.969L94.1088 62.207L99.7852 57.0702C108.449 49.2316 109.999 47.4128 113.976 40.4197C122.488 25.4548 117.566 14.9675 105.753 22.8962C100.224 26.6073 93.7954 38.2776 88.9188 53.4594C87.5354 57.7655 86.1265 62.0144 85.7876 62.9015C85.1654 64.5316 72.0155 73.0381 71.2768 72.2888C70.8599 71.8668 75.0857 49.9769 80.8725 22.5822C82.8426 13.2544 83.9658 6.29106 83.5659 5.8855C82.5731 4.87866 66.1176 4.48249 60.7717 5.33667ZM115.494 29.5801C114.697 34.1743 96.5845 59.0025 96.5845 55.502C96.5845 54.1687 101.306 42.6448 104.003 37.3921C109.983 25.7508 116.986 20.9898 115.494 29.5801ZM158.852 39.0551C150.932 44.3758 143.635 55.9272 140.712 67.7721C136.773 83.7305 106.234 78.5828 106.234 61.9604V57.0264L104.439 58.842C93.5592 69.8523 114.18 83.7752 133.603 78.5327C138.82 77.125 138.494 76.5511 137.433 85.2619C134.249 111.407 142.989 136.556 156.681 140.645C161.238 142.006 161.322 141.496 157.114 137.998C147.263 129.811 142.904 105.398 146.704 79.6875L147.804 72.2497L154.157 65.5423C172.062 46.6377 175.373 27.957 158.852 39.0551ZM168.714 38.8922C170.3 41.4947 153.884 64.8118 150.466 64.8118C149.054 64.8118 155.855 50.1632 159.837 44.6256C163.017 40.2044 167.678 37.1933 168.714 38.8922ZM232.685 46.2173C227.249 52.0133 219.249 68.2606 213.891 84.3851C212.532 88.4759 211.318 91.9395 211.195 92.082C211.07 92.2245 210.366 91.0533 209.63 89.4788C205.704 81.0889 193.713 81.9228 185.384 91.1652C168.654 109.729 173.135 136.238 191.189 125.508C193.314 124.245 205.819 113.191 205.819 112.575C205.819 112.574 205.78 115.478 205.732 119.03C205.577 130.533 209.117 136.131 217.74 138.016L220.396 138.597L218.338 136.116C209.77 125.79 214.182 102.271 230.844 69.4374C238.967 53.4304 241.2 47.0464 239.431 44.8832C237.853 42.9564 235.264 43.4684 232.685 46.2173ZM343.618 68.9669C329.93 73.3426 323.97 93.4937 331.476 110.023C340.082 128.974 341.025 141.799 334.491 151.017C326.1 162.856 312.514 157.875 316.6 144.458C319.371 135.359 324.478 130.192 328.993 131.921C331.849 133.014 331.92 131.998 329.143 129.775C321.48 123.64 307.721 134.166 307.721 146.165C307.721 156.888 312.656 161.632 323.088 160.938C342.307 159.66 348.38 144.256 340.922 115.702C335.466 94.8129 337.852 76.8932 346.707 72.2489C352.091 69.4249 356.471 71.8402 356.06 77.406C356.01 78.0888 354.178 80.9073 351.987 83.6695C346.427 90.6806 344.863 94.5334 345.407 99.8816C346.012 105.825 350.565 110.89 350.565 105.62C350.565 102.248 352.251 98.7941 357.451 91.5066C367.074 78.0175 358.584 64.1832 343.618 68.9669ZM166.963 71.5419C163.121 74.2712 167.067 81.3669 171.763 80.1713C175.905 79.1175 176.176 73.5313 172.186 71.4393C169.447 70.0027 169.12 70.0089 166.963 71.5419ZM282.631 84.9182C282.631 95.7258 270.162 117.966 261.579 122.467C258.048 124.318 258.121 123.502 262.72 109.607C268.044 93.5281 270.28 86.4269 270.28 85.6002C270.28 84.2214 262.497 85.738 260.678 87.4714L258.846 89.2165L258.312 87.5121C254.709 75.9968 234.718 86.8959 225.717 105.284C214.36 128.486 229.277 137.378 246.329 117.571C251.122 112.004 251.236 111.957 250.137 115.993C246.597 128.997 259.98 130.211 269.571 117.756C273.354 112.843 273.825 112.727 272.656 116.999C268.265 133.037 280.819 133.707 294.798 118.181C298.015 114.609 298.078 114.58 297.625 116.877C296.124 124.5 293.909 129.465 290.814 132.144C270.319 149.886 263.489 169.237 275.746 174.842C286.183 179.615 292.595 170.312 303.709 134.273C306.614 124.852 311.159 121.731 324.872 119.741L328.547 119.208L326.724 117.359C324.503 115.106 315.764 115.25 311.275 117.613C309.343 118.63 308.758 118.714 309.051 117.934C317.74 94.8152 318.138 86.838 310.725 84.3569C307.186 83.1731 307.125 83.2616 304.775 92.8986C302.568 101.948 300.847 105.038 292.048 115.746C279.032 131.586 276.709 130.108 285.047 111.29C293.944 91.2083 293.878 84.6708 284.754 82.3956C282.712 81.8867 282.631 81.983 282.631 84.9182ZM56.163 91.5536C46.6792 131.264 38.5565 145.079 29.119 137.55C18.0627 128.73 26.1994 110.545 51.1984 88.2034C58.648 81.5462 58.5661 81.4906 56.163 91.5536ZM165.484 83.3375C164.953 83.5552 164.519 84.9347 164.519 86.4042C164.519 87.8738 163.118 93.7458 161.406 99.4533C155.141 120.344 157.372 130.321 168.898 132.957L171.385 133.526L168.789 131.044C164.279 126.729 164.505 119.865 169.679 104.104C174.11 90.6 172.097 80.6309 165.484 83.3375ZM112.252 85.5829C98.0652 92.7812 94.5913 120.5 106.955 127.849C115.674 133.031 122.12 127.596 126.005 111.788C131.045 91.278 124.732 79.2498 112.252 85.5829ZM255.346 88.3999C258.318 90.9022 256.303 97.5085 249.371 107.991C236.464 127.507 229.293 130.695 232.8 115.357C237.029 96.8657 248.751 82.8497 255.346 88.3999ZM124.842 91.0548C129.614 98.441 119.111 129.308 112.961 125.97C108.365 123.475 107.11 107.825 110.835 99.447C114.799 90.5334 121.797 86.34 124.842 91.0548ZM207.115 92.3592C212.572 94.4214 208.242 108.39 199.86 115.766C186.1 127.874 182.782 128.228 184.477 117.407C186.29 105.834 193.293 94.0848 199.713 91.8464C202.64 90.8262 203.151 90.8615 207.115 92.3592ZM291.5 136.646C291.191 137.399 289.245 142.772 287.175 148.585C279.32 170.645 274.185 176.748 274.151 164.064C274.137 158.791 275.634 154.539 279.626 148.511C284.882 140.572 293.36 132.101 291.5 136.646Z" fill="white"/>
</g>
<defs>
<filter id="filter0_d_16_946" x="0" y="0" width="365.537" height="184" filterUnits="userSpaceOnUse" color-interpolation-filters="sRGB">
<feFlood flood-opacity="0" result="BackgroundImageFix"/>
<feColorMatrix in="SourceAlpha" type="matrix" values="0 0 0 0 0 0 0 0 0 0 0 0 0 0 0 0 0 0 127 0" result="hardAlpha"/>
<feOffset dy="4"/>
<feGaussianBlur stdDeviation="2"/>
<feComposite in2="hardAlpha" operator="out"/>
<feColorMatrix type="matrix" values="0 0 0 0 0 0 0 0 0 0 0 0 0 0 0 0 0 0 0.25 0"/>
<feBlend mode="normal" in2="BackgroundImageFix" result="effect1_dropShadow_16_946"/>
<feBlend mode="normal" in="SourceGraphic" in2="effect1_dropShadow_16_946" result="shape"/>
</filter>
</defs>
</svg>
